M48
;GenerationSoftware,Autodesk,EAGLE,9.6.2*%
;CreationDate,2022-08-20T02:47:24Z*%
FMAT,2
ICI,OFF
METRIC,TZ,000.000
T3C0.508
T2C0.700
T1C1.016
%
G90
M71
T1
X31115Y26035
X13335Y26035
X10795Y26035
X8255Y26035
X44450Y24765
X41275Y1905
X38735Y1905
X36195Y1905
X33655Y1905
X31115Y1905
X28575Y1905
X26035Y1905
X23495Y1905
X20955Y1905
X18415Y1905
X15875Y1905
X13335Y1905
X10795Y1905
X8255Y1905
X41275Y26035
X38735Y26035
X36195Y26035
X33655Y26035
X28575Y26035
X26035Y26035
X23495Y26035
X20955Y26035
X18415Y26035
X15875Y26035
T2
X50002Y3350
X48202Y3350
X48202Y19105
X50002Y19105
T3
X23774Y7315
X15850Y20726
X22555Y19101
X32715Y20726
X40437Y13614
X26619Y22555
X27432Y9550
X22555Y7315
X21133Y3658
X32970Y13100
X28042Y23978
X28651Y9144
X33731Y6909
X27432Y12802
X23774Y9144
X39421Y5283
X40640Y5283
X34341Y9144
X16510Y9525
X15037Y24181
X1270Y25400
X5080Y25400
X7990Y13260
X7990Y8800
X5080Y2540
X1270Y2540
X45720Y1905
X42950Y23280
X45780Y26370
X28250Y6190
X38640Y10660
X32670Y19230
X23610Y18150
X20250Y17340
X13010Y19930
X40005Y17145
X37186Y12192
X31699Y18085
X8534Y20726
X31699Y15037
X28651Y17678
X23774Y10566
X27838Y14630
X19304Y7315
X26416Y3658
X27432Y11379
X11176Y7315
X27432Y16459
X19710Y20726
X35966Y9347
X23774Y19914
M30