G04 EAGLE Gerber RS-274X export*
G75*
%MOMM*%
%FSLAX34Y34*%
%LPD*%
%INTop Copper*%
%IPPOS*%
%AMOC8*
5,1,8,0,0,1.08239X$1,22.5*%
G01*
%ADD10R,1.600000X0.800000*%
%ADD11R,0.800000X1.200000*%
%ADD12R,1.200000X0.800000*%
%ADD13R,2.200000X1.050000*%
%ADD14R,0.800000X1.000000*%
%ADD15R,1.000000X1.651000*%
%ADD16R,2.000000X1.100000*%
%ADD17C,1.879600*%
%ADD18C,1.016000*%
%ADD19C,0.203200*%

G36*
X504111Y3744D02*
X504111Y3744D01*
X504132Y3742D01*
X504232Y3764D01*
X504334Y3780D01*
X504352Y3790D01*
X504372Y3795D01*
X504460Y3848D01*
X504551Y3896D01*
X504565Y3911D01*
X504583Y3921D01*
X504650Y4000D01*
X504720Y4074D01*
X504729Y4093D01*
X504743Y4109D01*
X504781Y4204D01*
X504824Y4297D01*
X504826Y4318D01*
X504834Y4337D01*
X504852Y4504D01*
X504846Y7198D01*
X504838Y7244D01*
X504840Y7291D01*
X504818Y7365D01*
X504806Y7440D01*
X504784Y7482D01*
X504770Y7527D01*
X504726Y7590D01*
X504690Y7658D01*
X504656Y7690D01*
X504629Y7728D01*
X504567Y7774D01*
X504512Y7826D01*
X504469Y7846D01*
X504431Y7874D01*
X504358Y7898D01*
X504288Y7930D01*
X504242Y7935D01*
X504197Y7949D01*
X504120Y7948D01*
X504044Y7956D01*
X503998Y7946D01*
X503951Y7945D01*
X503878Y7920D01*
X503804Y7903D01*
X503763Y7879D01*
X503719Y7863D01*
X503658Y7816D01*
X503593Y7777D01*
X503562Y7741D01*
X503525Y7712D01*
X503447Y7605D01*
X503433Y7590D01*
X503431Y7584D01*
X503426Y7577D01*
X503058Y6940D01*
X502585Y6467D01*
X502006Y6132D01*
X501359Y5959D01*
X492548Y5959D01*
X492548Y13238D01*
X492545Y13258D01*
X492547Y13277D01*
X492525Y13379D01*
X492508Y13481D01*
X492499Y13498D01*
X492495Y13518D01*
X492442Y13607D01*
X492393Y13698D01*
X492379Y13712D01*
X492369Y13729D01*
X492290Y13796D01*
X492215Y13867D01*
X492197Y13876D01*
X492182Y13889D01*
X492086Y13928D01*
X491992Y13971D01*
X491972Y13973D01*
X491954Y13981D01*
X491787Y13999D01*
X491024Y13999D01*
X491024Y14001D01*
X491787Y14001D01*
X491807Y14004D01*
X491826Y14002D01*
X491928Y14024D01*
X492030Y14041D01*
X492047Y14050D01*
X492067Y14054D01*
X492156Y14107D01*
X492247Y14156D01*
X492261Y14170D01*
X492278Y14180D01*
X492345Y14259D01*
X492416Y14334D01*
X492425Y14352D01*
X492438Y14367D01*
X492477Y14463D01*
X492520Y14557D01*
X492522Y14577D01*
X492530Y14595D01*
X492548Y14762D01*
X492548Y22041D01*
X501359Y22041D01*
X502006Y21868D01*
X502585Y21533D01*
X503058Y21060D01*
X503396Y20475D01*
X503427Y20437D01*
X503450Y20394D01*
X503504Y20343D01*
X503552Y20285D01*
X503593Y20259D01*
X503628Y20225D01*
X503697Y20194D01*
X503760Y20154D01*
X503807Y20142D01*
X503852Y20122D01*
X503926Y20114D01*
X503999Y20096D01*
X504048Y20101D01*
X504096Y20095D01*
X504169Y20111D01*
X504244Y20118D01*
X504289Y20138D01*
X504337Y20148D01*
X504401Y20187D01*
X504469Y20217D01*
X504505Y20250D01*
X504547Y20275D01*
X504596Y20332D01*
X504651Y20382D01*
X504675Y20425D01*
X504707Y20462D01*
X504735Y20532D01*
X504771Y20597D01*
X504780Y20645D01*
X504798Y20690D01*
X504812Y20816D01*
X504816Y20839D01*
X504815Y20846D01*
X504816Y20857D01*
X504801Y27897D01*
X504789Y27967D01*
X504788Y28038D01*
X504769Y28088D01*
X504761Y28140D01*
X504727Y28202D01*
X504703Y28269D01*
X504670Y28310D01*
X504645Y28357D01*
X504594Y28405D01*
X504549Y28461D01*
X504505Y28490D01*
X504467Y28526D01*
X504402Y28555D01*
X504343Y28594D01*
X504291Y28607D01*
X504243Y28629D01*
X504173Y28637D01*
X504104Y28654D01*
X504051Y28650D01*
X503999Y28656D01*
X503930Y28640D01*
X503859Y28635D01*
X503810Y28614D01*
X503758Y28603D01*
X503698Y28566D01*
X503632Y28538D01*
X503575Y28493D01*
X503548Y28476D01*
X503533Y28459D01*
X503501Y28434D01*
X503447Y28379D01*
X501227Y27459D01*
X498823Y27459D01*
X496603Y28379D01*
X494904Y30078D01*
X493984Y32298D01*
X493984Y34702D01*
X494904Y36922D01*
X496603Y38621D01*
X498823Y39541D01*
X501227Y39541D01*
X503447Y38621D01*
X503477Y38591D01*
X503536Y38548D01*
X503589Y38499D01*
X503635Y38477D01*
X503677Y38447D01*
X503746Y38426D01*
X503812Y38396D01*
X503863Y38390D01*
X503912Y38375D01*
X503984Y38377D01*
X504056Y38369D01*
X504106Y38380D01*
X504158Y38381D01*
X504226Y38406D01*
X504297Y38422D01*
X504341Y38448D01*
X504389Y38466D01*
X504445Y38511D01*
X504508Y38548D01*
X504541Y38587D01*
X504581Y38619D01*
X504620Y38680D01*
X504667Y38736D01*
X504686Y38783D01*
X504714Y38826D01*
X504732Y38897D01*
X504758Y38964D01*
X504766Y39034D01*
X504774Y39065D01*
X504772Y39089D01*
X504777Y39131D01*
X504503Y164817D01*
X504491Y164887D01*
X504489Y164957D01*
X504471Y165007D01*
X504462Y165059D01*
X504429Y165122D01*
X504405Y165188D01*
X504372Y165230D01*
X504347Y165276D01*
X504295Y165325D01*
X504251Y165380D01*
X504206Y165409D01*
X504168Y165445D01*
X504104Y165475D01*
X504044Y165513D01*
X503993Y165526D01*
X503945Y165549D01*
X503874Y165556D01*
X503806Y165574D01*
X503753Y165569D01*
X503700Y165575D01*
X503631Y165560D01*
X503560Y165554D01*
X503512Y165534D01*
X503460Y165522D01*
X503399Y165486D01*
X503334Y165458D01*
X503277Y165412D01*
X503249Y165396D01*
X503234Y165378D01*
X503203Y165353D01*
X501867Y164017D01*
X480183Y164017D01*
X478992Y165208D01*
X478992Y168910D01*
X478989Y168930D01*
X478991Y168949D01*
X478969Y169051D01*
X478953Y169153D01*
X478943Y169170D01*
X478939Y169190D01*
X478886Y169279D01*
X478837Y169370D01*
X478823Y169384D01*
X478813Y169401D01*
X478734Y169468D01*
X478659Y169540D01*
X478641Y169548D01*
X478626Y169561D01*
X478530Y169600D01*
X478436Y169643D01*
X478416Y169645D01*
X478398Y169653D01*
X478231Y169671D01*
X429521Y169671D01*
X390332Y208860D01*
X390274Y208902D01*
X390222Y208951D01*
X390175Y208973D01*
X390133Y209004D01*
X390064Y209025D01*
X389999Y209055D01*
X389947Y209061D01*
X389897Y209076D01*
X389826Y209074D01*
X389755Y209082D01*
X389704Y209071D01*
X389652Y209070D01*
X389584Y209045D01*
X389514Y209030D01*
X389469Y209003D01*
X389421Y208985D01*
X389365Y208940D01*
X389303Y208904D01*
X389269Y208864D01*
X389229Y208832D01*
X389190Y208771D01*
X389143Y208717D01*
X389124Y208668D01*
X389096Y208625D01*
X389078Y208555D01*
X389051Y208489D01*
X389043Y208417D01*
X389035Y208386D01*
X389037Y208363D01*
X389033Y208322D01*
X389033Y207358D01*
X387842Y206167D01*
X374158Y206167D01*
X372967Y207358D01*
X372967Y207518D01*
X372964Y207538D01*
X372966Y207557D01*
X372944Y207659D01*
X372928Y207761D01*
X372918Y207778D01*
X372914Y207798D01*
X372861Y207887D01*
X372812Y207978D01*
X372798Y207992D01*
X372788Y208009D01*
X372709Y208076D01*
X372634Y208148D01*
X372616Y208156D01*
X372601Y208169D01*
X372505Y208208D01*
X372411Y208251D01*
X372391Y208253D01*
X372373Y208261D01*
X372206Y208279D01*
X370593Y208279D01*
X358624Y220248D01*
X358550Y220301D01*
X358481Y220361D01*
X358451Y220373D01*
X358424Y220392D01*
X358337Y220419D01*
X358253Y220453D01*
X358212Y220457D01*
X358189Y220464D01*
X358157Y220463D01*
X358086Y220471D01*
X340922Y220471D01*
X340832Y220457D01*
X340741Y220449D01*
X340711Y220437D01*
X340679Y220432D01*
X340599Y220389D01*
X340515Y220353D01*
X340483Y220327D01*
X340462Y220316D01*
X340440Y220293D01*
X340384Y220248D01*
X338552Y218416D01*
X338499Y218342D01*
X338439Y218273D01*
X338427Y218243D01*
X338408Y218216D01*
X338381Y218129D01*
X338347Y218045D01*
X338343Y218004D01*
X338336Y217981D01*
X338337Y217949D01*
X338329Y217878D01*
X338329Y200714D01*
X338343Y200624D01*
X338351Y200533D01*
X338363Y200503D01*
X338368Y200471D01*
X338411Y200391D01*
X338447Y200307D01*
X338473Y200275D01*
X338484Y200254D01*
X338507Y200232D01*
X338552Y200176D01*
X339918Y198810D01*
X339976Y198768D01*
X340028Y198719D01*
X340075Y198697D01*
X340117Y198666D01*
X340186Y198645D01*
X340251Y198615D01*
X340303Y198609D01*
X340353Y198594D01*
X340424Y198596D01*
X340495Y198588D01*
X340546Y198599D01*
X340598Y198600D01*
X340666Y198625D01*
X340736Y198640D01*
X340781Y198667D01*
X340829Y198685D01*
X340885Y198730D01*
X340947Y198766D01*
X340981Y198806D01*
X341021Y198838D01*
X341035Y198860D01*
X342408Y200233D01*
X356092Y200233D01*
X357283Y199042D01*
X357283Y189358D01*
X356092Y188167D01*
X342408Y188167D01*
X341217Y189358D01*
X341217Y191262D01*
X341214Y191282D01*
X341216Y191301D01*
X341194Y191403D01*
X341178Y191505D01*
X341168Y191522D01*
X341164Y191542D01*
X341111Y191631D01*
X341062Y191722D01*
X341048Y191736D01*
X341038Y191753D01*
X340959Y191820D01*
X340884Y191892D01*
X340866Y191900D01*
X340851Y191913D01*
X340755Y191952D01*
X340661Y191995D01*
X340641Y191997D01*
X340623Y192005D01*
X340456Y192023D01*
X339090Y192023D01*
X339070Y192020D01*
X339051Y192022D01*
X338949Y192000D01*
X338847Y191984D01*
X338830Y191974D01*
X338810Y191970D01*
X338721Y191917D01*
X338630Y191868D01*
X338616Y191854D01*
X338599Y191844D01*
X338532Y191765D01*
X338460Y191690D01*
X338452Y191672D01*
X338439Y191657D01*
X338400Y191561D01*
X338357Y191467D01*
X338355Y191447D01*
X338347Y191429D01*
X338329Y191262D01*
X338329Y183649D01*
X336320Y181640D01*
X312450Y157771D01*
X312394Y157692D01*
X312331Y157617D01*
X312322Y157592D01*
X312307Y157571D01*
X312278Y157478D01*
X312243Y157387D01*
X312242Y157361D01*
X312234Y157336D01*
X312237Y157239D01*
X312233Y157141D01*
X312240Y157116D01*
X312241Y157090D01*
X312274Y156998D01*
X312301Y156905D01*
X312316Y156884D01*
X312325Y156859D01*
X312386Y156783D01*
X312442Y156703D01*
X312463Y156687D01*
X312479Y156667D01*
X312561Y156614D01*
X312639Y156556D01*
X312664Y156548D01*
X312686Y156534D01*
X312780Y156510D01*
X312873Y156480D01*
X312899Y156480D01*
X312924Y156474D01*
X313021Y156481D01*
X313119Y156482D01*
X313150Y156492D01*
X313170Y156493D01*
X313200Y156506D01*
X313280Y156529D01*
X315577Y157481D01*
X318407Y157481D01*
X318917Y157269D01*
X319030Y157243D01*
X319144Y157214D01*
X319151Y157215D01*
X319157Y157213D01*
X319273Y157224D01*
X319389Y157233D01*
X319395Y157236D01*
X319401Y157236D01*
X319509Y157284D01*
X319616Y157330D01*
X319622Y157334D01*
X319626Y157336D01*
X319640Y157349D01*
X319747Y157434D01*
X329953Y167641D01*
X339806Y167641D01*
X339826Y167644D01*
X339845Y167642D01*
X339947Y167664D01*
X340049Y167680D01*
X340066Y167690D01*
X340086Y167694D01*
X340175Y167747D01*
X340266Y167796D01*
X340280Y167810D01*
X340297Y167820D01*
X340364Y167899D01*
X340436Y167974D01*
X340444Y167992D01*
X340457Y168007D01*
X340496Y168103D01*
X340539Y168197D01*
X340541Y168217D01*
X340549Y168235D01*
X340567Y168402D01*
X340567Y171942D01*
X341758Y173133D01*
X351442Y173133D01*
X352633Y171942D01*
X352633Y158258D01*
X351442Y157067D01*
X341758Y157067D01*
X340567Y158258D01*
X340567Y160782D01*
X340564Y160802D01*
X340566Y160821D01*
X340544Y160923D01*
X340528Y161025D01*
X340518Y161042D01*
X340514Y161062D01*
X340461Y161151D01*
X340412Y161242D01*
X340398Y161256D01*
X340388Y161273D01*
X340309Y161340D01*
X340234Y161412D01*
X340216Y161420D01*
X340201Y161433D01*
X340105Y161472D01*
X340011Y161515D01*
X339991Y161517D01*
X339973Y161525D01*
X339806Y161543D01*
X332794Y161543D01*
X332704Y161529D01*
X332613Y161521D01*
X332583Y161509D01*
X332551Y161504D01*
X332471Y161461D01*
X332387Y161425D01*
X332355Y161399D01*
X332334Y161388D01*
X332312Y161365D01*
X332256Y161320D01*
X324058Y153123D01*
X323990Y153027D01*
X323920Y152934D01*
X323918Y152928D01*
X323915Y152923D01*
X323880Y152811D01*
X323844Y152700D01*
X323844Y152694D01*
X323842Y152688D01*
X323845Y152571D01*
X323847Y152454D01*
X323849Y152447D01*
X323849Y152442D01*
X323855Y152425D01*
X323893Y152293D01*
X324105Y151783D01*
X324105Y148953D01*
X323022Y146339D01*
X321021Y144338D01*
X318407Y143255D01*
X315577Y143255D01*
X315043Y143476D01*
X314999Y143487D01*
X314957Y143506D01*
X314880Y143515D01*
X314804Y143533D01*
X314758Y143528D01*
X314713Y143533D01*
X314636Y143517D01*
X314559Y143510D01*
X314517Y143491D01*
X314472Y143481D01*
X314405Y143441D01*
X314334Y143410D01*
X314300Y143378D01*
X314261Y143355D01*
X314210Y143296D01*
X314153Y143243D01*
X314131Y143203D01*
X314101Y143168D01*
X314072Y143096D01*
X314035Y143028D01*
X314026Y142983D01*
X314009Y142940D01*
X313994Y142804D01*
X313991Y142786D01*
X313992Y142781D01*
X313991Y142773D01*
X313991Y138048D01*
X308973Y138048D01*
X308973Y145066D01*
X310398Y145066D01*
X310468Y145077D01*
X310540Y145079D01*
X310589Y145097D01*
X310640Y145105D01*
X310704Y145139D01*
X310771Y145164D01*
X310812Y145196D01*
X310858Y145221D01*
X310907Y145273D01*
X310963Y145317D01*
X310991Y145361D01*
X311027Y145399D01*
X311057Y145464D01*
X311096Y145524D01*
X311109Y145575D01*
X311131Y145622D01*
X311139Y145693D01*
X311156Y145763D01*
X311152Y145815D01*
X311158Y145866D01*
X311143Y145937D01*
X311137Y146008D01*
X311117Y146056D01*
X311106Y146107D01*
X311069Y146168D01*
X311041Y146234D01*
X310996Y146290D01*
X310979Y146318D01*
X310966Y146329D01*
X309879Y148953D01*
X309879Y151783D01*
X310831Y154080D01*
X310853Y154175D01*
X310882Y154268D01*
X310881Y154294D01*
X310887Y154320D01*
X310878Y154416D01*
X310875Y154514D01*
X310866Y154538D01*
X310864Y154564D01*
X310824Y154653D01*
X310791Y154745D01*
X310775Y154765D01*
X310764Y154789D01*
X310698Y154861D01*
X310637Y154937D01*
X310615Y154951D01*
X310598Y154970D01*
X310512Y155017D01*
X310430Y155070D01*
X310405Y155076D01*
X310382Y155089D01*
X310286Y155106D01*
X310192Y155130D01*
X310166Y155128D01*
X310140Y155133D01*
X310043Y155118D01*
X309947Y155111D01*
X309923Y155101D01*
X309897Y155097D01*
X309810Y155053D01*
X309720Y155015D01*
X309695Y154994D01*
X309677Y154985D01*
X309654Y154962D01*
X309589Y154910D01*
X299944Y145264D01*
X299891Y145190D01*
X299831Y145121D01*
X299819Y145091D01*
X299800Y145064D01*
X299773Y144977D01*
X299739Y144893D01*
X299735Y144852D01*
X299728Y144829D01*
X299729Y144797D01*
X299721Y144726D01*
X299721Y143988D01*
X299728Y143941D01*
X299727Y143893D01*
X299748Y143820D01*
X299760Y143745D01*
X299783Y143703D01*
X299797Y143657D01*
X299840Y143595D01*
X299876Y143528D01*
X299910Y143495D01*
X299938Y143456D01*
X299999Y143411D01*
X300054Y143359D01*
X300097Y143338D01*
X300136Y143310D01*
X300208Y143287D01*
X300277Y143255D01*
X300325Y143250D01*
X300370Y143235D01*
X300446Y143236D01*
X300521Y143228D01*
X300568Y143238D01*
X300616Y143239D01*
X300688Y143264D01*
X300762Y143280D01*
X300803Y143305D01*
X300848Y143321D01*
X300908Y143368D01*
X300973Y143406D01*
X301004Y143443D01*
X301042Y143472D01*
X301118Y143576D01*
X301133Y143593D01*
X301135Y143600D01*
X301141Y143608D01*
X301417Y144085D01*
X301890Y144558D01*
X302469Y144893D01*
X303116Y145066D01*
X305927Y145066D01*
X305927Y137287D01*
X305930Y137267D01*
X305928Y137248D01*
X305950Y137146D01*
X305967Y137044D01*
X305976Y137027D01*
X305980Y137007D01*
X306033Y136918D01*
X306082Y136827D01*
X306096Y136813D01*
X306106Y136796D01*
X306185Y136729D01*
X306260Y136658D01*
X306278Y136649D01*
X306293Y136636D01*
X306389Y136597D01*
X306483Y136554D01*
X306503Y136552D01*
X306521Y136544D01*
X306688Y136526D01*
X307451Y136526D01*
X307451Y136524D01*
X306688Y136524D01*
X306668Y136521D01*
X306649Y136523D01*
X306547Y136501D01*
X306445Y136484D01*
X306428Y136475D01*
X306408Y136471D01*
X306319Y136418D01*
X306228Y136369D01*
X306214Y136355D01*
X306197Y136345D01*
X306130Y136266D01*
X306059Y136191D01*
X306050Y136173D01*
X306037Y136158D01*
X305998Y136062D01*
X305955Y135968D01*
X305953Y135948D01*
X305945Y135930D01*
X305927Y135763D01*
X305927Y127984D01*
X303116Y127984D01*
X302469Y128157D01*
X301890Y128492D01*
X301417Y128965D01*
X301141Y129442D01*
X301111Y129480D01*
X301088Y129522D01*
X301034Y129574D01*
X300985Y129633D01*
X300945Y129658D01*
X300910Y129691D01*
X300841Y129723D01*
X300777Y129764D01*
X300731Y129775D01*
X300687Y129795D01*
X300612Y129803D01*
X300538Y129821D01*
X300490Y129817D01*
X300443Y129822D01*
X300368Y129806D01*
X300293Y129799D01*
X300249Y129780D01*
X300202Y129770D01*
X300137Y129731D01*
X300068Y129700D01*
X300032Y129668D01*
X299991Y129644D01*
X299942Y129586D01*
X299886Y129535D01*
X299862Y129493D01*
X299831Y129457D01*
X299803Y129386D01*
X299766Y129320D01*
X299757Y129273D01*
X299739Y129229D01*
X299725Y129100D01*
X299721Y129078D01*
X299722Y129072D01*
X299721Y129062D01*
X299721Y127562D01*
X299735Y127472D01*
X299743Y127381D01*
X299755Y127351D01*
X299760Y127319D01*
X299803Y127239D01*
X299839Y127155D01*
X299865Y127123D01*
X299876Y127102D01*
X299899Y127080D01*
X299944Y127024D01*
X301753Y125215D01*
X301753Y118625D01*
X299944Y116816D01*
X299891Y116742D01*
X299831Y116673D01*
X299819Y116643D01*
X299800Y116616D01*
X299773Y116529D01*
X299739Y116445D01*
X299735Y116404D01*
X299728Y116381D01*
X299729Y116349D01*
X299721Y116278D01*
X299721Y98305D01*
X293848Y92432D01*
X293795Y92358D01*
X293735Y92289D01*
X293723Y92259D01*
X293704Y92232D01*
X293677Y92145D01*
X293643Y92061D01*
X293639Y92020D01*
X293632Y91997D01*
X293633Y91965D01*
X293625Y91894D01*
X293625Y90025D01*
X292542Y87411D01*
X290541Y85410D01*
X287927Y84327D01*
X285097Y84327D01*
X283010Y85192D01*
X282966Y85202D01*
X282924Y85222D01*
X282847Y85230D01*
X282771Y85248D01*
X282725Y85244D01*
X282680Y85249D01*
X282603Y85232D01*
X282526Y85225D01*
X282484Y85206D01*
X282439Y85196D01*
X282372Y85156D01*
X282301Y85125D01*
X282267Y85094D01*
X282228Y85070D01*
X282177Y85011D01*
X282120Y84958D01*
X282098Y84918D01*
X282068Y84883D01*
X282039Y84811D01*
X282002Y84743D01*
X281993Y84698D01*
X281976Y84655D01*
X281961Y84519D01*
X281958Y84501D01*
X281959Y84496D01*
X281958Y84488D01*
X281958Y83058D01*
X281961Y83038D01*
X281959Y83019D01*
X281981Y82917D01*
X281997Y82815D01*
X282007Y82798D01*
X282011Y82778D01*
X282064Y82689D01*
X282113Y82598D01*
X282127Y82584D01*
X282137Y82567D01*
X282216Y82500D01*
X282291Y82428D01*
X282309Y82420D01*
X282324Y82407D01*
X282420Y82368D01*
X282514Y82325D01*
X282534Y82323D01*
X282552Y82315D01*
X282719Y82297D01*
X285743Y82297D01*
X297712Y70328D01*
X297786Y70275D01*
X297855Y70215D01*
X297885Y70203D01*
X297912Y70184D01*
X297999Y70157D01*
X298083Y70123D01*
X298124Y70119D01*
X298147Y70112D01*
X298179Y70113D01*
X298250Y70105D01*
X321510Y70105D01*
X321600Y70119D01*
X321691Y70127D01*
X321721Y70139D01*
X321753Y70144D01*
X321833Y70187D01*
X321917Y70223D01*
X321949Y70249D01*
X321970Y70260D01*
X321992Y70283D01*
X322048Y70328D01*
X334017Y82297D01*
X340456Y82297D01*
X340476Y82300D01*
X340495Y82298D01*
X340597Y82320D01*
X340699Y82336D01*
X340716Y82346D01*
X340736Y82350D01*
X340825Y82403D01*
X340916Y82452D01*
X340930Y82466D01*
X340947Y82476D01*
X341014Y82555D01*
X341086Y82630D01*
X341094Y82648D01*
X341107Y82663D01*
X341146Y82759D01*
X341189Y82853D01*
X341191Y82873D01*
X341199Y82891D01*
X341217Y83058D01*
X341217Y83743D01*
X341232Y83763D01*
X341245Y83806D01*
X341267Y83847D01*
X341281Y83923D01*
X341304Y83998D01*
X341303Y84044D01*
X341311Y84089D01*
X341300Y84166D01*
X341298Y84244D01*
X341282Y84287D01*
X341275Y84332D01*
X341240Y84401D01*
X341213Y84475D01*
X341185Y84510D01*
X341164Y84551D01*
X341108Y84606D01*
X341060Y84667D01*
X341021Y84691D01*
X340988Y84724D01*
X340868Y84790D01*
X340853Y84800D01*
X340848Y84801D01*
X340841Y84804D01*
X339379Y85410D01*
X337378Y87411D01*
X337167Y87921D01*
X337105Y88021D01*
X337045Y88121D01*
X337040Y88125D01*
X337037Y88130D01*
X336947Y88205D01*
X336858Y88281D01*
X336852Y88283D01*
X336848Y88287D01*
X336739Y88329D01*
X336630Y88373D01*
X336623Y88374D01*
X336618Y88375D01*
X336600Y88376D01*
X336463Y88391D01*
X310642Y88391D01*
X310622Y88388D01*
X310603Y88390D01*
X310501Y88368D01*
X310399Y88352D01*
X310382Y88342D01*
X310362Y88338D01*
X310273Y88285D01*
X310182Y88236D01*
X310168Y88222D01*
X310151Y88212D01*
X310084Y88133D01*
X310012Y88058D01*
X310004Y88040D01*
X309991Y88025D01*
X309952Y87929D01*
X309909Y87835D01*
X309907Y87815D01*
X309899Y87797D01*
X309881Y87630D01*
X309881Y86169D01*
X309884Y86149D01*
X309882Y86130D01*
X309904Y86028D01*
X309920Y85926D01*
X309930Y85909D01*
X309934Y85889D01*
X309987Y85800D01*
X310036Y85709D01*
X310050Y85695D01*
X310060Y85678D01*
X310139Y85611D01*
X310214Y85539D01*
X310232Y85531D01*
X310247Y85518D01*
X310343Y85479D01*
X310437Y85436D01*
X310457Y85434D01*
X310475Y85426D01*
X310642Y85408D01*
X314767Y85408D01*
X315958Y84217D01*
X315958Y74533D01*
X314767Y73342D01*
X297083Y73342D01*
X295892Y74533D01*
X295892Y84217D01*
X297083Y85408D01*
X303022Y85408D01*
X303042Y85411D01*
X303061Y85409D01*
X303163Y85431D01*
X303265Y85447D01*
X303282Y85457D01*
X303302Y85461D01*
X303391Y85514D01*
X303482Y85563D01*
X303496Y85577D01*
X303513Y85587D01*
X303580Y85666D01*
X303652Y85741D01*
X303660Y85759D01*
X303673Y85774D01*
X303712Y85870D01*
X303755Y85964D01*
X303757Y85984D01*
X303765Y86002D01*
X303783Y86169D01*
X303783Y99156D01*
X303780Y99176D01*
X303782Y99195D01*
X303760Y99297D01*
X303744Y99399D01*
X303734Y99416D01*
X303730Y99436D01*
X303677Y99525D01*
X303628Y99616D01*
X303614Y99630D01*
X303604Y99647D01*
X303525Y99714D01*
X303450Y99786D01*
X303432Y99794D01*
X303417Y99807D01*
X303321Y99846D01*
X303227Y99889D01*
X303207Y99891D01*
X303189Y99899D01*
X303022Y99917D01*
X302608Y99917D01*
X301417Y101108D01*
X301417Y114792D01*
X302608Y115983D01*
X312292Y115983D01*
X313483Y114792D01*
X313483Y101108D01*
X312292Y99917D01*
X310642Y99917D01*
X310622Y99914D01*
X310603Y99916D01*
X310501Y99894D01*
X310399Y99878D01*
X310382Y99868D01*
X310362Y99864D01*
X310273Y99811D01*
X310182Y99762D01*
X310168Y99748D01*
X310151Y99738D01*
X310084Y99659D01*
X310012Y99584D01*
X310004Y99566D01*
X309991Y99551D01*
X309952Y99455D01*
X309909Y99361D01*
X309907Y99341D01*
X309899Y99323D01*
X309881Y99156D01*
X309881Y95250D01*
X309884Y95230D01*
X309882Y95211D01*
X309904Y95109D01*
X309920Y95007D01*
X309930Y94990D01*
X309934Y94970D01*
X309987Y94881D01*
X310036Y94790D01*
X310050Y94776D01*
X310060Y94759D01*
X310139Y94692D01*
X310214Y94620D01*
X310232Y94612D01*
X310247Y94599D01*
X310343Y94560D01*
X310437Y94517D01*
X310457Y94515D01*
X310475Y94507D01*
X310642Y94489D01*
X336463Y94489D01*
X336578Y94508D01*
X336694Y94525D01*
X336700Y94527D01*
X336706Y94528D01*
X336808Y94583D01*
X336914Y94636D01*
X336918Y94641D01*
X336924Y94644D01*
X337003Y94728D01*
X337086Y94812D01*
X337089Y94818D01*
X337093Y94822D01*
X337101Y94839D01*
X337167Y94959D01*
X337378Y95469D01*
X339379Y97470D01*
X341388Y98302D01*
X341407Y98314D01*
X341428Y98320D01*
X341511Y98378D01*
X341597Y98432D01*
X341611Y98449D01*
X341629Y98461D01*
X341689Y98543D01*
X341754Y98621D01*
X341762Y98642D01*
X341775Y98659D01*
X341806Y98756D01*
X341842Y98851D01*
X341843Y98873D01*
X341850Y98894D01*
X341848Y98995D01*
X341852Y99096D01*
X341846Y99118D01*
X341846Y99140D01*
X341812Y99235D01*
X341784Y99333D01*
X341771Y99351D01*
X341764Y99371D01*
X341701Y99451D01*
X341643Y99535D01*
X341626Y99548D01*
X341612Y99565D01*
X341477Y99665D01*
X341040Y99917D01*
X340567Y100390D01*
X340232Y100969D01*
X340059Y101616D01*
X340059Y106427D01*
X345077Y106427D01*
X345077Y98956D01*
X345096Y98841D01*
X345113Y98725D01*
X345116Y98720D01*
X345117Y98713D01*
X345171Y98611D01*
X345224Y98506D01*
X345229Y98502D01*
X345232Y98496D01*
X345316Y98416D01*
X345400Y98334D01*
X345406Y98330D01*
X345410Y98327D01*
X345427Y98319D01*
X345547Y98253D01*
X347437Y97470D01*
X349438Y95469D01*
X350521Y92855D01*
X350521Y90025D01*
X349438Y87411D01*
X348209Y86182D01*
X348167Y86124D01*
X348118Y86072D01*
X348096Y86025D01*
X348066Y85983D01*
X348045Y85914D01*
X348014Y85849D01*
X348009Y85797D01*
X347993Y85747D01*
X347995Y85676D01*
X347987Y85605D01*
X347998Y85554D01*
X348000Y85502D01*
X348024Y85434D01*
X348039Y85364D01*
X348066Y85319D01*
X348084Y85271D01*
X348129Y85215D01*
X348166Y85153D01*
X348205Y85119D01*
X348238Y85079D01*
X348298Y85040D01*
X348353Y84993D01*
X348401Y84974D01*
X348445Y84946D01*
X348514Y84928D01*
X348581Y84901D01*
X348652Y84893D01*
X348683Y84885D01*
X348707Y84887D01*
X348747Y84883D01*
X356092Y84883D01*
X357283Y83692D01*
X357283Y83058D01*
X357286Y83038D01*
X357284Y83019D01*
X357306Y82917D01*
X357322Y82815D01*
X357332Y82798D01*
X357336Y82778D01*
X357389Y82689D01*
X357438Y82598D01*
X357452Y82584D01*
X357462Y82567D01*
X357541Y82500D01*
X357616Y82428D01*
X357634Y82420D01*
X357649Y82407D01*
X357745Y82368D01*
X357839Y82325D01*
X357859Y82323D01*
X357877Y82315D01*
X358044Y82297D01*
X358086Y82297D01*
X358176Y82311D01*
X358267Y82319D01*
X358297Y82331D01*
X358329Y82336D01*
X358409Y82379D01*
X358493Y82415D01*
X358525Y82441D01*
X358546Y82452D01*
X358568Y82475D01*
X358624Y82520D01*
X361164Y85060D01*
X361206Y85118D01*
X361255Y85170D01*
X361277Y85217D01*
X361308Y85259D01*
X361329Y85328D01*
X361359Y85393D01*
X361365Y85445D01*
X361380Y85495D01*
X361378Y85566D01*
X361386Y85637D01*
X361375Y85688D01*
X361374Y85740D01*
X361349Y85808D01*
X361334Y85878D01*
X361307Y85923D01*
X361289Y85971D01*
X361244Y86027D01*
X361208Y86089D01*
X361168Y86123D01*
X361136Y86163D01*
X361075Y86202D01*
X361021Y86249D01*
X360972Y86268D01*
X360929Y86296D01*
X360859Y86314D01*
X360793Y86341D01*
X360721Y86349D01*
X360690Y86357D01*
X360667Y86355D01*
X360626Y86359D01*
X358249Y86359D01*
X355635Y87442D01*
X353634Y89443D01*
X352551Y92057D01*
X352551Y94887D01*
X353634Y97501D01*
X355635Y99502D01*
X358097Y100522D01*
X358197Y100584D01*
X358297Y100643D01*
X358301Y100648D01*
X358306Y100651D01*
X358381Y100742D01*
X358457Y100830D01*
X358459Y100836D01*
X358463Y100841D01*
X358505Y100949D01*
X358549Y101058D01*
X358550Y101066D01*
X358551Y101071D01*
X358552Y101089D01*
X358567Y101225D01*
X358567Y114792D01*
X359758Y115983D01*
X365897Y115983D01*
X365967Y115994D01*
X366039Y115996D01*
X366088Y116014D01*
X366139Y116022D01*
X366203Y116056D01*
X366270Y116081D01*
X366311Y116113D01*
X366357Y116138D01*
X366406Y116190D01*
X366462Y116234D01*
X366490Y116278D01*
X366526Y116316D01*
X366556Y116381D01*
X366595Y116441D01*
X366608Y116492D01*
X366630Y116539D01*
X366638Y116610D01*
X366655Y116680D01*
X366651Y116732D01*
X366657Y116783D01*
X366642Y116854D01*
X366636Y116925D01*
X366616Y116973D01*
X366605Y117024D01*
X366568Y117085D01*
X366540Y117151D01*
X366495Y117207D01*
X366478Y117235D01*
X366461Y117250D01*
X366435Y117282D01*
X365826Y117891D01*
X364743Y120505D01*
X364743Y122374D01*
X364729Y122464D01*
X364721Y122555D01*
X364709Y122585D01*
X364704Y122617D01*
X364661Y122697D01*
X364625Y122781D01*
X364599Y122813D01*
X364588Y122834D01*
X364565Y122856D01*
X364520Y122912D01*
X362711Y124721D01*
X362711Y127731D01*
X362708Y127751D01*
X362710Y127770D01*
X362688Y127872D01*
X362672Y127974D01*
X362662Y127991D01*
X362658Y128011D01*
X362605Y128100D01*
X362556Y128191D01*
X362542Y128205D01*
X362532Y128222D01*
X362453Y128289D01*
X362378Y128361D01*
X362360Y128369D01*
X362345Y128382D01*
X362249Y128421D01*
X362155Y128464D01*
X362135Y128466D01*
X362117Y128474D01*
X361950Y128492D01*
X359758Y128492D01*
X358567Y129683D01*
X358567Y143367D01*
X359758Y144558D01*
X361950Y144558D01*
X361970Y144561D01*
X361989Y144559D01*
X362091Y144581D01*
X362193Y144597D01*
X362210Y144607D01*
X362230Y144611D01*
X362319Y144664D01*
X362410Y144713D01*
X362424Y144727D01*
X362441Y144737D01*
X362508Y144816D01*
X362580Y144891D01*
X362588Y144909D01*
X362601Y144924D01*
X362640Y145020D01*
X362683Y145114D01*
X362685Y145134D01*
X362693Y145152D01*
X362711Y145319D01*
X362711Y156306D01*
X362708Y156326D01*
X362710Y156345D01*
X362688Y156447D01*
X362672Y156549D01*
X362662Y156566D01*
X362658Y156586D01*
X362605Y156675D01*
X362556Y156766D01*
X362542Y156780D01*
X362532Y156797D01*
X362453Y156864D01*
X362378Y156936D01*
X362360Y156944D01*
X362345Y156957D01*
X362249Y156996D01*
X362155Y157039D01*
X362135Y157041D01*
X362117Y157049D01*
X361950Y157067D01*
X359758Y157067D01*
X358567Y158258D01*
X358567Y171942D01*
X359758Y173133D01*
X359918Y173133D01*
X359938Y173136D01*
X359957Y173134D01*
X360059Y173156D01*
X360161Y173172D01*
X360178Y173182D01*
X360198Y173186D01*
X360287Y173239D01*
X360378Y173288D01*
X360392Y173302D01*
X360409Y173312D01*
X360476Y173391D01*
X360548Y173466D01*
X360556Y173484D01*
X360569Y173499D01*
X360608Y173595D01*
X360651Y173689D01*
X360653Y173709D01*
X360661Y173727D01*
X360679Y173894D01*
X360679Y205686D01*
X360665Y205776D01*
X360657Y205867D01*
X360645Y205897D01*
X360640Y205929D01*
X360597Y206009D01*
X360561Y206093D01*
X360535Y206125D01*
X360524Y206146D01*
X360501Y206168D01*
X360456Y206224D01*
X358624Y208056D01*
X358550Y208109D01*
X358481Y208169D01*
X358451Y208181D01*
X358424Y208200D01*
X358337Y208227D01*
X358253Y208261D01*
X358212Y208265D01*
X358189Y208272D01*
X358157Y208271D01*
X358086Y208279D01*
X358044Y208279D01*
X358024Y208276D01*
X358005Y208278D01*
X357948Y208266D01*
X357943Y208266D01*
X357937Y208264D01*
X357903Y208256D01*
X357801Y208240D01*
X357784Y208230D01*
X357764Y208226D01*
X357675Y208173D01*
X357584Y208124D01*
X357570Y208110D01*
X357553Y208100D01*
X357486Y208021D01*
X357414Y207946D01*
X357406Y207928D01*
X357393Y207913D01*
X357354Y207817D01*
X357311Y207723D01*
X357309Y207703D01*
X357301Y207685D01*
X357283Y207518D01*
X357283Y207358D01*
X356092Y206167D01*
X342408Y206167D01*
X341217Y207358D01*
X341217Y217042D01*
X342408Y218233D01*
X356092Y218233D01*
X357283Y217042D01*
X357283Y215138D01*
X357286Y215118D01*
X357284Y215099D01*
X357306Y214997D01*
X357322Y214895D01*
X357332Y214878D01*
X357336Y214858D01*
X357389Y214769D01*
X357438Y214678D01*
X357452Y214664D01*
X357462Y214647D01*
X357541Y214580D01*
X357616Y214508D01*
X357634Y214500D01*
X357649Y214487D01*
X357745Y214448D01*
X357839Y214405D01*
X357859Y214403D01*
X357877Y214395D01*
X358044Y214377D01*
X360927Y214377D01*
X366777Y208527D01*
X366777Y173894D01*
X366780Y173874D01*
X366778Y173855D01*
X366800Y173753D01*
X366816Y173651D01*
X366826Y173634D01*
X366830Y173614D01*
X366883Y173525D01*
X366932Y173434D01*
X366946Y173420D01*
X366956Y173403D01*
X367035Y173336D01*
X367110Y173264D01*
X367128Y173256D01*
X367143Y173243D01*
X367239Y173204D01*
X367333Y173161D01*
X367353Y173159D01*
X367371Y173151D01*
X367538Y173133D01*
X369442Y173133D01*
X370633Y171942D01*
X370633Y158258D01*
X369417Y157042D01*
X369327Y157028D01*
X369310Y157018D01*
X369290Y157014D01*
X369201Y156961D01*
X369110Y156912D01*
X369096Y156898D01*
X369079Y156888D01*
X369012Y156809D01*
X368940Y156734D01*
X368932Y156716D01*
X368919Y156701D01*
X368880Y156605D01*
X368837Y156511D01*
X368835Y156491D01*
X368827Y156473D01*
X368809Y156306D01*
X368809Y145319D01*
X368811Y145305D01*
X368810Y145294D01*
X368811Y145289D01*
X368810Y145280D01*
X368832Y145178D01*
X368848Y145076D01*
X368858Y145059D01*
X368862Y145039D01*
X368915Y144950D01*
X368964Y144859D01*
X368978Y144845D01*
X368988Y144828D01*
X369067Y144761D01*
X369142Y144689D01*
X369160Y144681D01*
X369175Y144668D01*
X369271Y144629D01*
X369365Y144586D01*
X369385Y144584D01*
X369403Y144576D01*
X369426Y144574D01*
X370633Y143367D01*
X370633Y129794D01*
X370636Y129774D01*
X370634Y129755D01*
X370656Y129653D01*
X370672Y129551D01*
X370682Y129534D01*
X370686Y129514D01*
X370739Y129425D01*
X370788Y129334D01*
X370802Y129320D01*
X370812Y129303D01*
X370891Y129236D01*
X370966Y129164D01*
X370984Y129156D01*
X370999Y129143D01*
X371095Y129104D01*
X371189Y129061D01*
X371209Y129059D01*
X371227Y129051D01*
X371394Y129033D01*
X373271Y129033D01*
X375885Y127950D01*
X377239Y126596D01*
X377256Y126584D01*
X377268Y126568D01*
X377355Y126512D01*
X377439Y126452D01*
X377458Y126446D01*
X377475Y126435D01*
X377575Y126410D01*
X377674Y126380D01*
X377694Y126380D01*
X377713Y126375D01*
X377816Y126383D01*
X377920Y126386D01*
X377939Y126393D01*
X377959Y126394D01*
X378054Y126435D01*
X378151Y126470D01*
X378167Y126483D01*
X378185Y126491D01*
X378316Y126596D01*
X399041Y147321D01*
X442931Y147321D01*
X442951Y147324D01*
X442970Y147322D01*
X443072Y147344D01*
X443174Y147360D01*
X443191Y147370D01*
X443211Y147374D01*
X443300Y147427D01*
X443391Y147476D01*
X443405Y147490D01*
X443422Y147500D01*
X443489Y147579D01*
X443561Y147654D01*
X443569Y147672D01*
X443582Y147687D01*
X443621Y147783D01*
X443664Y147877D01*
X443666Y147897D01*
X443674Y147915D01*
X443692Y148082D01*
X443692Y152342D01*
X444883Y153533D01*
X456567Y153533D01*
X457758Y152342D01*
X457758Y134148D01*
X456567Y132957D01*
X444883Y132957D01*
X443692Y134148D01*
X443692Y140462D01*
X443689Y140482D01*
X443691Y140501D01*
X443669Y140603D01*
X443653Y140705D01*
X443643Y140722D01*
X443639Y140742D01*
X443586Y140831D01*
X443537Y140922D01*
X443523Y140936D01*
X443513Y140953D01*
X443434Y141020D01*
X443359Y141092D01*
X443341Y141100D01*
X443326Y141113D01*
X443230Y141152D01*
X443136Y141195D01*
X443116Y141197D01*
X443098Y141205D01*
X442931Y141223D01*
X411102Y141223D01*
X411057Y141216D01*
X411011Y141218D01*
X410936Y141196D01*
X410859Y141184D01*
X410819Y141162D01*
X410775Y141149D01*
X410711Y141105D01*
X410642Y141068D01*
X410610Y141035D01*
X410573Y141009D01*
X410526Y140946D01*
X410473Y140890D01*
X410453Y140848D01*
X410426Y140812D01*
X410402Y140738D01*
X410369Y140667D01*
X410364Y140621D01*
X410350Y140578D01*
X410350Y140500D01*
X410342Y140423D01*
X410352Y140378D01*
X410352Y140332D01*
X410390Y140200D01*
X410394Y140182D01*
X410397Y140178D01*
X410399Y140171D01*
X410609Y139663D01*
X410671Y139563D01*
X410731Y139463D01*
X410736Y139459D01*
X410739Y139454D01*
X410829Y139379D01*
X410918Y139303D01*
X410924Y139301D01*
X410928Y139297D01*
X411036Y139255D01*
X411146Y139211D01*
X411153Y139210D01*
X411158Y139209D01*
X411176Y139208D01*
X411313Y139193D01*
X432047Y139193D01*
X466345Y104895D01*
X466345Y88954D01*
X466359Y88864D01*
X466367Y88773D01*
X466379Y88743D01*
X466384Y88711D01*
X466427Y88631D01*
X466463Y88547D01*
X466489Y88515D01*
X466500Y88494D01*
X466523Y88472D01*
X466568Y88416D01*
X492761Y62223D01*
X492761Y61294D01*
X492764Y61274D01*
X492762Y61255D01*
X492784Y61153D01*
X492800Y61051D01*
X492810Y61034D01*
X492814Y61014D01*
X492867Y60925D01*
X492916Y60834D01*
X492930Y60820D01*
X492940Y60803D01*
X493019Y60736D01*
X493094Y60664D01*
X493112Y60656D01*
X493127Y60643D01*
X493223Y60604D01*
X493317Y60561D01*
X493337Y60559D01*
X493355Y60551D01*
X493522Y60533D01*
X501867Y60533D01*
X503058Y59342D01*
X503058Y46658D01*
X501867Y45467D01*
X480183Y45467D01*
X478992Y46658D01*
X478992Y59342D01*
X480183Y60533D01*
X483990Y60533D01*
X484061Y60544D01*
X484132Y60546D01*
X484181Y60564D01*
X484233Y60572D01*
X484296Y60606D01*
X484363Y60631D01*
X484404Y60663D01*
X484450Y60688D01*
X484499Y60740D01*
X484555Y60784D01*
X484584Y60828D01*
X484619Y60866D01*
X484650Y60931D01*
X484688Y60991D01*
X484701Y61042D01*
X484723Y61089D01*
X484731Y61160D01*
X484748Y61230D01*
X484744Y61282D01*
X484750Y61333D01*
X484735Y61404D01*
X484729Y61475D01*
X484709Y61523D01*
X484698Y61574D01*
X484661Y61635D01*
X484633Y61701D01*
X484588Y61757D01*
X484572Y61785D01*
X484554Y61800D01*
X484528Y61832D01*
X462256Y84104D01*
X460247Y86113D01*
X460247Y102054D01*
X460233Y102144D01*
X460225Y102235D01*
X460213Y102265D01*
X460208Y102297D01*
X460165Y102377D01*
X460129Y102461D01*
X460103Y102493D01*
X460092Y102514D01*
X460069Y102536D01*
X460024Y102592D01*
X429744Y132872D01*
X429670Y132925D01*
X429601Y132985D01*
X429571Y132997D01*
X429544Y133016D01*
X429457Y133043D01*
X429373Y133077D01*
X429332Y133081D01*
X429309Y133088D01*
X429277Y133087D01*
X429206Y133095D01*
X411313Y133095D01*
X411198Y133076D01*
X411082Y133059D01*
X411076Y133057D01*
X411070Y133056D01*
X410968Y133001D01*
X410862Y132948D01*
X410858Y132943D01*
X410852Y132940D01*
X410773Y132856D01*
X410690Y132772D01*
X410687Y132766D01*
X410683Y132762D01*
X410675Y132745D01*
X410609Y132625D01*
X410398Y132115D01*
X409423Y131140D01*
X409381Y131082D01*
X409332Y131030D01*
X409310Y130983D01*
X409280Y130941D01*
X409259Y130872D01*
X409228Y130807D01*
X409223Y130755D01*
X409207Y130705D01*
X409209Y130634D01*
X409201Y130563D01*
X409212Y130512D01*
X409214Y130460D01*
X409238Y130392D01*
X409253Y130322D01*
X409280Y130277D01*
X409298Y130229D01*
X409343Y130173D01*
X409380Y130111D01*
X409419Y130077D01*
X409452Y130037D01*
X409512Y129998D01*
X409567Y129951D01*
X409615Y129932D01*
X409659Y129904D01*
X409728Y129886D01*
X409795Y129859D01*
X409866Y129851D01*
X409897Y129843D01*
X409921Y129845D01*
X409961Y129841D01*
X412734Y129841D01*
X413381Y129668D01*
X413960Y129333D01*
X414433Y128860D01*
X414768Y128281D01*
X414941Y127634D01*
X414941Y124823D01*
X407162Y124823D01*
X407142Y124820D01*
X407123Y124822D01*
X407021Y124800D01*
X406919Y124783D01*
X406902Y124774D01*
X406882Y124770D01*
X406793Y124717D01*
X406702Y124668D01*
X406688Y124654D01*
X406671Y124644D01*
X406604Y124565D01*
X406533Y124490D01*
X406524Y124472D01*
X406511Y124457D01*
X406472Y124361D01*
X406429Y124267D01*
X406427Y124247D01*
X406419Y124229D01*
X406401Y124062D01*
X406401Y123299D01*
X405638Y123299D01*
X405618Y123296D01*
X405599Y123298D01*
X405497Y123276D01*
X405395Y123259D01*
X405378Y123250D01*
X405358Y123246D01*
X405269Y123193D01*
X405178Y123144D01*
X405164Y123130D01*
X405147Y123120D01*
X405080Y123041D01*
X405009Y122966D01*
X405000Y122948D01*
X404987Y122933D01*
X404948Y122837D01*
X404905Y122743D01*
X404903Y122723D01*
X404895Y122705D01*
X404877Y122538D01*
X404877Y116759D01*
X399986Y116759D01*
X399966Y116756D01*
X399947Y116758D01*
X399845Y116736D01*
X399743Y116720D01*
X399726Y116710D01*
X399706Y116706D01*
X399617Y116653D01*
X399526Y116604D01*
X399512Y116590D01*
X399495Y116580D01*
X399428Y116501D01*
X399356Y116426D01*
X399348Y116408D01*
X399335Y116393D01*
X399296Y116297D01*
X399253Y116203D01*
X399251Y116183D01*
X399243Y116165D01*
X399225Y115998D01*
X399225Y112094D01*
X399228Y112074D01*
X399226Y112055D01*
X399248Y111953D01*
X399264Y111851D01*
X399274Y111834D01*
X399278Y111814D01*
X399331Y111725D01*
X399380Y111634D01*
X399394Y111620D01*
X399404Y111603D01*
X399483Y111536D01*
X399558Y111464D01*
X399576Y111456D01*
X399591Y111443D01*
X399687Y111404D01*
X399781Y111361D01*
X399801Y111359D01*
X399819Y111351D01*
X399986Y111333D01*
X413242Y111333D01*
X414433Y110142D01*
X414433Y109474D01*
X414436Y109454D01*
X414434Y109435D01*
X414456Y109333D01*
X414472Y109231D01*
X414482Y109214D01*
X414486Y109194D01*
X414539Y109105D01*
X414588Y109014D01*
X414602Y109000D01*
X414612Y108983D01*
X414691Y108916D01*
X414766Y108844D01*
X414784Y108836D01*
X414799Y108823D01*
X414895Y108784D01*
X414989Y108741D01*
X415009Y108739D01*
X415027Y108731D01*
X415194Y108713D01*
X434079Y108713D01*
X442393Y100399D01*
X442451Y100357D01*
X442503Y100308D01*
X442550Y100286D01*
X442592Y100255D01*
X442661Y100234D01*
X442726Y100204D01*
X442778Y100198D01*
X442828Y100183D01*
X442899Y100185D01*
X442970Y100177D01*
X443021Y100188D01*
X443073Y100189D01*
X443141Y100214D01*
X443211Y100229D01*
X443256Y100256D01*
X443304Y100274D01*
X443360Y100319D01*
X443422Y100355D01*
X443456Y100395D01*
X443496Y100427D01*
X443535Y100488D01*
X443582Y100542D01*
X443601Y100591D01*
X443629Y100634D01*
X443647Y100704D01*
X443674Y100770D01*
X443675Y100785D01*
X444883Y101993D01*
X456567Y101993D01*
X457758Y100802D01*
X457758Y82608D01*
X456567Y81417D01*
X454914Y81417D01*
X454894Y81414D01*
X454875Y81416D01*
X454773Y81394D01*
X454671Y81378D01*
X454654Y81368D01*
X454634Y81364D01*
X454545Y81311D01*
X454454Y81262D01*
X454440Y81248D01*
X454423Y81238D01*
X454356Y81159D01*
X454284Y81084D01*
X454276Y81066D01*
X454263Y81051D01*
X454224Y80955D01*
X454181Y80861D01*
X454179Y80841D01*
X454171Y80823D01*
X454153Y80656D01*
X454153Y59697D01*
X421749Y27293D01*
X421737Y27277D01*
X421722Y27265D01*
X421666Y27177D01*
X421605Y27093D01*
X421599Y27074D01*
X421589Y27058D01*
X421563Y26957D01*
X421533Y26858D01*
X421533Y26838D01*
X421529Y26819D01*
X421537Y26716D01*
X421539Y26613D01*
X421546Y26594D01*
X421548Y26574D01*
X421588Y26479D01*
X421624Y26382D01*
X421636Y26366D01*
X421644Y26348D01*
X421749Y26217D01*
X422440Y25525D01*
X424181Y21324D01*
X424181Y16776D01*
X422440Y12575D01*
X419225Y9360D01*
X415024Y7619D01*
X410476Y7619D01*
X406275Y9360D01*
X403060Y12575D01*
X401319Y16776D01*
X401319Y21324D01*
X403060Y25525D01*
X406275Y28740D01*
X410476Y30481D01*
X415024Y30481D01*
X415466Y30298D01*
X415579Y30271D01*
X415693Y30242D01*
X415699Y30243D01*
X415705Y30242D01*
X415822Y30253D01*
X415938Y30262D01*
X415944Y30264D01*
X415950Y30265D01*
X416057Y30312D01*
X416164Y30358D01*
X416170Y30363D01*
X416175Y30365D01*
X416188Y30377D01*
X416295Y30463D01*
X447832Y62000D01*
X447885Y62074D01*
X447945Y62143D01*
X447957Y62173D01*
X447976Y62200D01*
X448003Y62287D01*
X448037Y62371D01*
X448041Y62412D01*
X448048Y62435D01*
X448047Y62467D01*
X448055Y62538D01*
X448055Y80656D01*
X448054Y80664D01*
X448054Y80666D01*
X448052Y80676D01*
X448054Y80695D01*
X448032Y80797D01*
X448016Y80899D01*
X448006Y80916D01*
X448002Y80936D01*
X447949Y81025D01*
X447900Y81116D01*
X447886Y81130D01*
X447876Y81147D01*
X447797Y81214D01*
X447722Y81286D01*
X447704Y81294D01*
X447689Y81307D01*
X447593Y81346D01*
X447499Y81389D01*
X447479Y81391D01*
X447461Y81399D01*
X447294Y81417D01*
X444883Y81417D01*
X443692Y82608D01*
X443692Y90161D01*
X443678Y90251D01*
X443670Y90342D01*
X443658Y90372D01*
X443653Y90404D01*
X443610Y90484D01*
X443574Y90568D01*
X443548Y90600D01*
X443537Y90621D01*
X443514Y90643D01*
X443469Y90699D01*
X431776Y102392D01*
X431702Y102445D01*
X431633Y102505D01*
X431603Y102517D01*
X431576Y102536D01*
X431489Y102563D01*
X431405Y102597D01*
X431364Y102601D01*
X431341Y102608D01*
X431309Y102607D01*
X431238Y102615D01*
X415194Y102615D01*
X415174Y102612D01*
X415155Y102614D01*
X415053Y102592D01*
X414951Y102576D01*
X414934Y102566D01*
X414914Y102562D01*
X414825Y102509D01*
X414734Y102460D01*
X414720Y102446D01*
X414703Y102436D01*
X414636Y102357D01*
X414564Y102282D01*
X414556Y102264D01*
X414543Y102249D01*
X414504Y102153D01*
X414461Y102059D01*
X414459Y102039D01*
X414451Y102021D01*
X414433Y101854D01*
X414433Y100458D01*
X413242Y99267D01*
X399986Y99267D01*
X399966Y99264D01*
X399947Y99266D01*
X399845Y99244D01*
X399743Y99228D01*
X399726Y99218D01*
X399706Y99214D01*
X399617Y99161D01*
X399526Y99112D01*
X399512Y99098D01*
X399495Y99088D01*
X399428Y99009D01*
X399356Y98934D01*
X399348Y98916D01*
X399335Y98901D01*
X399296Y98805D01*
X399253Y98711D01*
X399251Y98691D01*
X399243Y98673D01*
X399225Y98506D01*
X399225Y86986D01*
X399239Y86896D01*
X399247Y86805D01*
X399259Y86775D01*
X399264Y86743D01*
X399289Y86698D01*
X399289Y65793D01*
X394740Y61244D01*
X394698Y61186D01*
X394649Y61134D01*
X394627Y61087D01*
X394596Y61045D01*
X394575Y60976D01*
X394545Y60911D01*
X394539Y60859D01*
X394524Y60809D01*
X394526Y60738D01*
X394518Y60667D01*
X394529Y60616D01*
X394530Y60564D01*
X394555Y60496D01*
X394570Y60426D01*
X394597Y60381D01*
X394615Y60333D01*
X394660Y60277D01*
X394696Y60215D01*
X394736Y60181D01*
X394768Y60141D01*
X394829Y60102D01*
X394883Y60055D01*
X394932Y60036D01*
X394975Y60008D01*
X395045Y59990D01*
X395111Y59963D01*
X395183Y59955D01*
X395214Y59947D01*
X395237Y59949D01*
X395278Y59945D01*
X395623Y59945D01*
X398237Y58862D01*
X399766Y57333D01*
X399782Y57322D01*
X399794Y57306D01*
X399882Y57250D01*
X399965Y57190D01*
X399984Y57184D01*
X400001Y57173D01*
X400102Y57148D01*
X400201Y57117D01*
X400220Y57118D01*
X400240Y57113D01*
X400343Y57121D01*
X400446Y57124D01*
X400465Y57131D01*
X400485Y57132D01*
X400580Y57172D01*
X400677Y57208D01*
X400693Y57221D01*
X400711Y57228D01*
X400842Y57333D01*
X402371Y58862D01*
X404985Y59945D01*
X407815Y59945D01*
X410429Y58862D01*
X412430Y56861D01*
X413513Y54247D01*
X413513Y51417D01*
X412430Y48803D01*
X410429Y46802D01*
X407815Y45719D01*
X404985Y45719D01*
X404475Y45931D01*
X404361Y45957D01*
X404248Y45986D01*
X404241Y45985D01*
X404235Y45987D01*
X404119Y45976D01*
X404003Y45967D01*
X403997Y45964D01*
X403990Y45964D01*
X403883Y45916D01*
X403776Y45870D01*
X403770Y45866D01*
X403766Y45864D01*
X403752Y45851D01*
X403645Y45766D01*
X391407Y33527D01*
X377498Y33527D01*
X377408Y33513D01*
X377317Y33505D01*
X377287Y33493D01*
X377255Y33488D01*
X377175Y33445D01*
X377091Y33409D01*
X377059Y33383D01*
X377038Y33372D01*
X377016Y33349D01*
X376960Y33304D01*
X370949Y27293D01*
X370937Y27277D01*
X370922Y27265D01*
X370866Y27178D01*
X370805Y27094D01*
X370799Y27074D01*
X370789Y27058D01*
X370763Y26957D01*
X370733Y26858D01*
X370733Y26838D01*
X370729Y26819D01*
X370737Y26716D01*
X370739Y26613D01*
X370746Y26594D01*
X370748Y26574D01*
X370788Y26479D01*
X370824Y26382D01*
X370836Y26366D01*
X370844Y26348D01*
X370949Y26217D01*
X371640Y25525D01*
X373381Y21324D01*
X373381Y16776D01*
X371640Y12575D01*
X368425Y9360D01*
X364224Y7619D01*
X359676Y7619D01*
X355475Y9360D01*
X352260Y12575D01*
X350519Y16776D01*
X350519Y21324D01*
X352260Y25525D01*
X355475Y28740D01*
X359676Y30481D01*
X364224Y30481D01*
X364666Y30298D01*
X364779Y30271D01*
X364893Y30242D01*
X364899Y30243D01*
X364905Y30242D01*
X365021Y30253D01*
X365138Y30262D01*
X365144Y30264D01*
X365150Y30265D01*
X365257Y30312D01*
X365364Y30358D01*
X365370Y30363D01*
X365375Y30365D01*
X365388Y30377D01*
X365495Y30463D01*
X371324Y36292D01*
X371366Y36350D01*
X371415Y36402D01*
X371437Y36449D01*
X371468Y36491D01*
X371489Y36560D01*
X371519Y36625D01*
X371525Y36677D01*
X371540Y36727D01*
X371538Y36798D01*
X371546Y36869D01*
X371535Y36920D01*
X371534Y36972D01*
X371509Y37040D01*
X371494Y37110D01*
X371467Y37155D01*
X371449Y37203D01*
X371404Y37259D01*
X371368Y37321D01*
X371328Y37355D01*
X371296Y37395D01*
X371235Y37434D01*
X371181Y37481D01*
X371132Y37500D01*
X371089Y37528D01*
X371019Y37546D01*
X370953Y37573D01*
X370881Y37581D01*
X370850Y37589D01*
X370827Y37587D01*
X370786Y37591D01*
X357178Y37591D01*
X357088Y37577D01*
X356997Y37569D01*
X356967Y37557D01*
X356935Y37552D01*
X356855Y37509D01*
X356771Y37473D01*
X356739Y37447D01*
X356718Y37436D01*
X356696Y37413D01*
X356640Y37368D01*
X346057Y26785D01*
X346045Y26769D01*
X346030Y26757D01*
X345974Y26669D01*
X345913Y26586D01*
X345907Y26566D01*
X345897Y26550D01*
X345871Y26449D01*
X345841Y26350D01*
X345841Y26330D01*
X345837Y26311D01*
X345845Y26208D01*
X345847Y26105D01*
X345854Y26086D01*
X345856Y26066D01*
X345896Y25971D01*
X345932Y25874D01*
X345944Y25858D01*
X345952Y25840D01*
X346057Y25709D01*
X346240Y25525D01*
X347981Y21324D01*
X347981Y16776D01*
X346240Y12575D01*
X343025Y9360D01*
X338824Y7619D01*
X334276Y7619D01*
X330075Y9360D01*
X326860Y12575D01*
X325119Y16776D01*
X325119Y21324D01*
X326860Y25525D01*
X330075Y28740D01*
X334276Y30481D01*
X338824Y30481D01*
X339984Y30000D01*
X340098Y29973D01*
X340211Y29945D01*
X340217Y29945D01*
X340223Y29944D01*
X340340Y29955D01*
X340456Y29964D01*
X340462Y29966D01*
X340468Y29967D01*
X340576Y30015D01*
X340683Y30060D01*
X340688Y30065D01*
X340693Y30067D01*
X340707Y30080D01*
X340814Y30165D01*
X354337Y43689D01*
X380438Y43689D01*
X380528Y43703D01*
X380619Y43711D01*
X380649Y43723D01*
X380681Y43728D01*
X380761Y43771D01*
X380845Y43807D01*
X380877Y43833D01*
X380898Y43844D01*
X380920Y43867D01*
X380976Y43912D01*
X387142Y50077D01*
X387210Y50172D01*
X387280Y50266D01*
X387282Y50272D01*
X387285Y50277D01*
X387320Y50389D01*
X387356Y50500D01*
X387356Y50506D01*
X387358Y50512D01*
X387355Y50629D01*
X387353Y50746D01*
X387351Y50753D01*
X387351Y50758D01*
X387345Y50775D01*
X387307Y50907D01*
X387095Y51417D01*
X387095Y54056D01*
X387092Y54076D01*
X387094Y54095D01*
X387072Y54197D01*
X387056Y54299D01*
X387046Y54316D01*
X387042Y54336D01*
X386989Y54425D01*
X386940Y54516D01*
X386926Y54530D01*
X386916Y54547D01*
X386837Y54614D01*
X386762Y54686D01*
X386744Y54694D01*
X386729Y54707D01*
X386633Y54746D01*
X386539Y54789D01*
X386519Y54791D01*
X386501Y54799D01*
X386334Y54817D01*
X374158Y54817D01*
X372967Y56008D01*
X372967Y57150D01*
X372964Y57170D01*
X372966Y57189D01*
X372944Y57291D01*
X372928Y57393D01*
X372918Y57410D01*
X372914Y57430D01*
X372861Y57519D01*
X372812Y57610D01*
X372798Y57624D01*
X372788Y57641D01*
X372709Y57708D01*
X372634Y57780D01*
X372616Y57788D01*
X372601Y57801D01*
X372505Y57840D01*
X372411Y57883D01*
X372391Y57885D01*
X372373Y57893D01*
X372206Y57911D01*
X358044Y57911D01*
X358024Y57908D01*
X358005Y57910D01*
X357903Y57888D01*
X357801Y57872D01*
X357784Y57862D01*
X357764Y57858D01*
X357675Y57805D01*
X357584Y57756D01*
X357570Y57742D01*
X357553Y57732D01*
X357486Y57653D01*
X357414Y57578D01*
X357406Y57560D01*
X357393Y57545D01*
X357354Y57449D01*
X357311Y57355D01*
X357309Y57335D01*
X357301Y57317D01*
X357283Y57150D01*
X357283Y56008D01*
X356092Y54817D01*
X342408Y54817D01*
X341217Y56008D01*
X341217Y61868D01*
X341210Y61913D01*
X341212Y61959D01*
X341190Y62034D01*
X341178Y62110D01*
X341156Y62151D01*
X341143Y62195D01*
X341099Y62259D01*
X341062Y62328D01*
X341029Y62359D01*
X341003Y62397D01*
X340941Y62443D01*
X340884Y62497D01*
X340842Y62516D01*
X340806Y62544D01*
X340732Y62568D01*
X340661Y62601D01*
X340615Y62606D01*
X340572Y62620D01*
X340494Y62619D01*
X340417Y62628D01*
X340372Y62618D01*
X340326Y62618D01*
X340194Y62580D01*
X340176Y62576D01*
X340172Y62573D01*
X340165Y62571D01*
X338727Y61975D01*
X335897Y61975D01*
X333283Y63058D01*
X331282Y65059D01*
X330199Y67673D01*
X330199Y68018D01*
X330188Y68089D01*
X330186Y68160D01*
X330168Y68209D01*
X330160Y68261D01*
X330126Y68324D01*
X330101Y68391D01*
X330069Y68432D01*
X330044Y68478D01*
X329992Y68527D01*
X329948Y68583D01*
X329904Y68612D01*
X329866Y68647D01*
X329801Y68678D01*
X329741Y68716D01*
X329690Y68729D01*
X329643Y68751D01*
X329572Y68759D01*
X329502Y68776D01*
X329450Y68772D01*
X329399Y68778D01*
X329328Y68763D01*
X329257Y68757D01*
X329209Y68737D01*
X329158Y68726D01*
X329097Y68689D01*
X329031Y68661D01*
X328975Y68616D01*
X328947Y68600D01*
X328932Y68582D01*
X328900Y68556D01*
X324351Y64007D01*
X295409Y64007D01*
X283440Y75976D01*
X283366Y76029D01*
X283297Y76089D01*
X283267Y76101D01*
X283240Y76120D01*
X283153Y76147D01*
X283069Y76181D01*
X283028Y76185D01*
X283005Y76192D01*
X282973Y76191D01*
X282902Y76199D01*
X282719Y76199D01*
X282699Y76196D01*
X282680Y76198D01*
X282578Y76176D01*
X282476Y76160D01*
X282459Y76150D01*
X282439Y76146D01*
X282350Y76093D01*
X282259Y76044D01*
X282245Y76030D01*
X282228Y76020D01*
X282161Y75941D01*
X282089Y75866D01*
X282081Y75848D01*
X282068Y75833D01*
X282029Y75737D01*
X281986Y75643D01*
X281984Y75623D01*
X281976Y75605D01*
X281958Y75438D01*
X281958Y74533D01*
X280767Y73342D01*
X263083Y73342D01*
X261892Y74533D01*
X261892Y84217D01*
X263083Y85408D01*
X280648Y85408D01*
X280718Y85419D01*
X280790Y85421D01*
X280839Y85439D01*
X280890Y85447D01*
X280954Y85481D01*
X281021Y85506D01*
X281062Y85538D01*
X281108Y85563D01*
X281157Y85615D01*
X281213Y85659D01*
X281241Y85703D01*
X281277Y85741D01*
X281307Y85806D01*
X281346Y85866D01*
X281359Y85917D01*
X281381Y85964D01*
X281389Y86035D01*
X281406Y86105D01*
X281402Y86157D01*
X281408Y86208D01*
X281393Y86279D01*
X281387Y86350D01*
X281367Y86398D01*
X281356Y86449D01*
X281319Y86510D01*
X281291Y86576D01*
X281246Y86632D01*
X281229Y86660D01*
X281212Y86675D01*
X281186Y86707D01*
X280482Y87411D01*
X279689Y89326D01*
X279665Y89365D01*
X279649Y89408D01*
X279600Y89469D01*
X279559Y89535D01*
X279524Y89564D01*
X279495Y89600D01*
X279430Y89642D01*
X279370Y89691D01*
X279327Y89708D01*
X279288Y89733D01*
X279213Y89752D01*
X279140Y89780D01*
X279094Y89782D01*
X279050Y89793D01*
X278972Y89787D01*
X278895Y89790D01*
X278850Y89777D01*
X278805Y89774D01*
X278733Y89743D01*
X278658Y89722D01*
X278621Y89695D01*
X278578Y89677D01*
X278472Y89592D01*
X278456Y89581D01*
X278453Y89577D01*
X278447Y89573D01*
X278349Y89474D01*
X275735Y88391D01*
X272905Y88391D01*
X270291Y89474D01*
X268290Y91475D01*
X268194Y91706D01*
X268170Y91745D01*
X268154Y91788D01*
X268106Y91849D01*
X268065Y91915D01*
X268029Y91944D01*
X268001Y91980D01*
X267935Y92023D01*
X267875Y92072D01*
X267833Y92088D01*
X267794Y92113D01*
X267718Y92132D01*
X267646Y92160D01*
X267600Y92162D01*
X267555Y92173D01*
X267478Y92167D01*
X267400Y92171D01*
X267356Y92158D01*
X267310Y92154D01*
X267239Y92124D01*
X267164Y92102D01*
X267126Y92076D01*
X267084Y92058D01*
X266977Y91972D01*
X266962Y91962D01*
X266959Y91958D01*
X266953Y91953D01*
X259304Y84304D01*
X259251Y84230D01*
X259191Y84161D01*
X259179Y84131D01*
X259160Y84104D01*
X259133Y84017D01*
X259099Y83933D01*
X259095Y83892D01*
X259088Y83869D01*
X259089Y83837D01*
X259081Y83766D01*
X259081Y74730D01*
X259095Y74640D01*
X259103Y74549D01*
X259115Y74519D01*
X259120Y74487D01*
X259163Y74407D01*
X259199Y74323D01*
X259225Y74291D01*
X259236Y74270D01*
X259259Y74248D01*
X259304Y74192D01*
X297712Y35784D01*
X297786Y35731D01*
X297855Y35671D01*
X297885Y35659D01*
X297912Y35640D01*
X297999Y35613D01*
X298083Y35579D01*
X298124Y35575D01*
X298147Y35568D01*
X298179Y35569D01*
X298250Y35561D01*
X301999Y35561D01*
X307246Y30314D01*
X307340Y30246D01*
X307434Y30176D01*
X307440Y30174D01*
X307445Y30170D01*
X307556Y30136D01*
X307668Y30100D01*
X307674Y30100D01*
X307680Y30098D01*
X307797Y30101D01*
X307914Y30102D01*
X307921Y30104D01*
X307926Y30104D01*
X307944Y30111D01*
X308075Y30149D01*
X308876Y30481D01*
X313424Y30481D01*
X317625Y28740D01*
X320840Y25525D01*
X322581Y21324D01*
X322581Y16776D01*
X320840Y12575D01*
X317625Y9360D01*
X313424Y7619D01*
X308876Y7619D01*
X304675Y9360D01*
X301460Y12575D01*
X299719Y16776D01*
X299719Y21324D01*
X301459Y25525D01*
X301897Y25963D01*
X301909Y25979D01*
X301924Y25991D01*
X301980Y26078D01*
X302041Y26162D01*
X302047Y26181D01*
X302057Y26198D01*
X302083Y26298D01*
X302113Y26397D01*
X302113Y26417D01*
X302117Y26437D01*
X302109Y26540D01*
X302107Y26643D01*
X302100Y26662D01*
X302098Y26682D01*
X302058Y26777D01*
X302022Y26874D01*
X302010Y26890D01*
X302002Y26908D01*
X301897Y27039D01*
X299696Y29240D01*
X299622Y29293D01*
X299553Y29353D01*
X299523Y29365D01*
X299496Y29384D01*
X299409Y29411D01*
X299325Y29445D01*
X299284Y29449D01*
X299261Y29456D01*
X299229Y29455D01*
X299158Y29463D01*
X295409Y29463D01*
X252983Y71889D01*
X252983Y82242D01*
X252972Y82313D01*
X252970Y82384D01*
X252952Y82433D01*
X252944Y82485D01*
X252910Y82548D01*
X252885Y82615D01*
X252853Y82656D01*
X252828Y82702D01*
X252777Y82751D01*
X252732Y82807D01*
X252688Y82836D01*
X252650Y82871D01*
X252585Y82902D01*
X252525Y82940D01*
X252474Y82953D01*
X252427Y82975D01*
X252356Y82983D01*
X252286Y83000D01*
X252234Y82996D01*
X252183Y83002D01*
X252112Y82987D01*
X252041Y82981D01*
X251993Y82961D01*
X251942Y82950D01*
X251881Y82913D01*
X251815Y82885D01*
X251759Y82840D01*
X251731Y82824D01*
X251716Y82806D01*
X251684Y82780D01*
X244810Y75907D01*
X244743Y75812D01*
X244672Y75718D01*
X244670Y75712D01*
X244667Y75707D01*
X244632Y75596D01*
X244596Y75484D01*
X244596Y75478D01*
X244594Y75472D01*
X244597Y75355D01*
X244599Y75238D01*
X244601Y75231D01*
X244601Y75226D01*
X244607Y75209D01*
X244645Y75077D01*
X244857Y74567D01*
X244857Y71737D01*
X243774Y69123D01*
X241773Y67122D01*
X239159Y66039D01*
X238814Y66039D01*
X238743Y66028D01*
X238672Y66026D01*
X238623Y66008D01*
X238571Y66000D01*
X238508Y65966D01*
X238441Y65941D01*
X238400Y65909D01*
X238354Y65884D01*
X238305Y65832D01*
X238249Y65788D01*
X238220Y65744D01*
X238185Y65706D01*
X238154Y65641D01*
X238116Y65581D01*
X238103Y65530D01*
X238081Y65483D01*
X238073Y65412D01*
X238056Y65342D01*
X238060Y65290D01*
X238054Y65239D01*
X238069Y65168D01*
X238075Y65097D01*
X238095Y65049D01*
X238106Y64998D01*
X238143Y64937D01*
X238171Y64871D01*
X238216Y64815D01*
X238232Y64787D01*
X238250Y64772D01*
X238276Y64740D01*
X255040Y47976D01*
X255114Y47923D01*
X255183Y47863D01*
X255213Y47851D01*
X255240Y47832D01*
X255327Y47805D01*
X255411Y47771D01*
X255452Y47767D01*
X255475Y47760D01*
X255507Y47761D01*
X255578Y47753D01*
X269487Y47753D01*
X279401Y37839D01*
X279401Y34090D01*
X279415Y34000D01*
X279423Y33909D01*
X279435Y33879D01*
X279440Y33847D01*
X279483Y33767D01*
X279519Y33683D01*
X279545Y33651D01*
X279556Y33630D01*
X279579Y33608D01*
X279624Y33552D01*
X282564Y30612D01*
X282659Y30543D01*
X282753Y30474D01*
X282759Y30472D01*
X282764Y30468D01*
X282875Y30434D01*
X282987Y30397D01*
X282993Y30397D01*
X282999Y30396D01*
X283116Y30399D01*
X283233Y30400D01*
X283240Y30402D01*
X283245Y30402D01*
X283262Y30408D01*
X283394Y30447D01*
X283476Y30481D01*
X288024Y30481D01*
X292225Y28740D01*
X295440Y25525D01*
X297181Y21324D01*
X297181Y16776D01*
X295440Y12575D01*
X292225Y9360D01*
X288024Y7619D01*
X283476Y7619D01*
X279275Y9360D01*
X276060Y12575D01*
X274319Y16776D01*
X274319Y21324D01*
X276060Y25525D01*
X277005Y26471D01*
X277017Y26487D01*
X277032Y26499D01*
X277088Y26587D01*
X277149Y26670D01*
X277155Y26689D01*
X277165Y26706D01*
X277191Y26807D01*
X277221Y26905D01*
X277221Y26925D01*
X277225Y26945D01*
X277217Y27048D01*
X277215Y27151D01*
X277208Y27170D01*
X277206Y27190D01*
X277166Y27285D01*
X277130Y27382D01*
X277118Y27398D01*
X277110Y27416D01*
X277005Y27547D01*
X273303Y31249D01*
X273303Y34998D01*
X273289Y35088D01*
X273281Y35179D01*
X273269Y35209D01*
X273264Y35241D01*
X273221Y35321D01*
X273185Y35405D01*
X273159Y35437D01*
X273148Y35458D01*
X273125Y35480D01*
X273080Y35536D01*
X272572Y36044D01*
X272514Y36086D01*
X272462Y36135D01*
X272415Y36157D01*
X272373Y36188D01*
X272304Y36209D01*
X272239Y36239D01*
X272187Y36245D01*
X272137Y36260D01*
X272066Y36258D01*
X271995Y36266D01*
X271944Y36255D01*
X271892Y36254D01*
X271824Y36229D01*
X271754Y36214D01*
X271709Y36187D01*
X271661Y36169D01*
X271605Y36124D01*
X271543Y36088D01*
X271509Y36048D01*
X271469Y36016D01*
X271430Y35955D01*
X271383Y35901D01*
X271364Y35852D01*
X271336Y35809D01*
X271318Y35739D01*
X271291Y35673D01*
X271283Y35601D01*
X271275Y35570D01*
X271277Y35547D01*
X271273Y35506D01*
X271273Y35161D01*
X270190Y32547D01*
X268189Y30546D01*
X267000Y30054D01*
X266961Y30030D01*
X266918Y30014D01*
X266857Y29965D01*
X266791Y29924D01*
X266762Y29889D01*
X266726Y29860D01*
X266684Y29795D01*
X266634Y29735D01*
X266618Y29692D01*
X266593Y29653D01*
X266574Y29578D01*
X266546Y29505D01*
X266544Y29459D01*
X266533Y29415D01*
X266539Y29337D01*
X266536Y29259D01*
X266549Y29215D01*
X266552Y29169D01*
X266583Y29098D01*
X266604Y29023D01*
X266631Y28985D01*
X266649Y28943D01*
X266734Y28836D01*
X266745Y28821D01*
X266749Y28818D01*
X266753Y28812D01*
X270040Y25525D01*
X271781Y21324D01*
X271781Y16776D01*
X270040Y12575D01*
X266825Y9360D01*
X262624Y7619D01*
X258076Y7619D01*
X253875Y9360D01*
X250660Y12575D01*
X248919Y16776D01*
X248919Y21324D01*
X250660Y25525D01*
X251097Y25963D01*
X251109Y25979D01*
X251124Y25991D01*
X251181Y26079D01*
X251241Y26162D01*
X251247Y26181D01*
X251257Y26198D01*
X251283Y26298D01*
X251313Y26397D01*
X251313Y26417D01*
X251317Y26437D01*
X251309Y26540D01*
X251307Y26643D01*
X251300Y26662D01*
X251298Y26682D01*
X251258Y26777D01*
X251222Y26874D01*
X251210Y26890D01*
X251202Y26908D01*
X251097Y27039D01*
X244832Y33304D01*
X244758Y33357D01*
X244689Y33417D01*
X244659Y33429D01*
X244632Y33448D01*
X244545Y33475D01*
X244461Y33509D01*
X244420Y33513D01*
X244397Y33520D01*
X244365Y33519D01*
X244294Y33527D01*
X218273Y33527D01*
X218158Y33508D01*
X218042Y33491D01*
X218036Y33489D01*
X218030Y33488D01*
X217928Y33433D01*
X217822Y33380D01*
X217818Y33375D01*
X217812Y33372D01*
X217733Y33288D01*
X217650Y33204D01*
X217647Y33198D01*
X217643Y33194D01*
X217635Y33177D01*
X217569Y33057D01*
X217358Y32547D01*
X215357Y30546D01*
X215209Y30485D01*
X215148Y30447D01*
X215083Y30418D01*
X215045Y30383D01*
X215000Y30355D01*
X214955Y30300D01*
X214902Y30252D01*
X214877Y30206D01*
X214843Y30166D01*
X214818Y30099D01*
X214783Y30036D01*
X214774Y29985D01*
X214755Y29936D01*
X214752Y29865D01*
X214740Y29794D01*
X214747Y29743D01*
X214745Y29690D01*
X214765Y29622D01*
X214775Y29551D01*
X214799Y29504D01*
X214813Y29454D01*
X214854Y29395D01*
X214887Y29331D01*
X214924Y29295D01*
X214954Y29252D01*
X215011Y29209D01*
X215062Y29159D01*
X215125Y29125D01*
X215151Y29105D01*
X215173Y29098D01*
X215209Y29078D01*
X216025Y28740D01*
X219240Y25525D01*
X220981Y21324D01*
X220981Y16776D01*
X219240Y12575D01*
X216025Y9360D01*
X211824Y7619D01*
X207276Y7619D01*
X203075Y9360D01*
X199860Y12575D01*
X198119Y16776D01*
X198119Y21324D01*
X199860Y25525D01*
X203075Y28740D01*
X206286Y30071D01*
X206325Y30095D01*
X206368Y30110D01*
X206429Y30159D01*
X206495Y30200D01*
X206524Y30235D01*
X206560Y30264D01*
X206602Y30330D01*
X206652Y30390D01*
X206668Y30432D01*
X206693Y30471D01*
X206712Y30547D01*
X206740Y30619D01*
X206742Y30665D01*
X206753Y30710D01*
X206747Y30787D01*
X206750Y30865D01*
X206738Y30909D01*
X206734Y30955D01*
X206704Y31026D01*
X206682Y31101D01*
X206656Y31139D01*
X206638Y31181D01*
X206552Y31288D01*
X206542Y31303D01*
X206538Y31306D01*
X206533Y31312D01*
X205298Y32547D01*
X204215Y35161D01*
X204215Y37991D01*
X205298Y40605D01*
X207299Y42606D01*
X209913Y43689D01*
X212743Y43689D01*
X215357Y42606D01*
X217358Y40605D01*
X217569Y40095D01*
X217631Y39995D01*
X217691Y39895D01*
X217696Y39891D01*
X217699Y39886D01*
X217789Y39811D01*
X217878Y39735D01*
X217884Y39733D01*
X217888Y39729D01*
X217997Y39687D01*
X218106Y39643D01*
X218113Y39642D01*
X218118Y39641D01*
X218136Y39640D01*
X218273Y39625D01*
X240738Y39625D01*
X240809Y39636D01*
X240880Y39638D01*
X240929Y39656D01*
X240981Y39664D01*
X241044Y39698D01*
X241111Y39723D01*
X241152Y39755D01*
X241198Y39780D01*
X241247Y39832D01*
X241303Y39876D01*
X241332Y39920D01*
X241367Y39958D01*
X241398Y40023D01*
X241436Y40083D01*
X241449Y40134D01*
X241471Y40181D01*
X241479Y40252D01*
X241496Y40322D01*
X241492Y40374D01*
X241498Y40425D01*
X241483Y40496D01*
X241477Y40567D01*
X241457Y40615D01*
X241446Y40666D01*
X241409Y40727D01*
X241381Y40793D01*
X241336Y40849D01*
X241320Y40877D01*
X241302Y40892D01*
X241276Y40924D01*
X212320Y69880D01*
X212246Y69933D01*
X212177Y69993D01*
X212147Y70005D01*
X212120Y70024D01*
X212033Y70051D01*
X211949Y70085D01*
X211908Y70089D01*
X211885Y70096D01*
X211853Y70095D01*
X211782Y70103D01*
X199985Y70103D01*
X199870Y70084D01*
X199754Y70067D01*
X199748Y70065D01*
X199742Y70064D01*
X199640Y70009D01*
X199534Y69956D01*
X199530Y69951D01*
X199524Y69948D01*
X199445Y69864D01*
X199362Y69780D01*
X199359Y69774D01*
X199355Y69770D01*
X199347Y69753D01*
X199281Y69633D01*
X199070Y69123D01*
X197069Y67122D01*
X194455Y66039D01*
X191625Y66039D01*
X189011Y67122D01*
X187010Y69123D01*
X185927Y71737D01*
X185927Y72082D01*
X185916Y72153D01*
X185914Y72224D01*
X185896Y72273D01*
X185888Y72325D01*
X185854Y72388D01*
X185829Y72455D01*
X185797Y72496D01*
X185772Y72542D01*
X185720Y72591D01*
X185676Y72647D01*
X185632Y72676D01*
X185594Y72711D01*
X185529Y72742D01*
X185469Y72780D01*
X185418Y72793D01*
X185371Y72815D01*
X185300Y72823D01*
X185230Y72840D01*
X185178Y72836D01*
X185127Y72842D01*
X185056Y72827D01*
X184985Y72821D01*
X184937Y72801D01*
X184886Y72790D01*
X184825Y72753D01*
X184759Y72725D01*
X184703Y72680D01*
X184675Y72664D01*
X184660Y72646D01*
X184628Y72620D01*
X178024Y66016D01*
X177971Y65942D01*
X177911Y65873D01*
X177899Y65843D01*
X177880Y65816D01*
X177853Y65729D01*
X177819Y65645D01*
X177815Y65604D01*
X177808Y65581D01*
X177809Y65549D01*
X177801Y65478D01*
X177801Y34090D01*
X177815Y34000D01*
X177823Y33909D01*
X177835Y33879D01*
X177840Y33847D01*
X177883Y33767D01*
X177919Y33683D01*
X177945Y33651D01*
X177956Y33630D01*
X177979Y33608D01*
X178024Y33552D01*
X180964Y30612D01*
X181059Y30543D01*
X181153Y30474D01*
X181159Y30472D01*
X181164Y30468D01*
X181275Y30434D01*
X181387Y30397D01*
X181393Y30397D01*
X181399Y30396D01*
X181516Y30399D01*
X181633Y30400D01*
X181640Y30402D01*
X181645Y30402D01*
X181662Y30408D01*
X181794Y30447D01*
X181876Y30481D01*
X186424Y30481D01*
X190625Y28740D01*
X193840Y25525D01*
X195581Y21324D01*
X195581Y16776D01*
X193840Y12575D01*
X190625Y9360D01*
X186424Y7619D01*
X181876Y7619D01*
X177675Y9360D01*
X174460Y12575D01*
X172719Y16776D01*
X172719Y21324D01*
X174460Y25525D01*
X175405Y26471D01*
X175417Y26487D01*
X175432Y26499D01*
X175488Y26587D01*
X175549Y26670D01*
X175555Y26689D01*
X175565Y26706D01*
X175591Y26807D01*
X175621Y26905D01*
X175621Y26925D01*
X175625Y26945D01*
X175617Y27048D01*
X175615Y27151D01*
X175608Y27170D01*
X175606Y27190D01*
X175566Y27285D01*
X175530Y27382D01*
X175518Y27398D01*
X175510Y27416D01*
X175405Y27547D01*
X171703Y31249D01*
X171703Y65478D01*
X171689Y65568D01*
X171681Y65659D01*
X171669Y65689D01*
X171664Y65721D01*
X171621Y65801D01*
X171585Y65885D01*
X171559Y65917D01*
X171548Y65938D01*
X171525Y65960D01*
X171480Y66016D01*
X167616Y69880D01*
X167542Y69933D01*
X167473Y69993D01*
X167443Y70005D01*
X167416Y70024D01*
X167329Y70051D01*
X167245Y70085D01*
X167204Y70089D01*
X167181Y70096D01*
X167149Y70095D01*
X167078Y70103D01*
X118705Y70103D01*
X118590Y70084D01*
X118474Y70067D01*
X118468Y70065D01*
X118462Y70064D01*
X118360Y70009D01*
X118254Y69956D01*
X118250Y69951D01*
X118244Y69948D01*
X118165Y69864D01*
X118082Y69780D01*
X118079Y69774D01*
X118075Y69770D01*
X118067Y69753D01*
X118001Y69633D01*
X117790Y69123D01*
X115789Y67122D01*
X113175Y66039D01*
X110345Y66039D01*
X107731Y67122D01*
X105730Y69123D01*
X104647Y71737D01*
X104647Y74567D01*
X105730Y77181D01*
X107731Y79182D01*
X110345Y80265D01*
X113175Y80265D01*
X115789Y79182D01*
X117790Y77181D01*
X118001Y76671D01*
X118063Y76571D01*
X118123Y76471D01*
X118128Y76467D01*
X118131Y76462D01*
X118221Y76387D01*
X118310Y76311D01*
X118316Y76309D01*
X118320Y76305D01*
X118429Y76263D01*
X118538Y76219D01*
X118545Y76218D01*
X118550Y76217D01*
X118568Y76216D01*
X118705Y76201D01*
X169919Y76201D01*
X174214Y71906D01*
X174230Y71894D01*
X174242Y71879D01*
X174330Y71822D01*
X174413Y71762D01*
X174432Y71756D01*
X174449Y71746D01*
X174550Y71720D01*
X174649Y71690D01*
X174668Y71690D01*
X174688Y71686D01*
X174791Y71694D01*
X174894Y71696D01*
X174913Y71703D01*
X174933Y71705D01*
X175028Y71745D01*
X175125Y71781D01*
X175141Y71793D01*
X175159Y71801D01*
X175290Y71906D01*
X187713Y84329D01*
X232959Y84329D01*
X233029Y84340D01*
X233101Y84342D01*
X233150Y84360D01*
X233201Y84368D01*
X233265Y84402D01*
X233332Y84427D01*
X233373Y84459D01*
X233419Y84484D01*
X233468Y84536D01*
X233524Y84580D01*
X233552Y84624D01*
X233588Y84662D01*
X233618Y84727D01*
X233657Y84787D01*
X233670Y84838D01*
X233692Y84885D01*
X233700Y84956D01*
X233717Y85026D01*
X233713Y85078D01*
X233719Y85129D01*
X233704Y85200D01*
X233698Y85271D01*
X233678Y85319D01*
X233667Y85370D01*
X233630Y85431D01*
X233602Y85497D01*
X233557Y85553D01*
X233540Y85581D01*
X233523Y85596D01*
X233497Y85628D01*
X231714Y87411D01*
X230631Y90025D01*
X230631Y92855D01*
X231714Y95469D01*
X233715Y97470D01*
X234630Y97849D01*
X234690Y97886D01*
X234756Y97916D01*
X234794Y97951D01*
X234839Y97978D01*
X234884Y98034D01*
X234937Y98082D01*
X234962Y98128D01*
X234995Y98168D01*
X235021Y98235D01*
X235056Y98298D01*
X235065Y98349D01*
X235084Y98397D01*
X235087Y98469D01*
X235099Y98540D01*
X235092Y98591D01*
X235094Y98643D01*
X235074Y98712D01*
X235064Y98783D01*
X235040Y98829D01*
X235025Y98879D01*
X234985Y98938D01*
X234952Y99002D01*
X234915Y99039D01*
X234885Y99081D01*
X234828Y99124D01*
X234777Y99174D01*
X234714Y99209D01*
X234688Y99228D01*
X234666Y99235D01*
X234630Y99255D01*
X233715Y99634D01*
X231714Y101635D01*
X230631Y104249D01*
X230631Y107079D01*
X231714Y109693D01*
X233715Y111694D01*
X236329Y112777D01*
X239159Y112777D01*
X239669Y112565D01*
X239782Y112539D01*
X239896Y112510D01*
X239903Y112511D01*
X239909Y112509D01*
X240025Y112520D01*
X240141Y112529D01*
X240147Y112532D01*
X240153Y112532D01*
X240261Y112580D01*
X240368Y112626D01*
X240374Y112630D01*
X240378Y112632D01*
X240392Y112645D01*
X240499Y112730D01*
X271318Y143549D01*
X271385Y143644D01*
X271456Y143738D01*
X271458Y143744D01*
X271461Y143749D01*
X271496Y143860D01*
X271532Y143972D01*
X271532Y143978D01*
X271534Y143984D01*
X271531Y144101D01*
X271529Y144218D01*
X271527Y144225D01*
X271527Y144230D01*
X271521Y144247D01*
X271483Y144379D01*
X271271Y144889D01*
X271271Y147719D01*
X272354Y150333D01*
X274137Y152116D01*
X274179Y152174D01*
X274228Y152226D01*
X274250Y152273D01*
X274280Y152315D01*
X274301Y152384D01*
X274332Y152449D01*
X274337Y152501D01*
X274353Y152551D01*
X274351Y152622D01*
X274359Y152693D01*
X274348Y152744D01*
X274346Y152796D01*
X274322Y152864D01*
X274307Y152934D01*
X274280Y152979D01*
X274262Y153027D01*
X274217Y153083D01*
X274180Y153145D01*
X274141Y153179D01*
X274108Y153219D01*
X274048Y153258D01*
X273993Y153305D01*
X273945Y153324D01*
X273901Y153352D01*
X273832Y153370D01*
X273765Y153397D01*
X273694Y153405D01*
X273663Y153413D01*
X273639Y153411D01*
X273599Y153415D01*
X187713Y153415D01*
X114330Y226798D01*
X114314Y226810D01*
X114302Y226825D01*
X114214Y226881D01*
X114131Y226942D01*
X114112Y226948D01*
X114095Y226958D01*
X113994Y226984D01*
X113895Y227014D01*
X113876Y227014D01*
X113856Y227018D01*
X113753Y227010D01*
X113650Y227008D01*
X113631Y227001D01*
X113611Y226999D01*
X113516Y226959D01*
X113419Y226923D01*
X113403Y226911D01*
X113385Y226903D01*
X113254Y226798D01*
X96744Y210288D01*
X96691Y210214D01*
X96631Y210145D01*
X96619Y210115D01*
X96600Y210088D01*
X96573Y210001D01*
X96539Y209917D01*
X96535Y209876D01*
X96528Y209853D01*
X96529Y209821D01*
X96521Y209750D01*
X96521Y199294D01*
X96524Y199274D01*
X96522Y199255D01*
X96544Y199153D01*
X96560Y199051D01*
X96570Y199034D01*
X96574Y199014D01*
X96627Y198925D01*
X96676Y198834D01*
X96690Y198820D01*
X96700Y198803D01*
X96779Y198736D01*
X96854Y198664D01*
X96872Y198656D01*
X96887Y198643D01*
X96983Y198604D01*
X97077Y198561D01*
X97097Y198559D01*
X97115Y198551D01*
X97282Y198533D01*
X97442Y198533D01*
X98633Y197342D01*
X98633Y183658D01*
X97442Y182467D01*
X97282Y182467D01*
X97262Y182464D01*
X97243Y182466D01*
X97141Y182444D01*
X97039Y182428D01*
X97022Y182418D01*
X97002Y182414D01*
X96913Y182361D01*
X96822Y182312D01*
X96808Y182298D01*
X96791Y182288D01*
X96724Y182209D01*
X96652Y182134D01*
X96644Y182116D01*
X96631Y182101D01*
X96592Y182005D01*
X96549Y181911D01*
X96547Y181891D01*
X96539Y181873D01*
X96521Y181706D01*
X96521Y167544D01*
X96524Y167524D01*
X96522Y167505D01*
X96544Y167403D01*
X96560Y167301D01*
X96570Y167284D01*
X96574Y167264D01*
X96627Y167175D01*
X96676Y167084D01*
X96690Y167070D01*
X96700Y167053D01*
X96779Y166986D01*
X96854Y166914D01*
X96872Y166906D01*
X96887Y166893D01*
X96983Y166854D01*
X97077Y166811D01*
X97097Y166809D01*
X97115Y166801D01*
X97282Y166783D01*
X97442Y166783D01*
X98633Y165592D01*
X98633Y151908D01*
X97442Y150717D01*
X97282Y150717D01*
X97262Y150714D01*
X97243Y150716D01*
X97141Y150694D01*
X97039Y150678D01*
X97022Y150668D01*
X97002Y150664D01*
X96913Y150611D01*
X96822Y150562D01*
X96808Y150548D01*
X96791Y150538D01*
X96724Y150459D01*
X96652Y150384D01*
X96644Y150366D01*
X96631Y150351D01*
X96592Y150255D01*
X96549Y150161D01*
X96547Y150141D01*
X96539Y150123D01*
X96521Y149956D01*
X96521Y64570D01*
X96535Y64480D01*
X96543Y64389D01*
X96555Y64359D01*
X96560Y64327D01*
X96603Y64247D01*
X96639Y64163D01*
X96665Y64131D01*
X96676Y64110D01*
X96699Y64088D01*
X96744Y64032D01*
X130164Y30612D01*
X130258Y30544D01*
X130353Y30474D01*
X130359Y30472D01*
X130364Y30468D01*
X130475Y30434D01*
X130587Y30397D01*
X130593Y30397D01*
X130599Y30396D01*
X130716Y30399D01*
X130833Y30400D01*
X130840Y30402D01*
X130845Y30402D01*
X130862Y30408D01*
X130994Y30447D01*
X131076Y30481D01*
X135624Y30481D01*
X139825Y28740D01*
X143040Y25525D01*
X144781Y21324D01*
X144781Y16776D01*
X143040Y12575D01*
X139825Y9360D01*
X135624Y7619D01*
X131076Y7619D01*
X126875Y9360D01*
X123660Y12575D01*
X121919Y16776D01*
X121919Y21324D01*
X123660Y25525D01*
X124605Y26471D01*
X124617Y26487D01*
X124632Y26499D01*
X124688Y26587D01*
X124749Y26670D01*
X124755Y26689D01*
X124765Y26706D01*
X124791Y26807D01*
X124821Y26905D01*
X124821Y26925D01*
X124825Y26945D01*
X124817Y27048D01*
X124815Y27151D01*
X124808Y27170D01*
X124806Y27190D01*
X124766Y27285D01*
X124730Y27382D01*
X124718Y27398D01*
X124710Y27416D01*
X124605Y27547D01*
X92432Y59720D01*
X90423Y61729D01*
X90423Y149956D01*
X90420Y149976D01*
X90422Y149995D01*
X90400Y150097D01*
X90384Y150199D01*
X90374Y150216D01*
X90370Y150236D01*
X90317Y150325D01*
X90268Y150416D01*
X90254Y150430D01*
X90244Y150447D01*
X90165Y150514D01*
X90090Y150586D01*
X90072Y150594D01*
X90057Y150607D01*
X89961Y150646D01*
X89867Y150689D01*
X89847Y150691D01*
X89829Y150699D01*
X89662Y150717D01*
X87758Y150717D01*
X86567Y151908D01*
X86567Y165592D01*
X87758Y166783D01*
X89662Y166783D01*
X89682Y166786D01*
X89701Y166784D01*
X89803Y166806D01*
X89905Y166822D01*
X89922Y166832D01*
X89942Y166836D01*
X90031Y166889D01*
X90122Y166938D01*
X90136Y166952D01*
X90153Y166962D01*
X90220Y167041D01*
X90292Y167116D01*
X90300Y167134D01*
X90313Y167149D01*
X90352Y167245D01*
X90395Y167339D01*
X90397Y167359D01*
X90405Y167377D01*
X90423Y167544D01*
X90423Y181706D01*
X90420Y181726D01*
X90422Y181745D01*
X90400Y181847D01*
X90384Y181949D01*
X90374Y181966D01*
X90370Y181986D01*
X90317Y182075D01*
X90268Y182166D01*
X90254Y182180D01*
X90244Y182197D01*
X90165Y182264D01*
X90090Y182336D01*
X90072Y182344D01*
X90057Y182357D01*
X89961Y182396D01*
X89867Y182439D01*
X89847Y182441D01*
X89829Y182449D01*
X89662Y182467D01*
X87758Y182467D01*
X86567Y183658D01*
X86567Y197342D01*
X87758Y198533D01*
X89662Y198533D01*
X89682Y198536D01*
X89701Y198534D01*
X89803Y198556D01*
X89905Y198572D01*
X89922Y198582D01*
X89942Y198586D01*
X90031Y198639D01*
X90122Y198688D01*
X90136Y198702D01*
X90153Y198712D01*
X90220Y198791D01*
X90292Y198866D01*
X90300Y198884D01*
X90313Y198899D01*
X90352Y198995D01*
X90395Y199089D01*
X90397Y199109D01*
X90405Y199127D01*
X90423Y199294D01*
X90423Y200530D01*
X90416Y200575D01*
X90418Y200621D01*
X90396Y200696D01*
X90384Y200773D01*
X90362Y200813D01*
X90349Y200857D01*
X90305Y200921D01*
X90268Y200990D01*
X90235Y201022D01*
X90209Y201059D01*
X90146Y201106D01*
X90090Y201159D01*
X90048Y201179D01*
X90012Y201206D01*
X89938Y201230D01*
X89867Y201263D01*
X89821Y201268D01*
X89778Y201282D01*
X89700Y201282D01*
X89623Y201290D01*
X89578Y201280D01*
X89532Y201280D01*
X89400Y201242D01*
X89382Y201238D01*
X89378Y201235D01*
X89371Y201233D01*
X86759Y200151D01*
X83929Y200151D01*
X81315Y201234D01*
X79314Y203235D01*
X78231Y205849D01*
X78231Y208679D01*
X79314Y211293D01*
X81315Y213294D01*
X81825Y213505D01*
X81925Y213567D01*
X82025Y213627D01*
X82029Y213632D01*
X82034Y213635D01*
X82109Y213725D01*
X82185Y213814D01*
X82187Y213820D01*
X82191Y213824D01*
X82233Y213933D01*
X82277Y214042D01*
X82278Y214049D01*
X82279Y214054D01*
X82280Y214072D01*
X82295Y214209D01*
X82295Y236975D01*
X98189Y252869D01*
X98201Y252885D01*
X98217Y252898D01*
X98273Y252985D01*
X98333Y253069D01*
X98339Y253088D01*
X98350Y253105D01*
X98375Y253205D01*
X98405Y253304D01*
X98405Y253324D01*
X98409Y253343D01*
X98401Y253446D01*
X98399Y253549D01*
X98392Y253568D01*
X98390Y253588D01*
X98350Y253683D01*
X98314Y253780D01*
X98302Y253796D01*
X98294Y253815D01*
X98275Y253839D01*
X96519Y258076D01*
X96519Y262624D01*
X98260Y266825D01*
X101475Y270040D01*
X105676Y271781D01*
X110224Y271781D01*
X114425Y270040D01*
X117640Y266825D01*
X119381Y262624D01*
X119381Y258076D01*
X117640Y253875D01*
X114425Y250660D01*
X110224Y248919D01*
X105676Y248919D01*
X104157Y249549D01*
X104043Y249575D01*
X103930Y249604D01*
X103923Y249603D01*
X103917Y249605D01*
X103801Y249594D01*
X103684Y249585D01*
X103679Y249582D01*
X103672Y249582D01*
X103565Y249534D01*
X103458Y249488D01*
X103452Y249484D01*
X103448Y249482D01*
X103434Y249469D01*
X103327Y249384D01*
X88616Y234672D01*
X88563Y234598D01*
X88503Y234529D01*
X88491Y234499D01*
X88472Y234472D01*
X88445Y234385D01*
X88411Y234301D01*
X88407Y234260D01*
X88400Y234237D01*
X88401Y234205D01*
X88393Y234134D01*
X88393Y214209D01*
X88412Y214094D01*
X88429Y213978D01*
X88431Y213972D01*
X88432Y213966D01*
X88487Y213864D01*
X88540Y213758D01*
X88545Y213754D01*
X88548Y213748D01*
X88632Y213669D01*
X88716Y213586D01*
X88722Y213583D01*
X88726Y213579D01*
X88743Y213571D01*
X88863Y213505D01*
X89373Y213294D01*
X89711Y212956D01*
X89728Y212944D01*
X89740Y212928D01*
X89827Y212872D01*
X89911Y212812D01*
X89930Y212806D01*
X89947Y212795D01*
X90047Y212770D01*
X90146Y212740D01*
X90166Y212740D01*
X90185Y212735D01*
X90288Y212743D01*
X90392Y212746D01*
X90411Y212753D01*
X90431Y212754D01*
X90526Y212795D01*
X90623Y212830D01*
X90639Y212843D01*
X90657Y212851D01*
X90788Y212956D01*
X110520Y232688D01*
X112752Y234920D01*
X127213Y249380D01*
X127240Y249418D01*
X127273Y249449D01*
X127311Y249517D01*
X127356Y249580D01*
X127370Y249624D01*
X127392Y249664D01*
X127406Y249741D01*
X127429Y249815D01*
X127427Y249861D01*
X127436Y249906D01*
X127424Y249983D01*
X127422Y250061D01*
X127407Y250104D01*
X127400Y250150D01*
X127365Y250219D01*
X127338Y250292D01*
X127309Y250328D01*
X127288Y250369D01*
X127233Y250423D01*
X127184Y250484D01*
X127146Y250509D01*
X127113Y250541D01*
X126993Y250607D01*
X126977Y250617D01*
X126972Y250618D01*
X126966Y250622D01*
X126875Y250659D01*
X123660Y253875D01*
X121919Y258076D01*
X121919Y262624D01*
X123660Y266825D01*
X126875Y270040D01*
X131076Y271781D01*
X135624Y271781D01*
X139825Y270040D01*
X143040Y266825D01*
X144781Y262624D01*
X144781Y258076D01*
X143040Y253875D01*
X139825Y250660D01*
X135585Y248903D01*
X135509Y248897D01*
X135479Y248885D01*
X135447Y248880D01*
X135367Y248837D01*
X135283Y248801D01*
X135251Y248775D01*
X135230Y248764D01*
X135208Y248741D01*
X135152Y248696D01*
X133120Y246664D01*
X118642Y232186D01*
X118630Y232170D01*
X118615Y232158D01*
X118559Y232070D01*
X118498Y231987D01*
X118492Y231968D01*
X118482Y231951D01*
X118456Y231850D01*
X118426Y231751D01*
X118426Y231732D01*
X118422Y231712D01*
X118430Y231609D01*
X118432Y231506D01*
X118439Y231487D01*
X118441Y231467D01*
X118481Y231372D01*
X118517Y231275D01*
X118529Y231259D01*
X118537Y231241D01*
X118642Y231110D01*
X146020Y203732D01*
X146078Y203690D01*
X146130Y203641D01*
X146177Y203619D01*
X146219Y203588D01*
X146288Y203567D01*
X146353Y203537D01*
X146405Y203531D01*
X146455Y203516D01*
X146526Y203518D01*
X146597Y203510D01*
X146648Y203521D01*
X146700Y203522D01*
X146768Y203547D01*
X146838Y203562D01*
X146883Y203589D01*
X146931Y203607D01*
X146987Y203652D01*
X147049Y203688D01*
X147083Y203728D01*
X147123Y203760D01*
X147162Y203821D01*
X147209Y203875D01*
X147228Y203924D01*
X147256Y203967D01*
X147274Y204037D01*
X147301Y204103D01*
X147309Y204175D01*
X147317Y204206D01*
X147315Y204229D01*
X147319Y204270D01*
X147319Y234863D01*
X147300Y234978D01*
X147283Y235094D01*
X147281Y235100D01*
X147280Y235106D01*
X147225Y235208D01*
X147172Y235314D01*
X147167Y235318D01*
X147164Y235324D01*
X147080Y235403D01*
X146996Y235486D01*
X146990Y235489D01*
X146986Y235493D01*
X146969Y235501D01*
X146849Y235567D01*
X146339Y235778D01*
X144338Y237779D01*
X143255Y240393D01*
X143255Y243223D01*
X144338Y245837D01*
X146339Y247838D01*
X148953Y248921D01*
X151783Y248921D01*
X154397Y247838D01*
X156398Y245837D01*
X157481Y243223D01*
X157481Y240393D01*
X156398Y237779D01*
X154397Y235778D01*
X153887Y235567D01*
X153787Y235505D01*
X153687Y235445D01*
X153683Y235440D01*
X153678Y235437D01*
X153603Y235347D01*
X153527Y235258D01*
X153525Y235252D01*
X153521Y235248D01*
X153479Y235139D01*
X153435Y235030D01*
X153434Y235023D01*
X153433Y235018D01*
X153432Y235000D01*
X153417Y234863D01*
X153417Y213998D01*
X153424Y213953D01*
X153422Y213907D01*
X153444Y213832D01*
X153456Y213755D01*
X153478Y213715D01*
X153491Y213671D01*
X153535Y213607D01*
X153572Y213538D01*
X153605Y213506D01*
X153631Y213469D01*
X153694Y213422D01*
X153750Y213369D01*
X153792Y213349D01*
X153828Y213322D01*
X153902Y213298D01*
X153973Y213265D01*
X154019Y213260D01*
X154062Y213246D01*
X154140Y213246D01*
X154217Y213238D01*
X154262Y213248D01*
X154308Y213248D01*
X154440Y213286D01*
X154458Y213290D01*
X154462Y213293D01*
X154469Y213295D01*
X157081Y214377D01*
X159911Y214377D01*
X160421Y214165D01*
X160535Y214139D01*
X160648Y214110D01*
X160655Y214111D01*
X160661Y214109D01*
X160777Y214120D01*
X160893Y214129D01*
X160899Y214132D01*
X160906Y214132D01*
X161013Y214180D01*
X161120Y214226D01*
X161126Y214230D01*
X161130Y214232D01*
X161144Y214245D01*
X161251Y214330D01*
X199789Y252869D01*
X199801Y252885D01*
X199817Y252898D01*
X199873Y252985D01*
X199933Y253069D01*
X199939Y253088D01*
X199950Y253105D01*
X199975Y253205D01*
X200005Y253304D01*
X200005Y253324D01*
X200009Y253343D01*
X200001Y253446D01*
X199999Y253549D01*
X199992Y253568D01*
X199990Y253588D01*
X199950Y253683D01*
X199914Y253780D01*
X199902Y253796D01*
X199894Y253815D01*
X199875Y253839D01*
X198119Y258076D01*
X198119Y262624D01*
X199860Y266825D01*
X203075Y270040D01*
X207276Y271781D01*
X211824Y271781D01*
X216025Y270040D01*
X219240Y266825D01*
X220981Y262624D01*
X220981Y258076D01*
X219240Y253875D01*
X216025Y250660D01*
X211824Y248919D01*
X207276Y248919D01*
X205757Y249549D01*
X205643Y249575D01*
X205530Y249604D01*
X205523Y249603D01*
X205517Y249605D01*
X205401Y249594D01*
X205284Y249585D01*
X205279Y249582D01*
X205272Y249582D01*
X205165Y249534D01*
X205058Y249488D01*
X205052Y249484D01*
X205048Y249482D01*
X205034Y249469D01*
X204927Y249384D01*
X165562Y210019D01*
X165495Y209925D01*
X165424Y209830D01*
X165422Y209824D01*
X165419Y209819D01*
X165385Y209708D01*
X165348Y209596D01*
X165348Y209590D01*
X165346Y209584D01*
X165349Y209467D01*
X165351Y209350D01*
X165353Y209343D01*
X165353Y209338D01*
X165359Y209321D01*
X165397Y209189D01*
X165609Y208679D01*
X165609Y205849D01*
X164527Y203237D01*
X164516Y203193D01*
X164497Y203151D01*
X164488Y203074D01*
X164471Y202998D01*
X164475Y202952D01*
X164470Y202907D01*
X164486Y202830D01*
X164494Y202753D01*
X164512Y202711D01*
X164522Y202666D01*
X164562Y202599D01*
X164594Y202528D01*
X164625Y202494D01*
X164648Y202455D01*
X164707Y202404D01*
X164760Y202347D01*
X164800Y202325D01*
X164835Y202295D01*
X164907Y202266D01*
X164976Y202229D01*
X165021Y202220D01*
X165063Y202203D01*
X165199Y202188D01*
X165218Y202185D01*
X165223Y202186D01*
X165230Y202185D01*
X175206Y202185D01*
X175296Y202199D01*
X175387Y202207D01*
X175417Y202219D01*
X175449Y202224D01*
X175529Y202267D01*
X175613Y202303D01*
X175645Y202329D01*
X175666Y202340D01*
X175688Y202363D01*
X175744Y202408D01*
X225697Y252361D01*
X225709Y252377D01*
X225724Y252389D01*
X225780Y252477D01*
X225841Y252561D01*
X225847Y252580D01*
X225857Y252596D01*
X225883Y252697D01*
X225913Y252796D01*
X225913Y252816D01*
X225917Y252835D01*
X225909Y252938D01*
X225907Y253041D01*
X225900Y253060D01*
X225898Y253080D01*
X225858Y253175D01*
X225822Y253272D01*
X225810Y253288D01*
X225802Y253306D01*
X225697Y253437D01*
X225259Y253875D01*
X223519Y258076D01*
X223519Y262624D01*
X225260Y266825D01*
X228475Y270040D01*
X232676Y271781D01*
X237224Y271781D01*
X241425Y270040D01*
X244640Y266825D01*
X246381Y262624D01*
X246381Y258076D01*
X244640Y253875D01*
X241425Y250660D01*
X237224Y248919D01*
X232676Y248919D01*
X231875Y249251D01*
X231762Y249278D01*
X231648Y249306D01*
X231642Y249306D01*
X231636Y249307D01*
X231519Y249296D01*
X231403Y249287D01*
X231397Y249285D01*
X231391Y249284D01*
X231283Y249236D01*
X231177Y249191D01*
X231171Y249186D01*
X231166Y249184D01*
X231152Y249171D01*
X231046Y249086D01*
X197636Y215676D01*
X197594Y215618D01*
X197545Y215566D01*
X197523Y215519D01*
X197492Y215477D01*
X197471Y215408D01*
X197441Y215343D01*
X197435Y215291D01*
X197420Y215241D01*
X197422Y215170D01*
X197414Y215099D01*
X197425Y215048D01*
X197426Y214996D01*
X197451Y214928D01*
X197466Y214858D01*
X197493Y214814D01*
X197511Y214765D01*
X197556Y214709D01*
X197592Y214647D01*
X197632Y214613D01*
X197664Y214573D01*
X197725Y214534D01*
X197779Y214487D01*
X197828Y214468D01*
X197871Y214440D01*
X197941Y214422D01*
X198007Y214395D01*
X198079Y214387D01*
X198110Y214379D01*
X198133Y214381D01*
X198174Y214377D01*
X198519Y214377D01*
X201133Y213294D01*
X203134Y211293D01*
X204217Y208679D01*
X204217Y205849D01*
X204005Y205339D01*
X203979Y205225D01*
X203950Y205112D01*
X203951Y205105D01*
X203949Y205099D01*
X203960Y204983D01*
X203969Y204867D01*
X203972Y204861D01*
X203972Y204854D01*
X204020Y204747D01*
X204066Y204640D01*
X204070Y204634D01*
X204072Y204630D01*
X204085Y204616D01*
X204170Y204509D01*
X217140Y191540D01*
X217198Y191498D01*
X217250Y191449D01*
X217297Y191427D01*
X217339Y191396D01*
X217408Y191375D01*
X217473Y191345D01*
X217525Y191339D01*
X217575Y191324D01*
X217646Y191326D01*
X217717Y191318D01*
X217768Y191329D01*
X217820Y191330D01*
X217888Y191355D01*
X217958Y191370D01*
X218003Y191397D01*
X218051Y191415D01*
X218107Y191460D01*
X218169Y191496D01*
X218203Y191536D01*
X218243Y191568D01*
X218282Y191629D01*
X218329Y191683D01*
X218348Y191732D01*
X218376Y191775D01*
X218394Y191845D01*
X218421Y191911D01*
X218429Y191983D01*
X218437Y192014D01*
X218435Y192037D01*
X218439Y192078D01*
X218439Y192423D01*
X219522Y195037D01*
X221523Y197038D01*
X222033Y197249D01*
X222133Y197311D01*
X222233Y197371D01*
X222237Y197376D01*
X222242Y197379D01*
X222317Y197469D01*
X222393Y197558D01*
X222395Y197564D01*
X222399Y197568D01*
X222441Y197677D01*
X222485Y197786D01*
X222486Y197793D01*
X222487Y197798D01*
X222488Y197816D01*
X222503Y197953D01*
X222503Y200399D01*
X232417Y210313D01*
X320207Y210313D01*
X320322Y210332D01*
X320438Y210349D01*
X320444Y210351D01*
X320450Y210352D01*
X320552Y210407D01*
X320658Y210460D01*
X320662Y210465D01*
X320668Y210468D01*
X320747Y210551D01*
X320830Y210636D01*
X320833Y210642D01*
X320837Y210646D01*
X320845Y210663D01*
X320911Y210783D01*
X321122Y211293D01*
X323123Y213294D01*
X325737Y214377D01*
X328567Y214377D01*
X331179Y213295D01*
X331223Y213284D01*
X331265Y213265D01*
X331342Y213256D01*
X331418Y213239D01*
X331464Y213243D01*
X331509Y213238D01*
X331586Y213254D01*
X331663Y213262D01*
X331705Y213280D01*
X331750Y213290D01*
X331817Y213330D01*
X331888Y213362D01*
X331922Y213393D01*
X331961Y213416D01*
X332012Y213475D01*
X332069Y213528D01*
X332091Y213568D01*
X332121Y213603D01*
X332150Y213675D01*
X332187Y213744D01*
X332196Y213789D01*
X332213Y213831D01*
X332228Y213967D01*
X332231Y213986D01*
X332230Y213991D01*
X332231Y213998D01*
X332231Y220719D01*
X338081Y226569D01*
X360927Y226569D01*
X371668Y215828D01*
X371726Y215786D01*
X371778Y215737D01*
X371825Y215715D01*
X371867Y215684D01*
X371936Y215663D01*
X372001Y215633D01*
X372053Y215627D01*
X372103Y215612D01*
X372174Y215614D01*
X372245Y215606D01*
X372296Y215617D01*
X372348Y215618D01*
X372416Y215643D01*
X372486Y215658D01*
X372531Y215685D01*
X372579Y215703D01*
X372635Y215748D01*
X372697Y215784D01*
X372731Y215824D01*
X372771Y215856D01*
X372810Y215917D01*
X372857Y215971D01*
X372876Y216020D01*
X372904Y216063D01*
X372922Y216133D01*
X372949Y216199D01*
X372957Y216271D01*
X372965Y216302D01*
X372963Y216325D01*
X372967Y216366D01*
X372967Y217042D01*
X374158Y218233D01*
X387842Y218233D01*
X389058Y217017D01*
X389072Y216927D01*
X389082Y216910D01*
X389086Y216890D01*
X389139Y216801D01*
X389188Y216710D01*
X389202Y216696D01*
X389212Y216679D01*
X389291Y216612D01*
X389366Y216540D01*
X389384Y216532D01*
X389399Y216519D01*
X389495Y216480D01*
X389589Y216437D01*
X389609Y216435D01*
X389627Y216427D01*
X389794Y216409D01*
X391407Y216409D01*
X431824Y175992D01*
X431898Y175939D01*
X431967Y175879D01*
X431997Y175867D01*
X432024Y175848D01*
X432111Y175821D01*
X432195Y175787D01*
X432236Y175783D01*
X432259Y175776D01*
X432291Y175777D01*
X432362Y175769D01*
X478231Y175769D01*
X478251Y175772D01*
X478270Y175770D01*
X478372Y175792D01*
X478474Y175808D01*
X478491Y175818D01*
X478511Y175822D01*
X478600Y175875D01*
X478691Y175924D01*
X478705Y175938D01*
X478722Y175948D01*
X478789Y176027D01*
X478861Y176102D01*
X478869Y176120D01*
X478882Y176135D01*
X478921Y176231D01*
X478964Y176325D01*
X478966Y176345D01*
X478974Y176363D01*
X478992Y176530D01*
X478992Y177892D01*
X480183Y179083D01*
X501867Y179083D01*
X503174Y177776D01*
X503233Y177734D01*
X503285Y177684D01*
X503332Y177663D01*
X503373Y177633D01*
X503443Y177611D01*
X503508Y177581D01*
X503559Y177575D01*
X503608Y177560D01*
X503681Y177562D01*
X503753Y177554D01*
X503803Y177565D01*
X503854Y177567D01*
X503923Y177592D01*
X503993Y177607D01*
X504037Y177633D01*
X504085Y177651D01*
X504142Y177696D01*
X504204Y177734D01*
X504237Y177773D01*
X504277Y177805D01*
X504317Y177866D01*
X504364Y177921D01*
X504383Y177968D01*
X504410Y178012D01*
X504428Y178082D01*
X504455Y178149D01*
X504463Y178219D01*
X504470Y178250D01*
X504469Y178274D01*
X504473Y178316D01*
X504458Y185210D01*
X504451Y185255D01*
X504453Y185300D01*
X504431Y185375D01*
X504418Y185453D01*
X504397Y185493D01*
X504384Y185536D01*
X504339Y185601D01*
X504302Y185670D01*
X504270Y185701D01*
X504244Y185738D01*
X504181Y185785D01*
X504124Y185839D01*
X504083Y185858D01*
X504046Y185885D01*
X503972Y185909D01*
X503900Y185942D01*
X503856Y185947D01*
X503813Y185961D01*
X503734Y185960D01*
X503656Y185969D01*
X503612Y185959D01*
X503567Y185959D01*
X503432Y185919D01*
X503416Y185916D01*
X503412Y185914D01*
X503406Y185912D01*
X501227Y185009D01*
X498823Y185009D01*
X496603Y185929D01*
X494904Y187628D01*
X493984Y189848D01*
X493984Y192252D01*
X494904Y194472D01*
X496603Y196171D01*
X498823Y197091D01*
X501227Y197091D01*
X503380Y196199D01*
X503426Y196188D01*
X503468Y196168D01*
X503545Y196160D01*
X503620Y196143D01*
X503666Y196147D01*
X503712Y196142D01*
X503788Y196158D01*
X503864Y196166D01*
X503907Y196185D01*
X503953Y196195D01*
X504019Y196234D01*
X504089Y196266D01*
X504123Y196297D01*
X504164Y196321D01*
X504213Y196380D01*
X504270Y196432D01*
X504293Y196473D01*
X504323Y196509D01*
X504352Y196580D01*
X504389Y196648D01*
X504397Y196694D01*
X504414Y196737D01*
X504429Y196870D01*
X504433Y196890D01*
X504432Y196895D01*
X504433Y196904D01*
X504419Y203015D01*
X504408Y203085D01*
X504406Y203156D01*
X504388Y203206D01*
X504379Y203258D01*
X504346Y203320D01*
X504321Y203387D01*
X504288Y203428D01*
X504263Y203475D01*
X504212Y203523D01*
X504168Y203579D01*
X504123Y203607D01*
X504085Y203644D01*
X504020Y203673D01*
X503961Y203712D01*
X503909Y203725D01*
X503861Y203747D01*
X503791Y203755D01*
X503722Y203772D01*
X503669Y203768D01*
X503617Y203773D01*
X503548Y203758D01*
X503477Y203753D01*
X503428Y203732D01*
X503377Y203721D01*
X503316Y203684D01*
X503251Y203656D01*
X503194Y203611D01*
X503166Y203594D01*
X503151Y203577D01*
X503120Y203552D01*
X502585Y203017D01*
X502006Y202682D01*
X501359Y202509D01*
X492548Y202509D01*
X492548Y209788D01*
X492545Y209808D01*
X492547Y209827D01*
X492525Y209929D01*
X492508Y210031D01*
X492499Y210048D01*
X492495Y210068D01*
X492442Y210157D01*
X492393Y210248D01*
X492379Y210262D01*
X492369Y210279D01*
X492290Y210346D01*
X492215Y210417D01*
X492197Y210426D01*
X492182Y210439D01*
X492086Y210478D01*
X491992Y210521D01*
X491972Y210523D01*
X491954Y210531D01*
X491787Y210549D01*
X491024Y210549D01*
X491024Y210551D01*
X491787Y210551D01*
X491807Y210554D01*
X491826Y210552D01*
X491928Y210574D01*
X492030Y210591D01*
X492047Y210600D01*
X492067Y210604D01*
X492156Y210657D01*
X492247Y210706D01*
X492261Y210720D01*
X492278Y210730D01*
X492345Y210809D01*
X492416Y210884D01*
X492425Y210902D01*
X492438Y210917D01*
X492477Y211013D01*
X492520Y211107D01*
X492522Y211127D01*
X492530Y211145D01*
X492548Y211312D01*
X492548Y218591D01*
X501359Y218591D01*
X502006Y218418D01*
X502585Y218083D01*
X503087Y217581D01*
X503146Y217539D01*
X503198Y217489D01*
X503245Y217468D01*
X503287Y217438D01*
X503356Y217416D01*
X503422Y217386D01*
X503473Y217381D01*
X503522Y217365D01*
X503594Y217367D01*
X503666Y217359D01*
X503716Y217370D01*
X503768Y217372D01*
X503836Y217397D01*
X503906Y217412D01*
X503950Y217439D01*
X503999Y217456D01*
X504055Y217502D01*
X504117Y217539D01*
X504151Y217578D01*
X504191Y217610D01*
X504230Y217671D01*
X504277Y217726D01*
X504296Y217774D01*
X504324Y217817D01*
X504341Y217887D01*
X504368Y217955D01*
X504376Y218024D01*
X504384Y218055D01*
X504382Y218079D01*
X504386Y218121D01*
X504266Y273100D01*
X504263Y273119D01*
X504265Y273137D01*
X504243Y273240D01*
X504226Y273342D01*
X504217Y273359D01*
X504213Y273378D01*
X504160Y273468D01*
X504111Y273559D01*
X504097Y273573D01*
X504087Y273589D01*
X504007Y273657D01*
X503932Y273728D01*
X503915Y273736D01*
X503900Y273749D01*
X503803Y273788D01*
X503709Y273832D01*
X503690Y273834D01*
X503672Y273841D01*
X503505Y273859D01*
X2109Y273859D01*
X2089Y273856D01*
X2068Y273858D01*
X1968Y273836D01*
X1866Y273820D01*
X1848Y273810D01*
X1828Y273805D01*
X1740Y273752D01*
X1649Y273704D01*
X1635Y273689D01*
X1617Y273679D01*
X1550Y273600D01*
X1480Y273526D01*
X1471Y273507D01*
X1457Y273491D01*
X1419Y273396D01*
X1376Y273303D01*
X1374Y273282D01*
X1366Y273263D01*
X1348Y273096D01*
X1428Y236472D01*
X1431Y236453D01*
X1429Y236435D01*
X1451Y236332D01*
X1468Y236230D01*
X1477Y236213D01*
X1481Y236194D01*
X1535Y236104D01*
X1584Y236013D01*
X1597Y235999D01*
X1607Y235983D01*
X1687Y235915D01*
X1762Y235844D01*
X1780Y235836D01*
X1794Y235823D01*
X1891Y235784D01*
X1986Y235740D01*
X2005Y235738D01*
X2022Y235731D01*
X2189Y235713D01*
X70166Y235713D01*
X70613Y235266D01*
X70613Y44134D01*
X70166Y43687D01*
X2611Y43687D01*
X2590Y43684D01*
X2570Y43686D01*
X2470Y43664D01*
X2368Y43648D01*
X2350Y43638D01*
X2330Y43633D01*
X2241Y43580D01*
X2151Y43532D01*
X2137Y43517D01*
X2119Y43507D01*
X2052Y43428D01*
X1981Y43354D01*
X1973Y43335D01*
X1959Y43319D01*
X1921Y43224D01*
X1878Y43131D01*
X1876Y43110D01*
X1868Y43091D01*
X1850Y42924D01*
X1934Y4500D01*
X1937Y4481D01*
X1935Y4463D01*
X1957Y4360D01*
X1974Y4258D01*
X1983Y4241D01*
X1987Y4222D01*
X2040Y4132D01*
X2089Y4041D01*
X2103Y4027D01*
X2113Y4011D01*
X2193Y3943D01*
X2268Y3872D01*
X2285Y3864D01*
X2300Y3851D01*
X2397Y3812D01*
X2491Y3768D01*
X2510Y3766D01*
X2528Y3759D01*
X2695Y3741D01*
X504091Y3741D01*
X504111Y3744D01*
G37*
G36*
X267631Y159520D02*
X267631Y159520D01*
X267677Y159518D01*
X267752Y159540D01*
X267829Y159552D01*
X267869Y159574D01*
X267913Y159587D01*
X267977Y159631D01*
X268046Y159668D01*
X268078Y159701D01*
X268115Y159727D01*
X268162Y159790D01*
X268215Y159846D01*
X268235Y159888D01*
X268262Y159924D01*
X268286Y159998D01*
X268319Y160069D01*
X268324Y160115D01*
X268338Y160158D01*
X268338Y160236D01*
X268346Y160313D01*
X268336Y160358D01*
X268336Y160404D01*
X268298Y160536D01*
X268294Y160554D01*
X268291Y160558D01*
X268289Y160565D01*
X268079Y161073D01*
X268017Y161173D01*
X267957Y161273D01*
X267952Y161277D01*
X267949Y161282D01*
X267859Y161357D01*
X267770Y161433D01*
X267764Y161435D01*
X267760Y161439D01*
X267652Y161481D01*
X267542Y161525D01*
X267535Y161526D01*
X267530Y161527D01*
X267512Y161528D01*
X267375Y161543D01*
X238513Y161543D01*
X199859Y200198D01*
X199765Y200265D01*
X199670Y200336D01*
X199664Y200338D01*
X199659Y200341D01*
X199548Y200375D01*
X199436Y200412D01*
X199430Y200412D01*
X199424Y200414D01*
X199307Y200411D01*
X199190Y200409D01*
X199183Y200407D01*
X199178Y200407D01*
X199161Y200401D01*
X199029Y200363D01*
X198519Y200151D01*
X195689Y200151D01*
X193075Y201234D01*
X191074Y203235D01*
X189991Y205849D01*
X189991Y206194D01*
X189980Y206265D01*
X189978Y206336D01*
X189960Y206385D01*
X189952Y206437D01*
X189918Y206500D01*
X189893Y206567D01*
X189861Y206608D01*
X189836Y206654D01*
X189784Y206703D01*
X189740Y206759D01*
X189696Y206788D01*
X189658Y206823D01*
X189593Y206854D01*
X189533Y206892D01*
X189482Y206905D01*
X189435Y206927D01*
X189364Y206935D01*
X189294Y206952D01*
X189242Y206948D01*
X189191Y206954D01*
X189120Y206939D01*
X189049Y206933D01*
X189001Y206913D01*
X188950Y206902D01*
X188889Y206865D01*
X188823Y206837D01*
X188767Y206792D01*
X188739Y206776D01*
X188724Y206758D01*
X188692Y206732D01*
X178047Y196087D01*
X155502Y196087D01*
X155431Y196076D01*
X155360Y196074D01*
X155311Y196056D01*
X155259Y196048D01*
X155196Y196014D01*
X155129Y195989D01*
X155088Y195957D01*
X155042Y195932D01*
X154993Y195880D01*
X154937Y195836D01*
X154908Y195792D01*
X154873Y195754D01*
X154842Y195689D01*
X154804Y195629D01*
X154791Y195578D01*
X154769Y195531D01*
X154761Y195460D01*
X154744Y195390D01*
X154748Y195338D01*
X154742Y195287D01*
X154757Y195216D01*
X154763Y195145D01*
X154783Y195097D01*
X154794Y195046D01*
X154831Y194985D01*
X154859Y194919D01*
X154904Y194863D01*
X154920Y194835D01*
X154938Y194820D01*
X154964Y194788D01*
X190016Y159736D01*
X190090Y159683D01*
X190159Y159623D01*
X190189Y159611D01*
X190216Y159592D01*
X190303Y159565D01*
X190387Y159531D01*
X190428Y159527D01*
X190451Y159520D01*
X190483Y159521D01*
X190554Y159513D01*
X267586Y159513D01*
X267631Y159520D01*
G37*
G36*
X294496Y177109D02*
X294496Y177109D01*
X294567Y177115D01*
X294615Y177135D01*
X294666Y177146D01*
X294727Y177183D01*
X294793Y177211D01*
X294849Y177256D01*
X294877Y177272D01*
X294892Y177290D01*
X294924Y177316D01*
X301505Y183897D01*
X310047Y183897D01*
X310162Y183916D01*
X310278Y183933D01*
X310284Y183935D01*
X310290Y183936D01*
X310392Y183991D01*
X310498Y184044D01*
X310502Y184049D01*
X310508Y184052D01*
X310587Y184136D01*
X310670Y184220D01*
X310673Y184226D01*
X310677Y184230D01*
X310685Y184247D01*
X310751Y184367D01*
X310962Y184877D01*
X312963Y186878D01*
X315577Y187961D01*
X318407Y187961D01*
X321021Y186878D01*
X323022Y184877D01*
X324105Y182263D01*
X324105Y179886D01*
X324116Y179815D01*
X324118Y179744D01*
X324136Y179695D01*
X324144Y179643D01*
X324178Y179580D01*
X324203Y179513D01*
X324235Y179472D01*
X324260Y179426D01*
X324312Y179377D01*
X324356Y179321D01*
X324400Y179292D01*
X324438Y179257D01*
X324503Y179226D01*
X324563Y179188D01*
X324614Y179175D01*
X324661Y179153D01*
X324732Y179145D01*
X324802Y179128D01*
X324854Y179132D01*
X324905Y179126D01*
X324976Y179141D01*
X325047Y179147D01*
X325095Y179167D01*
X325146Y179178D01*
X325207Y179215D01*
X325273Y179243D01*
X325329Y179288D01*
X325357Y179304D01*
X325372Y179322D01*
X325404Y179348D01*
X332008Y185952D01*
X332061Y186026D01*
X332121Y186095D01*
X332133Y186125D01*
X332152Y186152D01*
X332179Y186239D01*
X332213Y186323D01*
X332217Y186364D01*
X332224Y186387D01*
X332223Y186419D01*
X332231Y186490D01*
X332231Y196335D01*
X332462Y196566D01*
X332474Y196582D01*
X332489Y196594D01*
X332518Y196639D01*
X332548Y196670D01*
X332567Y196711D01*
X332606Y196765D01*
X332612Y196784D01*
X332622Y196801D01*
X332639Y196866D01*
X332651Y196893D01*
X332655Y196925D01*
X332678Y197001D01*
X332678Y197021D01*
X332682Y197040D01*
X332676Y197119D01*
X332678Y197138D01*
X332674Y197157D01*
X332672Y197246D01*
X332665Y197265D01*
X332663Y197285D01*
X332628Y197367D01*
X332626Y197378D01*
X332620Y197388D01*
X332587Y197477D01*
X332575Y197493D01*
X332567Y197511D01*
X332462Y197642D01*
X332231Y197873D01*
X332231Y200530D01*
X332224Y200575D01*
X332226Y200621D01*
X332204Y200696D01*
X332192Y200773D01*
X332170Y200813D01*
X332157Y200857D01*
X332113Y200921D01*
X332076Y200990D01*
X332043Y201022D01*
X332017Y201059D01*
X331954Y201106D01*
X331898Y201159D01*
X331856Y201179D01*
X331820Y201206D01*
X331746Y201230D01*
X331675Y201263D01*
X331629Y201268D01*
X331586Y201282D01*
X331508Y201282D01*
X331431Y201290D01*
X331386Y201280D01*
X331340Y201280D01*
X331208Y201242D01*
X331190Y201238D01*
X331186Y201235D01*
X331179Y201233D01*
X328567Y200151D01*
X325737Y200151D01*
X323123Y201234D01*
X321122Y203235D01*
X320911Y203745D01*
X320849Y203845D01*
X320789Y203945D01*
X320784Y203949D01*
X320781Y203954D01*
X320691Y204029D01*
X320602Y204105D01*
X320596Y204107D01*
X320592Y204111D01*
X320483Y204153D01*
X320374Y204197D01*
X320367Y204198D01*
X320362Y204199D01*
X320344Y204200D01*
X320207Y204215D01*
X244478Y204215D01*
X244433Y204208D01*
X244387Y204210D01*
X244312Y204188D01*
X244235Y204176D01*
X244195Y204154D01*
X244151Y204141D01*
X244087Y204097D01*
X244018Y204060D01*
X243986Y204027D01*
X243949Y204001D01*
X243902Y203938D01*
X243849Y203882D01*
X243829Y203840D01*
X243802Y203804D01*
X243778Y203730D01*
X243745Y203659D01*
X243740Y203613D01*
X243726Y203570D01*
X243726Y203492D01*
X243718Y203415D01*
X243728Y203370D01*
X243728Y203324D01*
X243766Y203192D01*
X243770Y203174D01*
X243773Y203170D01*
X243775Y203163D01*
X243985Y202655D01*
X244047Y202555D01*
X244107Y202455D01*
X244112Y202451D01*
X244115Y202446D01*
X244205Y202371D01*
X244294Y202295D01*
X244300Y202293D01*
X244304Y202289D01*
X244412Y202247D01*
X244522Y202203D01*
X244529Y202202D01*
X244534Y202201D01*
X244552Y202200D01*
X244689Y202185D01*
X265423Y202185D01*
X283757Y183850D01*
X283852Y183783D01*
X283946Y183712D01*
X283952Y183710D01*
X283957Y183707D01*
X284068Y183672D01*
X284180Y183636D01*
X284186Y183636D01*
X284192Y183634D01*
X284309Y183637D01*
X284426Y183639D01*
X284433Y183641D01*
X284438Y183641D01*
X284455Y183647D01*
X284587Y183685D01*
X285097Y183897D01*
X287927Y183897D01*
X290541Y182814D01*
X292542Y180813D01*
X293625Y178199D01*
X293625Y177854D01*
X293636Y177783D01*
X293638Y177712D01*
X293656Y177663D01*
X293664Y177611D01*
X293698Y177548D01*
X293723Y177481D01*
X293755Y177440D01*
X293780Y177394D01*
X293832Y177345D01*
X293876Y177289D01*
X293920Y177260D01*
X293958Y177225D01*
X294023Y177194D01*
X294083Y177156D01*
X294134Y177143D01*
X294181Y177121D01*
X294252Y177113D01*
X294322Y177096D01*
X294374Y177100D01*
X294425Y177094D01*
X294496Y177109D01*
G37*
%LPC*%
G36*
X482599Y233899D02*
X482599Y233899D01*
X482599Y234662D01*
X482596Y234682D01*
X482598Y234701D01*
X482576Y234803D01*
X482559Y234905D01*
X482550Y234922D01*
X482546Y234942D01*
X482493Y235031D01*
X482444Y235122D01*
X482430Y235136D01*
X482420Y235153D01*
X482341Y235220D01*
X482266Y235291D01*
X482248Y235300D01*
X482233Y235313D01*
X482137Y235352D01*
X482043Y235395D01*
X482023Y235397D01*
X482005Y235405D01*
X481838Y235423D01*
X469059Y235423D01*
X469059Y239485D01*
X469106Y239659D01*
X469118Y239777D01*
X469131Y239895D01*
X469130Y239900D01*
X469130Y239904D01*
X469104Y240018D01*
X469079Y240136D01*
X469077Y240139D01*
X469076Y240143D01*
X469014Y240245D01*
X468953Y240347D01*
X468949Y240350D01*
X468947Y240353D01*
X468856Y240430D01*
X468766Y240507D01*
X468762Y240508D01*
X468759Y240511D01*
X468648Y240554D01*
X468537Y240599D01*
X468533Y240599D01*
X468529Y240601D01*
X468516Y240601D01*
X468371Y240617D01*
X462508Y240617D01*
X461317Y241808D01*
X461317Y242062D01*
X461314Y242082D01*
X461316Y242101D01*
X461294Y242203D01*
X461278Y242305D01*
X461268Y242322D01*
X461264Y242342D01*
X461211Y242431D01*
X461162Y242522D01*
X461148Y242536D01*
X461138Y242553D01*
X461059Y242620D01*
X460984Y242692D01*
X460966Y242700D01*
X460951Y242713D01*
X460855Y242752D01*
X460761Y242795D01*
X460741Y242797D01*
X460723Y242805D01*
X460556Y242823D01*
X455382Y242823D01*
X455267Y242804D01*
X455151Y242787D01*
X455145Y242785D01*
X455139Y242784D01*
X455037Y242729D01*
X454932Y242676D01*
X454927Y242671D01*
X454922Y242668D01*
X454842Y242584D01*
X454759Y242500D01*
X454756Y242494D01*
X454752Y242490D01*
X454745Y242473D01*
X454679Y242353D01*
X454190Y241175D01*
X450975Y237960D01*
X446774Y236219D01*
X442226Y236219D01*
X438025Y237960D01*
X434810Y241175D01*
X433069Y245376D01*
X433069Y249924D01*
X434810Y254125D01*
X438025Y257340D01*
X442226Y259081D01*
X446774Y259081D01*
X450975Y257340D01*
X454190Y254125D01*
X455931Y249924D01*
X455931Y249736D01*
X455945Y249646D01*
X455953Y249555D01*
X455965Y249525D01*
X455970Y249493D01*
X456013Y249413D01*
X456049Y249329D01*
X456075Y249297D01*
X456086Y249276D01*
X456109Y249254D01*
X456154Y249198D01*
X456208Y249144D01*
X456282Y249090D01*
X456351Y249031D01*
X456381Y249019D01*
X456408Y249000D01*
X456495Y248973D01*
X456579Y248939D01*
X456621Y248935D01*
X456643Y248928D01*
X456675Y248929D01*
X456746Y248921D01*
X460556Y248921D01*
X460576Y248924D01*
X460595Y248922D01*
X460697Y248944D01*
X460799Y248960D01*
X460816Y248970D01*
X460836Y248974D01*
X460925Y249027D01*
X461016Y249076D01*
X461030Y249090D01*
X461047Y249100D01*
X461114Y249179D01*
X461186Y249254D01*
X461194Y249272D01*
X461207Y249287D01*
X461246Y249383D01*
X461289Y249477D01*
X461291Y249497D01*
X461299Y249515D01*
X461317Y249682D01*
X461317Y253492D01*
X462508Y254683D01*
X468371Y254683D01*
X468486Y254702D01*
X468606Y254720D01*
X468609Y254722D01*
X468613Y254722D01*
X468717Y254777D01*
X468824Y254833D01*
X468827Y254836D01*
X468831Y254838D01*
X468913Y254924D01*
X468996Y255009D01*
X468997Y255013D01*
X469000Y255016D01*
X469051Y255124D01*
X469102Y255231D01*
X469102Y255235D01*
X469104Y255239D01*
X469117Y255358D01*
X469131Y255475D01*
X469131Y255480D01*
X469131Y255483D01*
X469128Y255497D01*
X469106Y255641D01*
X469059Y255815D01*
X469059Y259877D01*
X481838Y259877D01*
X481858Y259880D01*
X481877Y259878D01*
X481979Y259900D01*
X482081Y259917D01*
X482098Y259926D01*
X482118Y259930D01*
X482207Y259983D01*
X482298Y260032D01*
X482312Y260046D01*
X482329Y260056D01*
X482396Y260135D01*
X482467Y260210D01*
X482476Y260228D01*
X482489Y260243D01*
X482528Y260339D01*
X482571Y260433D01*
X482573Y260453D01*
X482581Y260471D01*
X482599Y260638D01*
X482599Y261401D01*
X482601Y261401D01*
X482601Y260638D01*
X482604Y260618D01*
X482602Y260599D01*
X482624Y260497D01*
X482641Y260395D01*
X482650Y260378D01*
X482654Y260358D01*
X482707Y260269D01*
X482756Y260178D01*
X482770Y260164D01*
X482780Y260147D01*
X482859Y260080D01*
X482934Y260009D01*
X482952Y260000D01*
X482967Y259987D01*
X483063Y259948D01*
X483157Y259905D01*
X483177Y259903D01*
X483195Y259895D01*
X483362Y259877D01*
X496141Y259877D01*
X496141Y255816D01*
X495968Y255169D01*
X495633Y254590D01*
X495160Y254117D01*
X494581Y253782D01*
X493934Y253609D01*
X492252Y253609D01*
X492232Y253606D01*
X492213Y253608D01*
X492111Y253586D01*
X492009Y253570D01*
X491992Y253560D01*
X491972Y253556D01*
X491883Y253503D01*
X491792Y253454D01*
X491778Y253440D01*
X491761Y253430D01*
X491694Y253351D01*
X491622Y253276D01*
X491614Y253258D01*
X491601Y253243D01*
X491562Y253147D01*
X491519Y253053D01*
X491517Y253033D01*
X491509Y253015D01*
X491491Y252848D01*
X491491Y242452D01*
X491494Y242432D01*
X491492Y242413D01*
X491514Y242311D01*
X491530Y242209D01*
X491540Y242192D01*
X491544Y242172D01*
X491597Y242083D01*
X491646Y241992D01*
X491660Y241978D01*
X491670Y241961D01*
X491749Y241894D01*
X491824Y241822D01*
X491842Y241814D01*
X491857Y241801D01*
X491953Y241762D01*
X492047Y241719D01*
X492067Y241717D01*
X492085Y241709D01*
X492252Y241691D01*
X493934Y241691D01*
X494581Y241518D01*
X495160Y241183D01*
X495633Y240710D01*
X495968Y240131D01*
X496141Y239484D01*
X496141Y235423D01*
X483362Y235423D01*
X483342Y235420D01*
X483323Y235422D01*
X483221Y235400D01*
X483119Y235383D01*
X483102Y235374D01*
X483082Y235370D01*
X482993Y235317D01*
X482902Y235268D01*
X482888Y235254D01*
X482871Y235244D01*
X482804Y235165D01*
X482733Y235090D01*
X482724Y235072D01*
X482711Y235057D01*
X482672Y234961D01*
X482629Y234867D01*
X482627Y234847D01*
X482619Y234829D01*
X482601Y234662D01*
X482601Y233899D01*
X482599Y233899D01*
G37*
%LPD*%
G36*
X282304Y164917D02*
X282304Y164917D01*
X282375Y164923D01*
X282423Y164943D01*
X282474Y164954D01*
X282535Y164991D01*
X282601Y165019D01*
X282657Y165064D01*
X282685Y165080D01*
X282700Y165098D01*
X282732Y165124D01*
X285980Y168372D01*
X286022Y168430D01*
X286071Y168482D01*
X286093Y168529D01*
X286124Y168571D01*
X286145Y168640D01*
X286175Y168705D01*
X286181Y168757D01*
X286196Y168807D01*
X286194Y168878D01*
X286202Y168949D01*
X286191Y169000D01*
X286190Y169052D01*
X286165Y169120D01*
X286150Y169190D01*
X286123Y169234D01*
X286105Y169283D01*
X286060Y169339D01*
X286024Y169401D01*
X285984Y169435D01*
X285952Y169475D01*
X285891Y169514D01*
X285837Y169561D01*
X285788Y169580D01*
X285745Y169608D01*
X285675Y169626D01*
X285609Y169653D01*
X285537Y169661D01*
X285506Y169669D01*
X285483Y169667D01*
X285442Y169671D01*
X285097Y169671D01*
X282483Y170754D01*
X280482Y172755D01*
X279399Y175369D01*
X279399Y178199D01*
X279611Y178709D01*
X279637Y178822D01*
X279666Y178936D01*
X279665Y178943D01*
X279667Y178949D01*
X279656Y179065D01*
X279647Y179181D01*
X279644Y179187D01*
X279644Y179193D01*
X279596Y179301D01*
X279550Y179408D01*
X279546Y179414D01*
X279544Y179418D01*
X279531Y179432D01*
X279446Y179539D01*
X263120Y195864D01*
X263046Y195917D01*
X262977Y195977D01*
X262947Y195989D01*
X262920Y196008D01*
X262833Y196035D01*
X262749Y196069D01*
X262708Y196073D01*
X262685Y196080D01*
X262653Y196079D01*
X262582Y196087D01*
X244689Y196087D01*
X244574Y196068D01*
X244458Y196051D01*
X244452Y196049D01*
X244446Y196048D01*
X244344Y195993D01*
X244238Y195940D01*
X244234Y195935D01*
X244228Y195932D01*
X244149Y195848D01*
X244066Y195764D01*
X244063Y195758D01*
X244059Y195754D01*
X244051Y195737D01*
X243985Y195617D01*
X243774Y195107D01*
X241773Y193106D01*
X239159Y192023D01*
X236329Y192023D01*
X233717Y193105D01*
X233673Y193116D01*
X233631Y193135D01*
X233554Y193144D01*
X233478Y193161D01*
X233432Y193157D01*
X233387Y193162D01*
X233310Y193146D01*
X233233Y193138D01*
X233191Y193120D01*
X233146Y193110D01*
X233079Y193070D01*
X233008Y193038D01*
X232974Y193007D01*
X232935Y192984D01*
X232884Y192925D01*
X232827Y192872D01*
X232805Y192832D01*
X232775Y192797D01*
X232746Y192725D01*
X232709Y192656D01*
X232700Y192611D01*
X232683Y192569D01*
X232668Y192433D01*
X232665Y192414D01*
X232666Y192409D01*
X232665Y192402D01*
X232665Y189593D01*
X231582Y186979D01*
X229581Y184978D01*
X226967Y183895D01*
X226622Y183895D01*
X226551Y183884D01*
X226480Y183882D01*
X226431Y183864D01*
X226379Y183856D01*
X226316Y183822D01*
X226249Y183797D01*
X226208Y183765D01*
X226162Y183740D01*
X226113Y183688D01*
X226057Y183644D01*
X226028Y183600D01*
X225993Y183562D01*
X225962Y183497D01*
X225924Y183437D01*
X225911Y183386D01*
X225889Y183339D01*
X225881Y183268D01*
X225864Y183198D01*
X225868Y183146D01*
X225862Y183095D01*
X225877Y183024D01*
X225883Y182953D01*
X225903Y182905D01*
X225914Y182854D01*
X225951Y182793D01*
X225979Y182727D01*
X226024Y182671D01*
X226040Y182643D01*
X226058Y182628D01*
X226084Y182596D01*
X240816Y167864D01*
X240890Y167811D01*
X240959Y167751D01*
X240989Y167739D01*
X241016Y167720D01*
X241103Y167693D01*
X241187Y167659D01*
X241228Y167655D01*
X241251Y167648D01*
X241283Y167649D01*
X241354Y167641D01*
X267375Y167641D01*
X267490Y167660D01*
X267606Y167677D01*
X267612Y167679D01*
X267618Y167680D01*
X267720Y167735D01*
X267826Y167788D01*
X267830Y167793D01*
X267836Y167796D01*
X267915Y167880D01*
X267998Y167964D01*
X268001Y167970D01*
X268005Y167974D01*
X268013Y167991D01*
X268079Y168111D01*
X268290Y168621D01*
X270291Y170622D01*
X272905Y171705D01*
X275735Y171705D01*
X278349Y170622D01*
X280350Y168621D01*
X281433Y166007D01*
X281433Y165662D01*
X281444Y165591D01*
X281446Y165520D01*
X281464Y165471D01*
X281472Y165419D01*
X281506Y165356D01*
X281531Y165289D01*
X281563Y165248D01*
X281588Y165202D01*
X281639Y165153D01*
X281684Y165097D01*
X281728Y165068D01*
X281766Y165033D01*
X281831Y165002D01*
X281891Y164964D01*
X281942Y164951D01*
X281989Y164929D01*
X282060Y164921D01*
X282130Y164904D01*
X282182Y164908D01*
X282233Y164902D01*
X282304Y164917D01*
G37*
%LPC*%
G36*
X264777Y218439D02*
X264777Y218439D01*
X262163Y219522D01*
X260162Y221523D01*
X259079Y224137D01*
X259079Y226967D01*
X260162Y229581D01*
X262163Y231582D01*
X264777Y232665D01*
X267607Y232665D01*
X270221Y231582D01*
X272222Y229581D01*
X272433Y229071D01*
X272495Y228971D01*
X272555Y228871D01*
X272560Y228867D01*
X272563Y228862D01*
X272653Y228787D01*
X272742Y228711D01*
X272748Y228709D01*
X272752Y228705D01*
X272861Y228663D01*
X272970Y228619D01*
X272977Y228618D01*
X272982Y228617D01*
X273000Y228616D01*
X273137Y228601D01*
X323542Y228601D01*
X323632Y228615D01*
X323723Y228623D01*
X323753Y228635D01*
X323785Y228640D01*
X323865Y228683D01*
X323949Y228719D01*
X323981Y228745D01*
X324002Y228756D01*
X324024Y228779D01*
X324080Y228824D01*
X350984Y255727D01*
X351051Y255821D01*
X351122Y255916D01*
X351124Y255922D01*
X351127Y255927D01*
X351161Y256038D01*
X351198Y256150D01*
X351198Y256156D01*
X351200Y256162D01*
X351197Y256279D01*
X351195Y256396D01*
X351193Y256403D01*
X351193Y256408D01*
X351187Y256425D01*
X351149Y256557D01*
X350519Y258076D01*
X350519Y262624D01*
X352260Y266825D01*
X355475Y270040D01*
X359676Y271781D01*
X364224Y271781D01*
X368425Y270040D01*
X371640Y266825D01*
X373381Y262624D01*
X373381Y258076D01*
X371640Y253875D01*
X368425Y250660D01*
X364224Y248919D01*
X359676Y248919D01*
X355410Y250686D01*
X355346Y250733D01*
X355327Y250739D01*
X355310Y250749D01*
X355210Y250775D01*
X355111Y250805D01*
X355091Y250805D01*
X355071Y250809D01*
X354969Y250801D01*
X354865Y250799D01*
X354846Y250792D01*
X354826Y250790D01*
X354731Y250750D01*
X354634Y250714D01*
X354618Y250702D01*
X354600Y250694D01*
X354469Y250589D01*
X326383Y222503D01*
X273137Y222503D01*
X273022Y222484D01*
X272906Y222467D01*
X272900Y222465D01*
X272894Y222464D01*
X272792Y222409D01*
X272686Y222356D01*
X272682Y222351D01*
X272676Y222348D01*
X272597Y222264D01*
X272514Y222180D01*
X272511Y222174D01*
X272507Y222170D01*
X272499Y222153D01*
X272433Y222033D01*
X272222Y221523D01*
X270221Y219522D01*
X267607Y218439D01*
X264777Y218439D01*
G37*
%LPD*%
G36*
X372226Y64012D02*
X372226Y64012D01*
X372245Y64010D01*
X372347Y64032D01*
X372449Y64048D01*
X372466Y64058D01*
X372486Y64062D01*
X372575Y64115D01*
X372666Y64164D01*
X372680Y64178D01*
X372697Y64188D01*
X372764Y64267D01*
X372836Y64342D01*
X372844Y64360D01*
X372857Y64375D01*
X372896Y64471D01*
X372939Y64565D01*
X372941Y64585D01*
X372949Y64603D01*
X372967Y64770D01*
X372967Y65692D01*
X374158Y66883D01*
X387842Y66883D01*
X389253Y65472D01*
X389284Y65433D01*
X389328Y65404D01*
X389366Y65369D01*
X389431Y65338D01*
X389491Y65300D01*
X389542Y65287D01*
X389589Y65265D01*
X389660Y65257D01*
X389730Y65240D01*
X389782Y65244D01*
X389833Y65238D01*
X389904Y65253D01*
X389975Y65259D01*
X390023Y65279D01*
X390074Y65290D01*
X390135Y65327D01*
X390201Y65355D01*
X390257Y65400D01*
X390285Y65416D01*
X390300Y65434D01*
X390332Y65460D01*
X392968Y68096D01*
X393021Y68170D01*
X393081Y68239D01*
X393093Y68269D01*
X393112Y68296D01*
X393139Y68383D01*
X393173Y68467D01*
X393177Y68508D01*
X393184Y68531D01*
X393183Y68563D01*
X393191Y68634D01*
X393191Y83766D01*
X393177Y83856D01*
X393169Y83947D01*
X393157Y83977D01*
X393152Y84009D01*
X393127Y84054D01*
X393127Y130946D01*
X393116Y131017D01*
X393114Y131088D01*
X393096Y131137D01*
X393088Y131189D01*
X393054Y131252D01*
X393029Y131319D01*
X392997Y131360D01*
X392972Y131406D01*
X392920Y131455D01*
X392876Y131511D01*
X392832Y131540D01*
X392794Y131575D01*
X392729Y131606D01*
X392669Y131644D01*
X392618Y131657D01*
X392571Y131679D01*
X392500Y131687D01*
X392430Y131704D01*
X392378Y131700D01*
X392327Y131706D01*
X392256Y131691D01*
X392185Y131685D01*
X392137Y131665D01*
X392086Y131654D01*
X392025Y131617D01*
X391959Y131589D01*
X391903Y131544D01*
X391875Y131528D01*
X391860Y131510D01*
X391828Y131484D01*
X383256Y122912D01*
X383203Y122838D01*
X383143Y122769D01*
X383131Y122739D01*
X383112Y122712D01*
X383085Y122625D01*
X383051Y122541D01*
X383047Y122500D01*
X383040Y122477D01*
X383041Y122445D01*
X383033Y122374D01*
X383033Y117290D01*
X379156Y113413D01*
X379103Y113339D01*
X379043Y113270D01*
X379031Y113240D01*
X379012Y113214D01*
X378985Y113127D01*
X378951Y113042D01*
X378947Y113001D01*
X378940Y112979D01*
X378941Y112946D01*
X378933Y112875D01*
X378933Y92522D01*
X375128Y88717D01*
X375075Y88643D01*
X375015Y88573D01*
X375003Y88543D01*
X374984Y88517D01*
X374957Y88430D01*
X374923Y88345D01*
X374919Y88304D01*
X374912Y88282D01*
X374913Y88250D01*
X374905Y88178D01*
X374905Y86152D01*
X374908Y86132D01*
X374906Y86113D01*
X374928Y86011D01*
X374944Y85909D01*
X374954Y85892D01*
X374958Y85872D01*
X375011Y85783D01*
X375060Y85692D01*
X375074Y85678D01*
X375084Y85661D01*
X375163Y85594D01*
X375238Y85522D01*
X375256Y85514D01*
X375271Y85501D01*
X375367Y85462D01*
X375461Y85419D01*
X375481Y85417D01*
X375499Y85409D01*
X375666Y85391D01*
X379477Y85391D01*
X379477Y80373D01*
X372192Y80373D01*
X372164Y80392D01*
X372126Y80427D01*
X372061Y80458D01*
X372001Y80496D01*
X371950Y80509D01*
X371903Y80531D01*
X371832Y80539D01*
X371762Y80556D01*
X371710Y80552D01*
X371659Y80558D01*
X371588Y80543D01*
X371517Y80537D01*
X371469Y80517D01*
X371418Y80506D01*
X371357Y80469D01*
X371291Y80441D01*
X371235Y80396D01*
X371207Y80380D01*
X371192Y80362D01*
X371160Y80336D01*
X358872Y68048D01*
X357437Y66614D01*
X357426Y66598D01*
X357410Y66585D01*
X357354Y66498D01*
X357294Y66414D01*
X357288Y66395D01*
X357277Y66378D01*
X357252Y66278D01*
X357222Y66179D01*
X357222Y66159D01*
X357217Y66140D01*
X357225Y66036D01*
X357228Y65933D01*
X357235Y65914D01*
X357236Y65894D01*
X357277Y65800D01*
X357283Y65783D01*
X357283Y64770D01*
X357286Y64750D01*
X357284Y64731D01*
X357306Y64629D01*
X357322Y64527D01*
X357332Y64510D01*
X357336Y64490D01*
X357389Y64401D01*
X357438Y64310D01*
X357452Y64296D01*
X357462Y64279D01*
X357541Y64212D01*
X357616Y64140D01*
X357634Y64132D01*
X357649Y64119D01*
X357745Y64080D01*
X357839Y64037D01*
X357859Y64035D01*
X357877Y64027D01*
X358044Y64009D01*
X372206Y64009D01*
X372226Y64012D01*
G37*
%LPC*%
G36*
X279001Y232663D02*
X279001Y232663D01*
X276387Y233746D01*
X274386Y235747D01*
X273303Y238361D01*
X273303Y241191D01*
X274386Y243805D01*
X276387Y245806D01*
X279001Y246889D01*
X281831Y246889D01*
X284445Y245806D01*
X286446Y243805D01*
X286657Y243295D01*
X286719Y243195D01*
X286779Y243095D01*
X286784Y243091D01*
X286787Y243086D01*
X286877Y243011D01*
X286966Y242935D01*
X286972Y242933D01*
X286976Y242929D01*
X287085Y242887D01*
X287194Y242843D01*
X287201Y242842D01*
X287206Y242841D01*
X287224Y242840D01*
X287361Y242825D01*
X317446Y242825D01*
X317536Y242839D01*
X317627Y242847D01*
X317657Y242859D01*
X317689Y242864D01*
X317769Y242907D01*
X317853Y242943D01*
X317885Y242969D01*
X317906Y242980D01*
X317928Y243003D01*
X317984Y243048D01*
X327297Y252361D01*
X327309Y252377D01*
X327324Y252389D01*
X327380Y252476D01*
X327441Y252560D01*
X327447Y252580D01*
X327457Y252596D01*
X327483Y252697D01*
X327513Y252796D01*
X327513Y252816D01*
X327517Y252835D01*
X327509Y252938D01*
X327507Y253041D01*
X327500Y253060D01*
X327498Y253080D01*
X327458Y253175D01*
X327422Y253272D01*
X327410Y253288D01*
X327402Y253306D01*
X327297Y253437D01*
X326859Y253875D01*
X325119Y258076D01*
X325119Y262624D01*
X326860Y266825D01*
X330075Y270040D01*
X334276Y271781D01*
X338824Y271781D01*
X343025Y270040D01*
X346240Y266825D01*
X347981Y262624D01*
X347981Y258076D01*
X346240Y253875D01*
X343025Y250660D01*
X338824Y248919D01*
X334276Y248919D01*
X333475Y249251D01*
X333362Y249278D01*
X333248Y249306D01*
X333242Y249306D01*
X333236Y249307D01*
X333119Y249296D01*
X333003Y249287D01*
X332997Y249285D01*
X332991Y249284D01*
X332883Y249236D01*
X332777Y249191D01*
X332771Y249186D01*
X332766Y249184D01*
X332752Y249171D01*
X332646Y249086D01*
X320287Y236727D01*
X287361Y236727D01*
X287246Y236708D01*
X287130Y236691D01*
X287124Y236689D01*
X287118Y236688D01*
X287016Y236633D01*
X286910Y236580D01*
X286906Y236575D01*
X286900Y236572D01*
X286821Y236488D01*
X286738Y236404D01*
X286735Y236398D01*
X286731Y236394D01*
X286723Y236377D01*
X286657Y236257D01*
X286446Y235747D01*
X284445Y233746D01*
X281831Y232663D01*
X279001Y232663D01*
G37*
%LPD*%
%LPC*%
G36*
X385076Y248919D02*
X385076Y248919D01*
X380875Y250660D01*
X377660Y253875D01*
X375919Y258076D01*
X375919Y262624D01*
X377660Y266825D01*
X380875Y270040D01*
X385076Y271781D01*
X389624Y271781D01*
X393825Y270040D01*
X397040Y266825D01*
X398781Y262624D01*
X398781Y258076D01*
X397040Y253875D01*
X393825Y250660D01*
X389624Y248919D01*
X385076Y248919D01*
G37*
%LPD*%
%LPC*%
G36*
X283476Y248919D02*
X283476Y248919D01*
X279275Y250660D01*
X276060Y253875D01*
X274319Y258076D01*
X274319Y262624D01*
X276060Y266825D01*
X279275Y270040D01*
X283476Y271781D01*
X288024Y271781D01*
X292225Y270040D01*
X295440Y266825D01*
X297181Y262624D01*
X297181Y258076D01*
X295440Y253875D01*
X292225Y250660D01*
X288024Y248919D01*
X283476Y248919D01*
G37*
%LPD*%
%LPC*%
G36*
X156476Y248919D02*
X156476Y248919D01*
X152275Y250660D01*
X149060Y253875D01*
X147319Y258076D01*
X147319Y262624D01*
X149060Y266825D01*
X152275Y270040D01*
X156476Y271781D01*
X161024Y271781D01*
X165225Y270040D01*
X168440Y266825D01*
X170181Y262624D01*
X170181Y258076D01*
X168440Y253875D01*
X165225Y250660D01*
X161024Y248919D01*
X156476Y248919D01*
G37*
%LPD*%
%LPC*%
G36*
X80276Y248919D02*
X80276Y248919D01*
X76075Y250660D01*
X72860Y253875D01*
X71119Y258076D01*
X71119Y262624D01*
X72860Y266825D01*
X76075Y270040D01*
X80276Y271781D01*
X84824Y271781D01*
X89025Y270040D01*
X92240Y266825D01*
X93981Y262624D01*
X93981Y258076D01*
X92240Y253875D01*
X89025Y250660D01*
X84824Y248919D01*
X80276Y248919D01*
G37*
%LPD*%
%LPC*%
G36*
X308876Y248919D02*
X308876Y248919D01*
X304675Y250660D01*
X301460Y253875D01*
X299719Y258076D01*
X299719Y262624D01*
X301460Y266825D01*
X304675Y270040D01*
X308876Y271781D01*
X313424Y271781D01*
X317625Y270040D01*
X320840Y266825D01*
X322581Y262624D01*
X322581Y258076D01*
X320840Y253875D01*
X317625Y250660D01*
X313424Y248919D01*
X308876Y248919D01*
G37*
%LPD*%
%LPC*%
G36*
X410476Y248919D02*
X410476Y248919D01*
X406275Y250660D01*
X403060Y253875D01*
X401319Y258076D01*
X401319Y262624D01*
X403060Y266825D01*
X406275Y270040D01*
X410476Y271781D01*
X415024Y271781D01*
X419225Y270040D01*
X422440Y266825D01*
X424181Y262624D01*
X424181Y258076D01*
X422440Y253875D01*
X419225Y250660D01*
X415024Y248919D01*
X410476Y248919D01*
G37*
%LPD*%
%LPC*%
G36*
X258076Y248919D02*
X258076Y248919D01*
X253875Y250660D01*
X250660Y253875D01*
X248919Y258076D01*
X248919Y262624D01*
X250660Y266825D01*
X253875Y270040D01*
X258076Y271781D01*
X262624Y271781D01*
X266825Y270040D01*
X270040Y266825D01*
X271781Y262624D01*
X271781Y258076D01*
X270040Y253875D01*
X266825Y250660D01*
X262624Y248919D01*
X258076Y248919D01*
G37*
%LPD*%
%LPC*%
G36*
X105676Y7619D02*
X105676Y7619D01*
X101475Y9360D01*
X98260Y12575D01*
X96519Y16776D01*
X96519Y21324D01*
X98260Y25525D01*
X101475Y28740D01*
X105676Y30481D01*
X110224Y30481D01*
X114425Y28740D01*
X117640Y25525D01*
X119381Y21324D01*
X119381Y16776D01*
X117640Y12575D01*
X114425Y9360D01*
X110224Y7619D01*
X105676Y7619D01*
G37*
%LPD*%
%LPC*%
G36*
X80276Y7619D02*
X80276Y7619D01*
X76075Y9360D01*
X72860Y12575D01*
X71119Y16776D01*
X71119Y21324D01*
X72860Y25525D01*
X76075Y28740D01*
X80276Y30481D01*
X84824Y30481D01*
X89025Y28740D01*
X92240Y25525D01*
X93981Y21324D01*
X93981Y16776D01*
X92240Y12575D01*
X89025Y9360D01*
X84824Y7619D01*
X80276Y7619D01*
G37*
%LPD*%
%LPC*%
G36*
X232676Y7619D02*
X232676Y7619D01*
X228475Y9360D01*
X225260Y12575D01*
X223519Y16776D01*
X223519Y21324D01*
X225260Y25525D01*
X228475Y28740D01*
X232676Y30481D01*
X237224Y30481D01*
X241425Y28740D01*
X244640Y25525D01*
X246381Y21324D01*
X246381Y16776D01*
X244640Y12575D01*
X241425Y9360D01*
X237224Y7619D01*
X232676Y7619D01*
G37*
%LPD*%
%LPC*%
G36*
X385076Y7619D02*
X385076Y7619D01*
X380875Y9360D01*
X377660Y12575D01*
X375919Y16776D01*
X375919Y21324D01*
X377660Y25525D01*
X380875Y28740D01*
X385076Y30481D01*
X389624Y30481D01*
X393825Y28740D01*
X397040Y25525D01*
X398781Y21324D01*
X398781Y16776D01*
X397040Y12575D01*
X393825Y9360D01*
X389624Y7619D01*
X385076Y7619D01*
G37*
%LPD*%
%LPC*%
G36*
X476883Y81417D02*
X476883Y81417D01*
X475692Y82608D01*
X475692Y100802D01*
X476883Y101993D01*
X488567Y101993D01*
X489758Y100802D01*
X489758Y82608D01*
X488567Y81417D01*
X476883Y81417D01*
G37*
%LPD*%
%LPC*%
G36*
X480823Y185009D02*
X480823Y185009D01*
X478603Y185929D01*
X476904Y187628D01*
X475984Y189848D01*
X475984Y192252D01*
X476904Y194472D01*
X478603Y196171D01*
X480823Y197091D01*
X483227Y197091D01*
X485447Y196171D01*
X487146Y194472D01*
X488066Y192252D01*
X488066Y189848D01*
X487146Y187628D01*
X485447Y185929D01*
X483227Y185009D01*
X480823Y185009D01*
G37*
%LPD*%
%LPC*%
G36*
X480823Y27459D02*
X480823Y27459D01*
X478603Y28379D01*
X476904Y30078D01*
X475984Y32298D01*
X475984Y34702D01*
X476904Y36922D01*
X478603Y38621D01*
X480823Y39541D01*
X483227Y39541D01*
X485447Y38621D01*
X487146Y36922D01*
X488066Y34702D01*
X488066Y32298D01*
X487146Y30078D01*
X485447Y28379D01*
X483227Y27459D01*
X480823Y27459D01*
G37*
%LPD*%
%LPC*%
G36*
X160273Y20573D02*
X160273Y20573D01*
X160273Y30896D01*
X161546Y30695D01*
X163333Y30114D01*
X165007Y29261D01*
X166528Y28156D01*
X167856Y26828D01*
X168961Y25307D01*
X169814Y23633D01*
X170395Y21846D01*
X170596Y20573D01*
X160273Y20573D01*
G37*
%LPD*%
%LPC*%
G36*
X185673Y261873D02*
X185673Y261873D01*
X185673Y272196D01*
X186946Y271995D01*
X188733Y271414D01*
X190407Y270561D01*
X191928Y269456D01*
X193256Y268128D01*
X194361Y266607D01*
X195214Y264933D01*
X195795Y263146D01*
X195996Y261873D01*
X185673Y261873D01*
G37*
%LPD*%
%LPC*%
G36*
X160273Y17527D02*
X160273Y17527D01*
X170596Y17527D01*
X170395Y16254D01*
X169814Y14467D01*
X168961Y12793D01*
X167856Y11272D01*
X166528Y9944D01*
X165007Y8839D01*
X163333Y7986D01*
X161546Y7405D01*
X160273Y7204D01*
X160273Y17527D01*
G37*
%LPD*%
%LPC*%
G36*
X172304Y261873D02*
X172304Y261873D01*
X172505Y263146D01*
X173086Y264933D01*
X173939Y266607D01*
X175044Y268128D01*
X176372Y269456D01*
X177893Y270561D01*
X179567Y271414D01*
X181354Y271995D01*
X182627Y272196D01*
X182627Y261873D01*
X172304Y261873D01*
G37*
%LPD*%
%LPC*%
G36*
X146904Y20573D02*
X146904Y20573D01*
X147105Y21846D01*
X147686Y23633D01*
X148539Y25307D01*
X149644Y26828D01*
X150972Y28156D01*
X152493Y29261D01*
X154167Y30114D01*
X155954Y30695D01*
X157227Y30896D01*
X157227Y20573D01*
X146904Y20573D01*
G37*
%LPD*%
%LPC*%
G36*
X185673Y258827D02*
X185673Y258827D01*
X195996Y258827D01*
X195795Y257554D01*
X195214Y255767D01*
X194361Y254093D01*
X193256Y252572D01*
X191928Y251244D01*
X190407Y250139D01*
X188733Y249286D01*
X186946Y248705D01*
X185673Y248504D01*
X185673Y258827D01*
G37*
%LPD*%
%LPC*%
G36*
X181354Y248705D02*
X181354Y248705D01*
X179567Y249286D01*
X177893Y250139D01*
X176372Y251244D01*
X175044Y252572D01*
X173939Y254093D01*
X173086Y255767D01*
X172505Y257554D01*
X172304Y258827D01*
X182627Y258827D01*
X182627Y248504D01*
X181354Y248705D01*
G37*
%LPD*%
%LPC*%
G36*
X155954Y7405D02*
X155954Y7405D01*
X154167Y7986D01*
X152493Y8839D01*
X150972Y9944D01*
X149644Y11272D01*
X148539Y12793D01*
X147686Y14467D01*
X147105Y16254D01*
X146904Y17527D01*
X157227Y17527D01*
X157227Y7204D01*
X155954Y7405D01*
G37*
%LPD*%
%LPC*%
G36*
X484123Y262923D02*
X484123Y262923D01*
X484123Y269191D01*
X493934Y269191D01*
X494581Y269018D01*
X495160Y268683D01*
X495633Y268210D01*
X495968Y267631D01*
X496141Y266984D01*
X496141Y262923D01*
X484123Y262923D01*
G37*
%LPD*%
%LPC*%
G36*
X469059Y262923D02*
X469059Y262923D01*
X469059Y266984D01*
X469232Y267631D01*
X469567Y268210D01*
X470040Y268683D01*
X470619Y269018D01*
X471266Y269191D01*
X481077Y269191D01*
X481077Y262923D01*
X469059Y262923D01*
G37*
%LPD*%
%LPC*%
G36*
X484123Y226109D02*
X484123Y226109D01*
X484123Y232377D01*
X496141Y232377D01*
X496141Y228316D01*
X495968Y227669D01*
X495633Y227090D01*
X495160Y226617D01*
X494581Y226282D01*
X493934Y226109D01*
X484123Y226109D01*
G37*
%LPD*%
%LPC*%
G36*
X471266Y226109D02*
X471266Y226109D01*
X470619Y226282D01*
X470040Y226617D01*
X469567Y227090D01*
X469232Y227669D01*
X469059Y228316D01*
X469059Y232377D01*
X481077Y232377D01*
X481077Y226109D01*
X471266Y226109D01*
G37*
%LPD*%
%LPC*%
G36*
X478484Y15523D02*
X478484Y15523D01*
X478484Y19834D01*
X478657Y20481D01*
X478992Y21060D01*
X479465Y21533D01*
X480044Y21868D01*
X480691Y22041D01*
X489502Y22041D01*
X489502Y15523D01*
X478484Y15523D01*
G37*
%LPD*%
%LPC*%
G36*
X478484Y212073D02*
X478484Y212073D01*
X478484Y216384D01*
X478657Y217031D01*
X478992Y217610D01*
X479465Y218083D01*
X480044Y218418D01*
X480691Y218591D01*
X489502Y218591D01*
X489502Y212073D01*
X478484Y212073D01*
G37*
%LPD*%
%LPC*%
G36*
X480691Y202509D02*
X480691Y202509D01*
X480044Y202682D01*
X479465Y203017D01*
X478992Y203490D01*
X478657Y204069D01*
X478484Y204716D01*
X478484Y209027D01*
X489502Y209027D01*
X489502Y202509D01*
X480691Y202509D01*
G37*
%LPD*%
%LPC*%
G36*
X480691Y5959D02*
X480691Y5959D01*
X480044Y6132D01*
X479465Y6467D01*
X478992Y6940D01*
X478657Y7519D01*
X478484Y8166D01*
X478484Y12477D01*
X489502Y12477D01*
X489502Y5959D01*
X480691Y5959D01*
G37*
%LPD*%
%LPC*%
G36*
X484248Y144768D02*
X484248Y144768D01*
X484248Y154041D01*
X488060Y154041D01*
X488706Y153868D01*
X489285Y153533D01*
X489758Y153060D01*
X490093Y152481D01*
X490266Y151834D01*
X490266Y144768D01*
X484248Y144768D01*
G37*
%LPD*%
%LPC*%
G36*
X484248Y132449D02*
X484248Y132449D01*
X484248Y141722D01*
X490266Y141722D01*
X490266Y134656D01*
X490093Y134009D01*
X489758Y133430D01*
X489285Y132957D01*
X488706Y132622D01*
X488059Y132449D01*
X484248Y132449D01*
G37*
%LPD*%
%LPC*%
G36*
X475184Y144768D02*
X475184Y144768D01*
X475184Y151834D01*
X475357Y152481D01*
X475692Y153060D01*
X476165Y153533D01*
X476744Y153868D01*
X477391Y154041D01*
X481202Y154041D01*
X481202Y144768D01*
X475184Y144768D01*
G37*
%LPD*%
%LPC*%
G36*
X477391Y132449D02*
X477391Y132449D01*
X476744Y132622D01*
X476165Y132957D01*
X475692Y133430D01*
X475357Y134009D01*
X475184Y134656D01*
X475184Y141722D01*
X481202Y141722D01*
X481202Y132449D01*
X477391Y132449D01*
G37*
%LPD*%
%LPC*%
G36*
X348123Y138048D02*
X348123Y138048D01*
X348123Y145066D01*
X350934Y145066D01*
X351581Y144893D01*
X352160Y144558D01*
X352633Y144085D01*
X352968Y143506D01*
X353141Y142859D01*
X353141Y138048D01*
X348123Y138048D01*
G37*
%LPD*%
%LPC*%
G36*
X348123Y109473D02*
X348123Y109473D01*
X348123Y116491D01*
X350934Y116491D01*
X351581Y116318D01*
X352160Y115983D01*
X352633Y115510D01*
X352968Y114931D01*
X353141Y114284D01*
X353141Y109473D01*
X348123Y109473D01*
G37*
%LPD*%
%LPC*%
G36*
X112123Y160273D02*
X112123Y160273D01*
X112123Y167291D01*
X114934Y167291D01*
X115581Y167118D01*
X116160Y166783D01*
X116633Y166310D01*
X116968Y165731D01*
X117141Y165084D01*
X117141Y160273D01*
X112123Y160273D01*
G37*
%LPD*%
%LPC*%
G36*
X382523Y80373D02*
X382523Y80373D01*
X382523Y85391D01*
X387334Y85391D01*
X387981Y85218D01*
X388560Y84883D01*
X389033Y84410D01*
X389368Y83831D01*
X389541Y83184D01*
X389541Y80373D01*
X382523Y80373D01*
G37*
%LPD*%
%LPC*%
G36*
X112123Y192023D02*
X112123Y192023D01*
X112123Y199041D01*
X114934Y199041D01*
X115581Y198868D01*
X116160Y198533D01*
X116633Y198060D01*
X116968Y197481D01*
X117141Y196834D01*
X117141Y192023D01*
X112123Y192023D01*
G37*
%LPD*%
%LPC*%
G36*
X382523Y195723D02*
X382523Y195723D01*
X382523Y200741D01*
X387334Y200741D01*
X387981Y200568D01*
X388560Y200233D01*
X389033Y199760D01*
X389368Y199181D01*
X389541Y198534D01*
X389541Y195723D01*
X382523Y195723D01*
G37*
%LPD*%
%LPC*%
G36*
X112123Y181959D02*
X112123Y181959D01*
X112123Y188977D01*
X117141Y188977D01*
X117141Y184166D01*
X116968Y183519D01*
X116633Y182940D01*
X116160Y182467D01*
X115581Y182132D01*
X114934Y181959D01*
X112123Y181959D01*
G37*
%LPD*%
%LPC*%
G36*
X112123Y150209D02*
X112123Y150209D01*
X112123Y157227D01*
X117141Y157227D01*
X117141Y152416D01*
X116968Y151769D01*
X116633Y151190D01*
X116160Y150717D01*
X115581Y150382D01*
X114934Y150209D01*
X112123Y150209D01*
G37*
%LPD*%
%LPC*%
G36*
X308973Y127984D02*
X308973Y127984D01*
X308973Y135002D01*
X313991Y135002D01*
X313991Y130191D01*
X313818Y129544D01*
X313483Y128965D01*
X313010Y128492D01*
X312431Y128157D01*
X311784Y127984D01*
X308973Y127984D01*
G37*
%LPD*%
%LPC*%
G36*
X348123Y127984D02*
X348123Y127984D01*
X348123Y135002D01*
X353141Y135002D01*
X353141Y130191D01*
X352968Y129544D01*
X352633Y128965D01*
X352160Y128492D01*
X351581Y128157D01*
X350934Y127984D01*
X348123Y127984D01*
G37*
%LPD*%
%LPC*%
G36*
X348123Y99409D02*
X348123Y99409D01*
X348123Y106427D01*
X353141Y106427D01*
X353141Y101616D01*
X352968Y100969D01*
X352633Y100390D01*
X352160Y99917D01*
X351581Y99582D01*
X350934Y99409D01*
X348123Y99409D01*
G37*
%LPD*%
%LPC*%
G36*
X372459Y195723D02*
X372459Y195723D01*
X372459Y198534D01*
X372632Y199181D01*
X372967Y199760D01*
X373440Y200233D01*
X374019Y200568D01*
X374666Y200741D01*
X379477Y200741D01*
X379477Y195723D01*
X372459Y195723D01*
G37*
%LPD*%
%LPC*%
G36*
X340059Y138048D02*
X340059Y138048D01*
X340059Y142859D01*
X340232Y143506D01*
X340567Y144085D01*
X341040Y144558D01*
X341619Y144893D01*
X342266Y145066D01*
X345077Y145066D01*
X345077Y138048D01*
X340059Y138048D01*
G37*
%LPD*%
%LPC*%
G36*
X340059Y109473D02*
X340059Y109473D01*
X340059Y114284D01*
X340232Y114931D01*
X340567Y115510D01*
X341040Y115983D01*
X341619Y116318D01*
X342266Y116491D01*
X345077Y116491D01*
X345077Y109473D01*
X340059Y109473D01*
G37*
%LPD*%
%LPC*%
G36*
X104059Y160273D02*
X104059Y160273D01*
X104059Y165084D01*
X104232Y165731D01*
X104567Y166310D01*
X105040Y166783D01*
X105619Y167118D01*
X106266Y167291D01*
X109077Y167291D01*
X109077Y160273D01*
X104059Y160273D01*
G37*
%LPD*%
%LPC*%
G36*
X407923Y116759D02*
X407923Y116759D01*
X407923Y121777D01*
X414941Y121777D01*
X414941Y118966D01*
X414768Y118319D01*
X414433Y117740D01*
X413960Y117267D01*
X413381Y116932D01*
X412734Y116759D01*
X407923Y116759D01*
G37*
%LPD*%
%LPC*%
G36*
X382523Y72309D02*
X382523Y72309D01*
X382523Y77327D01*
X389541Y77327D01*
X389541Y74516D01*
X389368Y73869D01*
X389033Y73290D01*
X388560Y72817D01*
X387981Y72482D01*
X387334Y72309D01*
X382523Y72309D01*
G37*
%LPD*%
%LPC*%
G36*
X382523Y187659D02*
X382523Y187659D01*
X382523Y192677D01*
X389541Y192677D01*
X389541Y189866D01*
X389368Y189219D01*
X389033Y188640D01*
X388560Y188167D01*
X387981Y187832D01*
X387334Y187659D01*
X382523Y187659D01*
G37*
%LPD*%
%LPC*%
G36*
X104059Y192023D02*
X104059Y192023D01*
X104059Y196834D01*
X104232Y197481D01*
X104567Y198060D01*
X105040Y198533D01*
X105619Y198868D01*
X106266Y199041D01*
X109077Y199041D01*
X109077Y192023D01*
X104059Y192023D01*
G37*
%LPD*%
%LPC*%
G36*
X106266Y150209D02*
X106266Y150209D01*
X105619Y150382D01*
X105040Y150717D01*
X104567Y151190D01*
X104232Y151769D01*
X104059Y152416D01*
X104059Y157227D01*
X109077Y157227D01*
X109077Y150209D01*
X106266Y150209D01*
G37*
%LPD*%
%LPC*%
G36*
X342266Y127984D02*
X342266Y127984D01*
X341619Y128157D01*
X341040Y128492D01*
X340567Y128965D01*
X340232Y129544D01*
X340059Y130191D01*
X340059Y135002D01*
X345077Y135002D01*
X345077Y127984D01*
X342266Y127984D01*
G37*
%LPD*%
%LPC*%
G36*
X106266Y181959D02*
X106266Y181959D01*
X105619Y182132D01*
X105040Y182467D01*
X104567Y182940D01*
X104232Y183519D01*
X104059Y184166D01*
X104059Y188977D01*
X109077Y188977D01*
X109077Y181959D01*
X106266Y181959D01*
G37*
%LPD*%
%LPC*%
G36*
X374666Y72309D02*
X374666Y72309D01*
X374019Y72482D01*
X373440Y72817D01*
X372967Y73290D01*
X372632Y73869D01*
X372459Y74516D01*
X372459Y77327D01*
X379477Y77327D01*
X379477Y72309D01*
X374666Y72309D01*
G37*
%LPD*%
%LPC*%
G36*
X374666Y187659D02*
X374666Y187659D01*
X374019Y187832D01*
X373440Y188167D01*
X372967Y188640D01*
X372632Y189219D01*
X372459Y189866D01*
X372459Y192677D01*
X379477Y192677D01*
X379477Y187659D01*
X374666Y187659D01*
G37*
%LPD*%
%LPC*%
G36*
X158749Y19049D02*
X158749Y19049D01*
X158749Y19051D01*
X158751Y19051D01*
X158751Y19049D01*
X158749Y19049D01*
G37*
%LPD*%
%LPC*%
G36*
X184149Y260349D02*
X184149Y260349D01*
X184149Y260351D01*
X184151Y260351D01*
X184151Y260349D01*
X184149Y260349D01*
G37*
%LPD*%
%LPC*%
G36*
X346599Y136524D02*
X346599Y136524D01*
X346599Y136526D01*
X346601Y136526D01*
X346601Y136524D01*
X346599Y136524D01*
G37*
%LPD*%
%LPC*%
G36*
X110599Y190499D02*
X110599Y190499D01*
X110599Y190501D01*
X110601Y190501D01*
X110601Y190499D01*
X110599Y190499D01*
G37*
%LPD*%
%LPC*%
G36*
X110599Y158749D02*
X110599Y158749D01*
X110599Y158751D01*
X110601Y158751D01*
X110601Y158749D01*
X110599Y158749D01*
G37*
%LPD*%
%LPC*%
G36*
X380999Y78849D02*
X380999Y78849D01*
X380999Y78851D01*
X381001Y78851D01*
X381001Y78849D01*
X380999Y78849D01*
G37*
%LPD*%
%LPC*%
G36*
X482724Y143244D02*
X482724Y143244D01*
X482724Y143246D01*
X482726Y143246D01*
X482726Y143244D01*
X482724Y143244D01*
G37*
%LPD*%
%LPC*%
G36*
X380999Y194199D02*
X380999Y194199D01*
X380999Y194201D01*
X381001Y194201D01*
X381001Y194199D01*
X380999Y194199D01*
G37*
%LPD*%
%LPC*%
G36*
X346599Y107949D02*
X346599Y107949D01*
X346599Y107951D01*
X346601Y107951D01*
X346601Y107949D01*
X346599Y107949D01*
G37*
%LPD*%
D10*
X271925Y79375D03*
X305925Y79375D03*
D11*
X110600Y158750D03*
X92600Y158750D03*
X110600Y190500D03*
X92600Y190500D03*
D12*
X381000Y78850D03*
X381000Y60850D03*
X349250Y60850D03*
X349250Y78850D03*
X381000Y194200D03*
X381000Y212200D03*
D11*
X364600Y136525D03*
X346600Y136525D03*
X346600Y165100D03*
X364600Y165100D03*
D13*
X482600Y233900D03*
X482600Y261400D03*
D14*
X467350Y247650D03*
D11*
X289450Y136525D03*
X307450Y136525D03*
X307450Y107950D03*
X289450Y107950D03*
X364600Y107950D03*
X346600Y107950D03*
D12*
X349250Y194200D03*
X349250Y212200D03*
D15*
X450725Y91705D03*
X450725Y143245D03*
X482725Y143245D03*
X482725Y91705D03*
D16*
X491025Y14000D03*
X491025Y53000D03*
X491025Y171550D03*
X491025Y210550D03*
D12*
X406400Y123300D03*
X406400Y105300D03*
D17*
X412750Y19050D03*
X387350Y19050D03*
X361950Y19050D03*
X336550Y19050D03*
X311150Y19050D03*
X285750Y19050D03*
X260350Y19050D03*
X234950Y19050D03*
X209550Y19050D03*
X184150Y19050D03*
X158750Y19050D03*
X133350Y19050D03*
X107950Y19050D03*
X82550Y19050D03*
X412750Y260350D03*
X387350Y260350D03*
X361950Y260350D03*
X336550Y260350D03*
X311150Y260350D03*
X285750Y260350D03*
X260350Y260350D03*
X234950Y260350D03*
X209550Y260350D03*
X184150Y260350D03*
X158750Y260350D03*
X133350Y260350D03*
X107950Y260350D03*
X82550Y260350D03*
X444500Y247650D03*
D18*
X165100Y95250D03*
X12700Y254000D03*
X50800Y254000D03*
X79900Y132600D03*
X79900Y88000D03*
X50800Y25400D03*
X12700Y25400D03*
X457200Y19050D03*
X429500Y232800D03*
X457800Y263700D03*
X329700Y131000D03*
X282500Y61900D03*
X386400Y106600D03*
X326700Y192300D03*
X236100Y181500D03*
X202500Y173400D03*
X130100Y199300D03*
X400050Y171450D03*
D19*
X359664Y79248D02*
X349504Y79248D01*
X359664Y79248D02*
X367792Y87376D01*
X367792Y91440D01*
X371820Y95468D01*
X371820Y121884D02*
X371856Y121920D01*
X371820Y121884D02*
X371820Y95468D01*
X371856Y121920D02*
X369824Y121920D01*
X365760Y125984D01*
X365760Y136144D01*
X349504Y79248D02*
X349250Y78850D01*
X365760Y136144D02*
X364600Y136525D01*
X365760Y138176D02*
X365760Y164592D01*
X364600Y165100D01*
X365760Y138176D02*
X364600Y136525D01*
X359664Y211328D02*
X349504Y211328D01*
X359664Y211328D02*
X363728Y207264D01*
X363728Y166624D01*
X349504Y211328D02*
X349250Y212200D01*
X363728Y166624D02*
X364600Y165100D01*
X284480Y79248D02*
X272288Y79248D01*
X284480Y79248D02*
X296672Y67056D01*
X323088Y67056D01*
X335280Y79248D01*
X347472Y79248D01*
X272288Y79248D02*
X271925Y79375D01*
X347472Y79248D02*
X349250Y78850D01*
X93472Y160528D02*
X93472Y188976D01*
X93472Y160528D02*
X92600Y158750D01*
X93472Y188976D02*
X92600Y190500D01*
X93472Y191008D02*
X93472Y211328D01*
X113792Y231648D02*
X132080Y249936D01*
X113792Y231648D02*
X93472Y211328D01*
X132080Y249936D02*
X132080Y260096D01*
X93472Y191008D02*
X92600Y190500D01*
X132080Y260096D02*
X133350Y260350D01*
X132080Y24384D02*
X132080Y20320D01*
X132080Y24384D02*
X93472Y62992D01*
X93472Y158496D01*
X132080Y20320D02*
X133350Y19050D01*
X93472Y158496D02*
X92600Y158750D01*
X302768Y180848D02*
X316992Y180848D01*
X302768Y180848D02*
X278384Y156464D01*
X188976Y156464D01*
X113792Y231648D01*
D18*
X371856Y121920D03*
X316992Y180848D03*
D19*
X85344Y207264D02*
X85344Y235712D01*
X109728Y260096D01*
X107950Y260350D01*
D18*
X85344Y207264D03*
D19*
X331216Y164592D02*
X345440Y164592D01*
X331216Y164592D02*
X316992Y150368D01*
X345440Y164592D02*
X346600Y165100D01*
X278384Y146304D02*
X237744Y105664D01*
D18*
X316992Y150368D03*
X237744Y105664D03*
X278384Y146304D03*
D19*
X213360Y73152D02*
X193040Y73152D01*
X213360Y73152D02*
X245872Y40640D01*
X260096Y40640D01*
X264160Y36576D01*
D18*
X193040Y73152D03*
X264160Y36576D03*
D19*
X270256Y109728D02*
X274320Y113792D01*
X270256Y109728D02*
X268224Y109728D01*
X239776Y81280D01*
X188976Y81280D01*
X174752Y67056D01*
X174752Y32512D01*
X182880Y24384D01*
X182880Y20320D01*
X184150Y19050D01*
X168656Y73152D02*
X111760Y73152D01*
X168656Y73152D02*
X174752Y67056D01*
D18*
X274320Y113792D03*
X111760Y73152D03*
D19*
X239776Y164592D02*
X274320Y164592D01*
X239776Y164592D02*
X197104Y207264D01*
D18*
X274320Y164592D03*
X197104Y207264D03*
D19*
X363728Y107696D02*
X363728Y97536D01*
X359664Y93472D01*
X363728Y107696D02*
X364600Y107950D01*
X264160Y199136D02*
X237744Y199136D01*
X264160Y199136D02*
X286512Y176784D01*
D18*
X359664Y93472D03*
X237744Y199136D03*
X286512Y176784D03*
D19*
X455168Y245872D02*
X465328Y245872D01*
X455168Y245872D02*
X453136Y247904D01*
X445008Y247904D01*
X465328Y245872D02*
X467350Y247650D01*
X445008Y247904D02*
X444500Y247650D01*
X290576Y136144D02*
X290576Y109728D01*
X289450Y107950D01*
X290576Y136144D02*
X289450Y136525D01*
X270256Y105664D02*
X237744Y73152D01*
X270256Y105664D02*
X286512Y105664D01*
X288544Y107696D01*
X289450Y107950D01*
D18*
X237744Y73152D03*
D19*
X158496Y207264D02*
X211328Y260096D01*
X209550Y260350D01*
D18*
X158496Y207264D03*
D19*
X349504Y60960D02*
X379984Y60960D01*
X349504Y60960D02*
X349250Y60850D01*
X379984Y60960D02*
X381000Y60850D01*
X489712Y60960D02*
X489712Y54864D01*
X489712Y60960D02*
X463296Y87376D01*
X463296Y103632D01*
X430784Y136144D01*
X404368Y136144D02*
X398272Y136144D01*
X404368Y136144D02*
X430784Y136144D01*
X398272Y136144D02*
X396176Y134048D01*
X396176Y85408D01*
X396240Y85344D01*
X396240Y67056D01*
X390144Y60960D01*
X382016Y60960D01*
X489712Y54864D02*
X491025Y53000D01*
X382016Y60960D02*
X381000Y60850D01*
X225552Y191008D02*
X225552Y199136D01*
X233680Y207264D01*
X327152Y207264D01*
D18*
X225552Y191008D03*
X327152Y207264D03*
X404368Y136144D03*
D19*
X325120Y225552D02*
X266192Y225552D01*
X325120Y225552D02*
X361696Y262128D01*
X361950Y260350D01*
D18*
X266192Y225552D03*
D19*
X266192Y95504D02*
X274320Y95504D01*
X266192Y95504D02*
X256032Y85344D01*
X256032Y73152D01*
X296672Y32512D01*
X300736Y32512D01*
X312928Y20320D01*
X311150Y19050D01*
D18*
X274320Y95504D03*
D19*
X225552Y73152D02*
X254000Y44704D01*
X268224Y44704D01*
X276352Y36576D01*
X276352Y32512D01*
X284480Y24384D01*
X284480Y20320D01*
X285750Y19050D01*
D18*
X225552Y73152D03*
D19*
X211328Y36576D02*
X245872Y36576D01*
X262128Y20320D01*
X260350Y19050D01*
D18*
X211328Y36576D03*
D19*
X150368Y203200D02*
X150368Y241808D01*
X150368Y203200D02*
X154432Y199136D01*
X176784Y199136D01*
X233680Y256032D01*
X233680Y260096D01*
X234950Y260350D01*
D18*
X150368Y241808D03*
D19*
X280416Y239776D02*
X319024Y239776D01*
X335280Y256032D01*
X335280Y260096D01*
X336550Y260350D01*
D18*
X280416Y239776D03*
D19*
X339344Y195072D02*
X347472Y195072D01*
X337312Y197104D02*
X335280Y199136D01*
X337312Y197104D02*
X339344Y195072D01*
X335280Y199136D02*
X335280Y219456D01*
X339344Y223520D01*
X359664Y223520D01*
X371856Y211328D01*
X379984Y211328D01*
X349250Y194200D02*
X347472Y195072D01*
X379984Y211328D02*
X381000Y212200D01*
X288544Y91440D02*
X286512Y91440D01*
X288544Y91440D02*
X296672Y99568D01*
X296672Y117856D01*
X298704Y119888D01*
X298704Y123952D01*
X296672Y125984D01*
X296672Y146304D01*
X335280Y184912D01*
X335280Y195072D01*
X337312Y197104D01*
X430784Y172720D02*
X489712Y172720D01*
X430784Y172720D02*
X390144Y213360D01*
X382016Y213360D01*
X489712Y172720D02*
X491025Y171550D01*
X382016Y213360D02*
X381000Y212200D01*
D18*
X286512Y91440D03*
D19*
X400304Y144272D02*
X449072Y144272D01*
X371856Y88900D02*
X371856Y85344D01*
X371856Y88900D02*
X371856Y89408D01*
X371856Y85344D02*
X355600Y69088D01*
X337312Y69088D01*
X274320Y128016D02*
X237744Y91440D01*
X449072Y144272D02*
X450725Y143245D01*
D18*
X337312Y69088D03*
X274320Y128016D03*
X237744Y91440D03*
D19*
X371856Y89757D02*
X371856Y89408D01*
X371856Y89757D02*
X375884Y93785D01*
X375884Y114453D02*
X379984Y118553D01*
X379984Y123952D01*
X375884Y114453D02*
X375884Y93785D01*
X379984Y123952D02*
X400304Y144272D01*
X394208Y52832D02*
X382016Y40640D01*
X355600Y40640D01*
X335280Y20320D01*
X336550Y19050D01*
D18*
X394208Y52832D03*
D19*
X406400Y52832D02*
X390144Y36576D01*
X375920Y36576D01*
X363728Y24384D01*
X363728Y20320D01*
X361950Y19050D01*
D18*
X406400Y52832D03*
D19*
X406400Y105664D02*
X432816Y105664D01*
X445008Y93472D01*
X449072Y93472D01*
X406400Y105300D02*
X406400Y105664D01*
X449072Y93472D02*
X450725Y91705D01*
X306832Y91440D02*
X306832Y81280D01*
X306832Y91440D02*
X306832Y107696D01*
X307450Y107950D01*
X306832Y81280D02*
X305925Y79375D01*
X306832Y91440D02*
X343408Y91440D01*
X451104Y91440D02*
X451104Y60960D01*
X414528Y24384D01*
X414528Y20320D01*
X451104Y91440D02*
X450725Y91705D01*
X414528Y20320D02*
X412750Y19050D01*
D18*
X343408Y91440D03*
M02*
