G04 EAGLE Gerber RS-274X export*
G75*
%MOMM*%
%FSLAX34Y34*%
%LPD*%
%INBottom Copper*%
%IPPOS*%
%AMOC8*
5,1,8,0,0,1.08239X$1,22.5*%
G01*
%ADD10R,0.900000X2.000000*%
%ADD11R,2.000000X0.900000*%
%ADD12R,5.000000X5.000000*%
%ADD13R,1.500000X1.000000*%
%ADD14C,1.879600*%
%ADD15C,1.016000*%
%ADD16C,0.203200*%

G36*
X504111Y3744D02*
X504111Y3744D01*
X504132Y3742D01*
X504232Y3764D01*
X504334Y3780D01*
X504352Y3790D01*
X504372Y3795D01*
X504460Y3848D01*
X504551Y3896D01*
X504565Y3911D01*
X504583Y3921D01*
X504650Y4000D01*
X504720Y4074D01*
X504729Y4093D01*
X504743Y4109D01*
X504781Y4204D01*
X504824Y4297D01*
X504826Y4318D01*
X504834Y4337D01*
X504852Y4504D01*
X504801Y27897D01*
X504789Y27967D01*
X504788Y28038D01*
X504769Y28088D01*
X504761Y28140D01*
X504727Y28202D01*
X504703Y28269D01*
X504670Y28310D01*
X504645Y28357D01*
X504594Y28405D01*
X504549Y28461D01*
X504505Y28490D01*
X504467Y28526D01*
X504402Y28555D01*
X504343Y28594D01*
X504291Y28607D01*
X504243Y28629D01*
X504173Y28637D01*
X504104Y28654D01*
X504051Y28650D01*
X503999Y28656D01*
X503930Y28640D01*
X503859Y28635D01*
X503810Y28614D01*
X503758Y28603D01*
X503698Y28566D01*
X503632Y28538D01*
X503575Y28493D01*
X503548Y28476D01*
X503533Y28459D01*
X503501Y28434D01*
X503447Y28379D01*
X501227Y27459D01*
X498823Y27459D01*
X496603Y28379D01*
X494904Y30078D01*
X493984Y32298D01*
X493984Y34702D01*
X494904Y36922D01*
X496603Y38621D01*
X498823Y39541D01*
X501227Y39541D01*
X503447Y38621D01*
X503477Y38591D01*
X503536Y38548D01*
X503589Y38499D01*
X503635Y38477D01*
X503677Y38447D01*
X503746Y38426D01*
X503812Y38396D01*
X503863Y38390D01*
X503912Y38375D01*
X503984Y38377D01*
X504056Y38369D01*
X504106Y38380D01*
X504158Y38381D01*
X504226Y38406D01*
X504297Y38422D01*
X504341Y38448D01*
X504389Y38466D01*
X504445Y38511D01*
X504508Y38548D01*
X504541Y38587D01*
X504581Y38619D01*
X504620Y38680D01*
X504667Y38736D01*
X504686Y38783D01*
X504714Y38826D01*
X504732Y38897D01*
X504758Y38964D01*
X504766Y39034D01*
X504774Y39065D01*
X504772Y39089D01*
X504777Y39131D01*
X504458Y185210D01*
X504451Y185255D01*
X504453Y185300D01*
X504431Y185375D01*
X504418Y185453D01*
X504397Y185493D01*
X504384Y185536D01*
X504339Y185601D01*
X504302Y185670D01*
X504270Y185701D01*
X504244Y185738D01*
X504181Y185785D01*
X504124Y185839D01*
X504083Y185858D01*
X504046Y185885D01*
X503972Y185909D01*
X503900Y185942D01*
X503856Y185947D01*
X503813Y185961D01*
X503734Y185960D01*
X503656Y185969D01*
X503612Y185959D01*
X503567Y185959D01*
X503432Y185919D01*
X503416Y185916D01*
X503412Y185914D01*
X503406Y185912D01*
X501227Y185009D01*
X498823Y185009D01*
X496603Y185929D01*
X494904Y187628D01*
X493984Y189848D01*
X493984Y192252D01*
X494904Y194472D01*
X496603Y196171D01*
X498823Y197091D01*
X501227Y197091D01*
X503380Y196199D01*
X503426Y196188D01*
X503468Y196168D01*
X503545Y196160D01*
X503620Y196143D01*
X503666Y196147D01*
X503712Y196142D01*
X503788Y196158D01*
X503864Y196166D01*
X503907Y196185D01*
X503953Y196195D01*
X504019Y196234D01*
X504089Y196266D01*
X504123Y196297D01*
X504164Y196321D01*
X504213Y196380D01*
X504270Y196432D01*
X504293Y196473D01*
X504323Y196509D01*
X504352Y196580D01*
X504389Y196648D01*
X504397Y196694D01*
X504414Y196737D01*
X504429Y196869D01*
X504433Y196890D01*
X504432Y196895D01*
X504433Y196904D01*
X504266Y273100D01*
X504263Y273119D01*
X504265Y273137D01*
X504243Y273240D01*
X504226Y273342D01*
X504217Y273359D01*
X504213Y273378D01*
X504160Y273468D01*
X504111Y273559D01*
X504097Y273573D01*
X504087Y273589D01*
X504007Y273657D01*
X503932Y273728D01*
X503915Y273736D01*
X503900Y273749D01*
X503803Y273788D01*
X503709Y273832D01*
X503690Y273834D01*
X503672Y273841D01*
X503505Y273859D01*
X2109Y273859D01*
X2089Y273856D01*
X2068Y273858D01*
X1968Y273836D01*
X1866Y273820D01*
X1848Y273810D01*
X1828Y273805D01*
X1740Y273752D01*
X1649Y273704D01*
X1635Y273689D01*
X1617Y273679D01*
X1550Y273600D01*
X1480Y273526D01*
X1471Y273507D01*
X1457Y273491D01*
X1419Y273396D01*
X1376Y273303D01*
X1374Y273282D01*
X1366Y273263D01*
X1348Y273096D01*
X1428Y236472D01*
X1431Y236453D01*
X1429Y236435D01*
X1451Y236332D01*
X1468Y236230D01*
X1477Y236213D01*
X1481Y236194D01*
X1535Y236104D01*
X1584Y236013D01*
X1597Y235999D01*
X1607Y235983D01*
X1687Y235915D01*
X1762Y235844D01*
X1780Y235836D01*
X1794Y235823D01*
X1891Y235784D01*
X1986Y235740D01*
X2005Y235738D01*
X2022Y235731D01*
X2189Y235713D01*
X67002Y235713D01*
X67073Y235724D01*
X67144Y235726D01*
X67193Y235744D01*
X67245Y235752D01*
X67308Y235786D01*
X67375Y235811D01*
X67416Y235843D01*
X67462Y235868D01*
X67511Y235920D01*
X67567Y235964D01*
X67596Y236008D01*
X67631Y236046D01*
X67662Y236111D01*
X67700Y236171D01*
X67713Y236222D01*
X67735Y236269D01*
X67743Y236340D01*
X67760Y236410D01*
X67756Y236462D01*
X67762Y236513D01*
X67747Y236584D01*
X67741Y236655D01*
X67721Y236703D01*
X67710Y236754D01*
X67673Y236815D01*
X67645Y236881D01*
X67600Y236937D01*
X67584Y236965D01*
X67566Y236980D01*
X67540Y237012D01*
X66039Y238513D01*
X66039Y251199D01*
X71286Y256446D01*
X71354Y256540D01*
X71424Y256634D01*
X71426Y256640D01*
X71430Y256645D01*
X71464Y256757D01*
X71500Y256868D01*
X71500Y256874D01*
X71502Y256880D01*
X71499Y256997D01*
X71498Y257114D01*
X71496Y257121D01*
X71496Y257126D01*
X71489Y257144D01*
X71451Y257275D01*
X71119Y258076D01*
X71119Y262624D01*
X72860Y266825D01*
X76075Y270040D01*
X80276Y271781D01*
X84824Y271781D01*
X89025Y270040D01*
X92240Y266825D01*
X93981Y262624D01*
X93981Y258076D01*
X92240Y253875D01*
X89025Y250660D01*
X84824Y248919D01*
X80276Y248919D01*
X76075Y250659D01*
X75637Y251097D01*
X75621Y251109D01*
X75609Y251124D01*
X75522Y251180D01*
X75438Y251241D01*
X75419Y251247D01*
X75402Y251257D01*
X75301Y251283D01*
X75203Y251313D01*
X75183Y251313D01*
X75163Y251317D01*
X75060Y251309D01*
X74957Y251307D01*
X74938Y251300D01*
X74918Y251298D01*
X74823Y251258D01*
X74726Y251222D01*
X74710Y251210D01*
X74692Y251202D01*
X74561Y251097D01*
X72360Y248896D01*
X72307Y248822D01*
X72247Y248753D01*
X72235Y248723D01*
X72216Y248696D01*
X72189Y248609D01*
X72155Y248525D01*
X72151Y248484D01*
X72144Y248461D01*
X72145Y248429D01*
X72137Y248358D01*
X72137Y241354D01*
X72151Y241264D01*
X72159Y241173D01*
X72171Y241143D01*
X72176Y241111D01*
X72219Y241031D01*
X72255Y240947D01*
X72281Y240915D01*
X72292Y240894D01*
X72315Y240872D01*
X72360Y240816D01*
X75712Y237464D01*
X75786Y237411D01*
X75855Y237351D01*
X75885Y237339D01*
X75912Y237320D01*
X75999Y237293D01*
X76083Y237259D01*
X76124Y237255D01*
X76147Y237248D01*
X76179Y237249D01*
X76250Y237241D01*
X79227Y237241D01*
X79227Y225462D01*
X79230Y225442D01*
X79228Y225423D01*
X79250Y225321D01*
X79267Y225219D01*
X79276Y225202D01*
X79280Y225182D01*
X79333Y225093D01*
X79382Y225002D01*
X79396Y224988D01*
X79406Y224971D01*
X79485Y224904D01*
X79560Y224833D01*
X79578Y224824D01*
X79593Y224811D01*
X79689Y224772D01*
X79783Y224729D01*
X79803Y224727D01*
X79821Y224719D01*
X79988Y224701D01*
X81512Y224701D01*
X81532Y224704D01*
X81551Y224702D01*
X81653Y224724D01*
X81755Y224741D01*
X81772Y224750D01*
X81792Y224754D01*
X81881Y224807D01*
X81972Y224856D01*
X81986Y224870D01*
X82003Y224880D01*
X82070Y224959D01*
X82141Y225034D01*
X82150Y225052D01*
X82163Y225067D01*
X82202Y225163D01*
X82245Y225257D01*
X82247Y225277D01*
X82255Y225295D01*
X82273Y225462D01*
X82273Y237241D01*
X85584Y237241D01*
X86231Y237068D01*
X86810Y236733D01*
X86921Y236622D01*
X86937Y236611D01*
X86950Y236595D01*
X87036Y236539D01*
X87121Y236479D01*
X87140Y236473D01*
X87156Y236462D01*
X87257Y236437D01*
X87356Y236406D01*
X87376Y236407D01*
X87395Y236402D01*
X87498Y236410D01*
X87602Y236413D01*
X87620Y236420D01*
X87640Y236421D01*
X87735Y236462D01*
X87833Y236497D01*
X87848Y236510D01*
X87867Y236517D01*
X87998Y236622D01*
X88108Y236733D01*
X89662Y236733D01*
X89682Y236736D01*
X89701Y236734D01*
X89803Y236756D01*
X89905Y236772D01*
X89922Y236782D01*
X89942Y236786D01*
X90031Y236839D01*
X90122Y236888D01*
X90136Y236902D01*
X90153Y236912D01*
X90220Y236991D01*
X90292Y237066D01*
X90300Y237084D01*
X90313Y237099D01*
X90352Y237195D01*
X90395Y237289D01*
X90397Y237309D01*
X90405Y237327D01*
X90423Y237494D01*
X90423Y239007D01*
X98305Y246889D01*
X118310Y246889D01*
X118400Y246903D01*
X118491Y246911D01*
X118521Y246923D01*
X118553Y246928D01*
X118633Y246971D01*
X118717Y247007D01*
X118749Y247033D01*
X118770Y247044D01*
X118792Y247067D01*
X118848Y247112D01*
X124097Y252361D01*
X124109Y252377D01*
X124124Y252389D01*
X124180Y252476D01*
X124241Y252560D01*
X124247Y252580D01*
X124257Y252596D01*
X124283Y252697D01*
X124313Y252796D01*
X124313Y252816D01*
X124317Y252835D01*
X124309Y252938D01*
X124307Y253041D01*
X124300Y253060D01*
X124298Y253080D01*
X124258Y253175D01*
X124222Y253272D01*
X124210Y253288D01*
X124202Y253306D01*
X124097Y253437D01*
X123659Y253875D01*
X121919Y258076D01*
X121919Y262624D01*
X123660Y266825D01*
X126875Y270040D01*
X131076Y271781D01*
X135624Y271781D01*
X139825Y270040D01*
X143040Y266825D01*
X144781Y262624D01*
X144781Y258076D01*
X143040Y253875D01*
X139825Y250660D01*
X135624Y248919D01*
X131076Y248919D01*
X130275Y249251D01*
X130162Y249278D01*
X130048Y249306D01*
X130042Y249306D01*
X130036Y249307D01*
X129919Y249296D01*
X129803Y249287D01*
X129797Y249285D01*
X129791Y249284D01*
X129683Y249236D01*
X129577Y249191D01*
X129571Y249186D01*
X129566Y249184D01*
X129552Y249171D01*
X129446Y249086D01*
X128548Y248188D01*
X128506Y248130D01*
X128457Y248078D01*
X128435Y248031D01*
X128404Y247989D01*
X128383Y247920D01*
X128353Y247855D01*
X128347Y247803D01*
X128332Y247753D01*
X128334Y247682D01*
X128326Y247611D01*
X128337Y247560D01*
X128338Y247508D01*
X128363Y247440D01*
X128378Y247370D01*
X128405Y247326D01*
X128423Y247277D01*
X128468Y247221D01*
X128504Y247159D01*
X128544Y247125D01*
X128576Y247085D01*
X128637Y247046D01*
X128691Y246999D01*
X128740Y246980D01*
X128783Y246952D01*
X128853Y246934D01*
X128919Y246907D01*
X128991Y246899D01*
X129022Y246891D01*
X129045Y246893D01*
X129086Y246889D01*
X138630Y246889D01*
X138720Y246903D01*
X138811Y246911D01*
X138841Y246923D01*
X138873Y246928D01*
X138953Y246971D01*
X139037Y247007D01*
X139069Y247033D01*
X139090Y247044D01*
X139112Y247067D01*
X139168Y247112D01*
X147784Y255727D01*
X147851Y255822D01*
X147922Y255916D01*
X147924Y255922D01*
X147927Y255927D01*
X147961Y256038D01*
X147998Y256150D01*
X147998Y256156D01*
X148000Y256162D01*
X147997Y256279D01*
X147995Y256396D01*
X147993Y256403D01*
X147993Y256408D01*
X147987Y256425D01*
X147949Y256557D01*
X147319Y258076D01*
X147319Y262624D01*
X149060Y266825D01*
X152275Y270040D01*
X156476Y271781D01*
X161024Y271781D01*
X165225Y270040D01*
X168440Y266825D01*
X170181Y262624D01*
X170181Y258076D01*
X168440Y253875D01*
X165225Y250660D01*
X161024Y248919D01*
X156476Y248919D01*
X152210Y250686D01*
X152146Y250733D01*
X152127Y250739D01*
X152110Y250749D01*
X152010Y250775D01*
X151911Y250805D01*
X151891Y250805D01*
X151871Y250809D01*
X151769Y250801D01*
X151665Y250799D01*
X151646Y250792D01*
X151626Y250790D01*
X151531Y250750D01*
X151434Y250714D01*
X151418Y250702D01*
X151400Y250694D01*
X151269Y250589D01*
X150900Y250220D01*
X150858Y250162D01*
X150809Y250110D01*
X150787Y250063D01*
X150756Y250021D01*
X150735Y249952D01*
X150705Y249887D01*
X150699Y249835D01*
X150684Y249785D01*
X150686Y249714D01*
X150678Y249643D01*
X150689Y249592D01*
X150690Y249540D01*
X150715Y249472D01*
X150730Y249402D01*
X150757Y249358D01*
X150775Y249309D01*
X150820Y249253D01*
X150856Y249191D01*
X150896Y249157D01*
X150928Y249117D01*
X150989Y249078D01*
X151043Y249031D01*
X151092Y249012D01*
X151135Y248984D01*
X151205Y248966D01*
X151271Y248939D01*
X151343Y248931D01*
X151374Y248923D01*
X151397Y248925D01*
X151438Y248921D01*
X151783Y248921D01*
X154397Y247838D01*
X156398Y245837D01*
X157481Y243223D01*
X157481Y240393D01*
X156400Y237785D01*
X156390Y237741D01*
X156371Y237699D01*
X156362Y237622D01*
X156344Y237546D01*
X156349Y237500D01*
X156344Y237455D01*
X156360Y237378D01*
X156367Y237301D01*
X156386Y237259D01*
X156396Y237214D01*
X156436Y237147D01*
X156467Y237076D01*
X156498Y237042D01*
X156522Y237003D01*
X156581Y236952D01*
X156634Y236895D01*
X156674Y236873D01*
X156709Y236843D01*
X156781Y236814D01*
X156849Y236777D01*
X156894Y236768D01*
X156937Y236751D01*
X157073Y236736D01*
X157091Y236733D01*
X157096Y236734D01*
X157104Y236733D01*
X162292Y236733D01*
X162762Y236263D01*
X162778Y236251D01*
X162790Y236236D01*
X162877Y236180D01*
X162961Y236119D01*
X162980Y236114D01*
X162997Y236103D01*
X163098Y236078D01*
X163197Y236047D01*
X163216Y236048D01*
X163236Y236043D01*
X163339Y236051D01*
X163442Y236053D01*
X163461Y236060D01*
X163481Y236062D01*
X163576Y236102D01*
X163673Y236138D01*
X163689Y236150D01*
X163707Y236158D01*
X163838Y236263D01*
X164308Y236733D01*
X174992Y236733D01*
X175462Y236263D01*
X175478Y236251D01*
X175490Y236236D01*
X175577Y236180D01*
X175661Y236119D01*
X175680Y236114D01*
X175697Y236103D01*
X175798Y236078D01*
X175897Y236047D01*
X175916Y236048D01*
X175936Y236043D01*
X176039Y236051D01*
X176142Y236053D01*
X176161Y236060D01*
X176181Y236062D01*
X176276Y236102D01*
X176373Y236138D01*
X176389Y236150D01*
X176407Y236158D01*
X176538Y236263D01*
X177008Y236733D01*
X179070Y236733D01*
X179090Y236736D01*
X179109Y236734D01*
X179211Y236756D01*
X179313Y236772D01*
X179330Y236782D01*
X179350Y236786D01*
X179439Y236839D01*
X179530Y236888D01*
X179544Y236902D01*
X179561Y236912D01*
X179628Y236991D01*
X179700Y237066D01*
X179708Y237084D01*
X179721Y237099D01*
X179760Y237195D01*
X179803Y237289D01*
X179805Y237309D01*
X179813Y237327D01*
X179831Y237494D01*
X179831Y241039D01*
X185681Y246889D01*
X205686Y246889D01*
X205776Y246903D01*
X205867Y246911D01*
X205897Y246923D01*
X205929Y246928D01*
X206009Y246971D01*
X206093Y247007D01*
X206125Y247033D01*
X206146Y247044D01*
X206168Y247067D01*
X206224Y247112D01*
X207005Y247892D01*
X207032Y247930D01*
X207065Y247961D01*
X207103Y248029D01*
X207148Y248092D01*
X207162Y248136D01*
X207184Y248176D01*
X207198Y248253D01*
X207221Y248327D01*
X207220Y248373D01*
X207228Y248418D01*
X207216Y248495D01*
X207214Y248573D01*
X207199Y248616D01*
X207192Y248662D01*
X207157Y248731D01*
X207130Y248804D01*
X207101Y248840D01*
X207080Y248881D01*
X207025Y248935D01*
X206976Y248996D01*
X206938Y249021D01*
X206905Y249053D01*
X206785Y249119D01*
X206769Y249129D01*
X206764Y249130D01*
X206758Y249134D01*
X203075Y250660D01*
X199860Y253875D01*
X198119Y258076D01*
X198119Y262624D01*
X199860Y266825D01*
X203075Y270040D01*
X207276Y271781D01*
X211824Y271781D01*
X216025Y270040D01*
X219240Y266825D01*
X220981Y262624D01*
X220981Y258076D01*
X219240Y253875D01*
X217618Y252252D01*
X217576Y252194D01*
X217527Y252142D01*
X217505Y252095D01*
X217474Y252053D01*
X217453Y251984D01*
X217423Y251919D01*
X217417Y251867D01*
X217402Y251817D01*
X217404Y251746D01*
X217396Y251675D01*
X217407Y251624D01*
X217408Y251572D01*
X217433Y251504D01*
X217448Y251434D01*
X217475Y251389D01*
X217493Y251341D01*
X217538Y251285D01*
X217574Y251223D01*
X217614Y251189D01*
X217646Y251149D01*
X217707Y251110D01*
X217761Y251063D01*
X217809Y251044D01*
X217853Y251016D01*
X217923Y250998D01*
X217989Y250971D01*
X218061Y250963D01*
X218092Y250955D01*
X218115Y250957D01*
X218156Y250953D01*
X226344Y250953D01*
X226415Y250964D01*
X226486Y250966D01*
X226535Y250984D01*
X226587Y250992D01*
X226650Y251026D01*
X226717Y251051D01*
X226758Y251083D01*
X226804Y251108D01*
X226853Y251160D01*
X226909Y251204D01*
X226938Y251248D01*
X226973Y251286D01*
X227004Y251351D01*
X227042Y251411D01*
X227055Y251462D01*
X227077Y251509D01*
X227085Y251580D01*
X227103Y251650D01*
X227098Y251702D01*
X227104Y251753D01*
X227089Y251824D01*
X227083Y251895D01*
X227063Y251943D01*
X227052Y251994D01*
X227015Y252055D01*
X226987Y252121D01*
X226942Y252177D01*
X226926Y252205D01*
X226908Y252220D01*
X226882Y252252D01*
X225260Y253875D01*
X223519Y258076D01*
X223519Y262624D01*
X225260Y266825D01*
X228475Y270040D01*
X232676Y271781D01*
X237224Y271781D01*
X241425Y270040D01*
X244640Y266825D01*
X246381Y262624D01*
X246381Y258076D01*
X244640Y253875D01*
X243018Y252252D01*
X242976Y252194D01*
X242927Y252142D01*
X242905Y252095D01*
X242874Y252053D01*
X242853Y251984D01*
X242823Y251919D01*
X242817Y251867D01*
X242802Y251817D01*
X242804Y251746D01*
X242796Y251675D01*
X242807Y251624D01*
X242808Y251572D01*
X242833Y251504D01*
X242848Y251434D01*
X242875Y251389D01*
X242893Y251341D01*
X242938Y251285D01*
X242974Y251223D01*
X243014Y251189D01*
X243046Y251149D01*
X243107Y251110D01*
X243161Y251063D01*
X243209Y251044D01*
X243253Y251016D01*
X243323Y250998D01*
X243389Y250971D01*
X243461Y250963D01*
X243492Y250955D01*
X243515Y250957D01*
X243556Y250953D01*
X244294Y250953D01*
X244384Y250967D01*
X244475Y250975D01*
X244505Y250987D01*
X244537Y250992D01*
X244617Y251035D01*
X244701Y251071D01*
X244733Y251097D01*
X244754Y251108D01*
X244776Y251131D01*
X244832Y251176D01*
X249384Y255727D01*
X249452Y255822D01*
X249522Y255916D01*
X249524Y255922D01*
X249527Y255927D01*
X249561Y256038D01*
X249598Y256150D01*
X249598Y256156D01*
X249600Y256162D01*
X249597Y256279D01*
X249595Y256396D01*
X249593Y256403D01*
X249593Y256408D01*
X249587Y256425D01*
X249549Y256557D01*
X248919Y258076D01*
X248919Y262624D01*
X250660Y266825D01*
X253875Y270040D01*
X258076Y271781D01*
X262624Y271781D01*
X266825Y270040D01*
X270040Y266825D01*
X271781Y262624D01*
X271781Y258076D01*
X270040Y253875D01*
X266825Y250660D01*
X262624Y248919D01*
X258076Y248919D01*
X253810Y250686D01*
X253746Y250733D01*
X253727Y250739D01*
X253710Y250749D01*
X253610Y250775D01*
X253511Y250805D01*
X253491Y250805D01*
X253471Y250809D01*
X253369Y250801D01*
X253265Y250799D01*
X253246Y250792D01*
X253226Y250790D01*
X253131Y250750D01*
X253034Y250714D01*
X253018Y250702D01*
X253000Y250694D01*
X252869Y250589D01*
X250468Y248188D01*
X250426Y248130D01*
X250377Y248078D01*
X250355Y248031D01*
X250324Y247989D01*
X250303Y247920D01*
X250273Y247855D01*
X250267Y247803D01*
X250252Y247753D01*
X250254Y247682D01*
X250246Y247611D01*
X250257Y247560D01*
X250258Y247508D01*
X250283Y247440D01*
X250298Y247370D01*
X250325Y247326D01*
X250343Y247277D01*
X250388Y247221D01*
X250424Y247159D01*
X250464Y247125D01*
X250496Y247085D01*
X250557Y247046D01*
X250611Y246999D01*
X250660Y246980D01*
X250703Y246952D01*
X250773Y246934D01*
X250839Y246907D01*
X250911Y246899D01*
X250942Y246891D01*
X250965Y246893D01*
X251006Y246889D01*
X270710Y246889D01*
X270800Y246903D01*
X270891Y246911D01*
X270921Y246923D01*
X270953Y246928D01*
X271033Y246971D01*
X271117Y247007D01*
X271149Y247033D01*
X271170Y247044D01*
X271192Y247067D01*
X271248Y247112D01*
X276497Y252361D01*
X276509Y252377D01*
X276524Y252389D01*
X276580Y252476D01*
X276641Y252560D01*
X276647Y252580D01*
X276657Y252596D01*
X276683Y252697D01*
X276713Y252796D01*
X276713Y252816D01*
X276717Y252835D01*
X276709Y252938D01*
X276707Y253041D01*
X276700Y253060D01*
X276698Y253080D01*
X276658Y253175D01*
X276622Y253272D01*
X276610Y253288D01*
X276602Y253306D01*
X276497Y253437D01*
X276059Y253875D01*
X274319Y258076D01*
X274319Y262624D01*
X276060Y266825D01*
X279275Y270040D01*
X283476Y271781D01*
X288024Y271781D01*
X292225Y270040D01*
X295440Y266825D01*
X297181Y262624D01*
X297181Y258076D01*
X295440Y253875D01*
X292225Y250660D01*
X288024Y248919D01*
X283476Y248919D01*
X282675Y249251D01*
X282562Y249278D01*
X282448Y249306D01*
X282442Y249306D01*
X282436Y249307D01*
X282319Y249296D01*
X282203Y249287D01*
X282197Y249285D01*
X282191Y249284D01*
X282083Y249236D01*
X281977Y249191D01*
X281971Y249186D01*
X281966Y249184D01*
X281952Y249171D01*
X281846Y249086D01*
X280948Y248188D01*
X280906Y248130D01*
X280857Y248078D01*
X280835Y248031D01*
X280804Y247989D01*
X280783Y247920D01*
X280753Y247855D01*
X280747Y247803D01*
X280732Y247753D01*
X280734Y247682D01*
X280726Y247611D01*
X280737Y247560D01*
X280738Y247508D01*
X280763Y247440D01*
X280778Y247370D01*
X280805Y247326D01*
X280823Y247277D01*
X280868Y247221D01*
X280904Y247159D01*
X280944Y247125D01*
X280976Y247085D01*
X281037Y247046D01*
X281091Y246999D01*
X281140Y246980D01*
X281183Y246952D01*
X281253Y246934D01*
X281319Y246907D01*
X281391Y246899D01*
X281422Y246891D01*
X281445Y246893D01*
X281486Y246889D01*
X281831Y246889D01*
X284445Y245806D01*
X286446Y243805D01*
X287529Y241191D01*
X287529Y240846D01*
X287540Y240775D01*
X287542Y240704D01*
X287560Y240655D01*
X287568Y240603D01*
X287602Y240540D01*
X287627Y240473D01*
X287659Y240432D01*
X287684Y240386D01*
X287735Y240337D01*
X287780Y240281D01*
X287824Y240252D01*
X287862Y240217D01*
X287927Y240186D01*
X287987Y240148D01*
X288038Y240135D01*
X288085Y240113D01*
X288156Y240105D01*
X288226Y240088D01*
X288278Y240092D01*
X288329Y240086D01*
X288400Y240101D01*
X288471Y240107D01*
X288519Y240127D01*
X288570Y240138D01*
X288631Y240175D01*
X288697Y240203D01*
X288753Y240248D01*
X288781Y240264D01*
X288796Y240282D01*
X288828Y240308D01*
X301389Y252869D01*
X301401Y252885D01*
X301417Y252898D01*
X301473Y252985D01*
X301533Y253069D01*
X301539Y253088D01*
X301550Y253105D01*
X301575Y253205D01*
X301605Y253304D01*
X301605Y253324D01*
X301609Y253343D01*
X301601Y253446D01*
X301599Y253549D01*
X301592Y253568D01*
X301590Y253588D01*
X301550Y253683D01*
X301514Y253780D01*
X301502Y253796D01*
X301494Y253815D01*
X301475Y253839D01*
X299719Y258076D01*
X299719Y262624D01*
X301460Y266825D01*
X304675Y270040D01*
X308876Y271781D01*
X313424Y271781D01*
X317625Y270040D01*
X320840Y266825D01*
X322581Y262624D01*
X322581Y258076D01*
X320840Y253875D01*
X317625Y250660D01*
X313424Y248919D01*
X308876Y248919D01*
X307357Y249549D01*
X307243Y249575D01*
X307130Y249604D01*
X307123Y249603D01*
X307117Y249605D01*
X307001Y249594D01*
X306885Y249585D01*
X306879Y249582D01*
X306872Y249582D01*
X306765Y249534D01*
X306658Y249488D01*
X306652Y249484D01*
X306648Y249482D01*
X306634Y249469D01*
X306527Y249384D01*
X263391Y206247D01*
X245418Y206247D01*
X245328Y206233D01*
X245237Y206225D01*
X245207Y206213D01*
X245175Y206208D01*
X245095Y206165D01*
X245011Y206129D01*
X244979Y206103D01*
X244958Y206092D01*
X244945Y206079D01*
X244944Y206078D01*
X244933Y206067D01*
X244880Y206024D01*
X243525Y204670D01*
X243511Y204650D01*
X243492Y204635D01*
X243440Y204551D01*
X243382Y204470D01*
X243375Y204447D01*
X243362Y204426D01*
X243338Y204330D01*
X243309Y204235D01*
X243310Y204211D01*
X243304Y204187D01*
X243313Y204088D01*
X243316Y203989D01*
X243324Y203966D01*
X243326Y203942D01*
X243366Y203851D01*
X243400Y203758D01*
X243415Y203739D01*
X243425Y203717D01*
X243492Y203644D01*
X243554Y203566D01*
X243574Y203553D01*
X243590Y203535D01*
X243677Y203487D01*
X243761Y203433D01*
X243784Y203427D01*
X243805Y203415D01*
X243903Y203397D01*
X243999Y203373D01*
X244023Y203375D01*
X244047Y203370D01*
X244145Y203384D01*
X244244Y203392D01*
X244267Y203401D01*
X244290Y203405D01*
X244444Y203472D01*
X244869Y203718D01*
X245516Y203891D01*
X254327Y203891D01*
X254327Y197612D01*
X254330Y197592D01*
X254328Y197573D01*
X254350Y197471D01*
X254367Y197369D01*
X254376Y197352D01*
X254380Y197332D01*
X254433Y197243D01*
X254482Y197152D01*
X254496Y197138D01*
X254506Y197121D01*
X254585Y197054D01*
X254660Y196983D01*
X254678Y196974D01*
X254693Y196961D01*
X254789Y196922D01*
X254883Y196879D01*
X254903Y196877D01*
X254921Y196869D01*
X255088Y196851D01*
X255851Y196851D01*
X255851Y196088D01*
X255854Y196068D01*
X255852Y196049D01*
X255874Y195947D01*
X255891Y195845D01*
X255900Y195828D01*
X255904Y195808D01*
X255957Y195719D01*
X256006Y195628D01*
X256020Y195614D01*
X256030Y195597D01*
X256109Y195530D01*
X256184Y195459D01*
X256202Y195450D01*
X256217Y195437D01*
X256313Y195398D01*
X256407Y195355D01*
X256427Y195353D01*
X256445Y195345D01*
X256612Y195327D01*
X268391Y195327D01*
X268391Y192016D01*
X268218Y191369D01*
X267883Y190790D01*
X267772Y190679D01*
X267761Y190663D01*
X267745Y190650D01*
X267689Y190564D01*
X267629Y190479D01*
X267623Y190460D01*
X267612Y190444D01*
X267587Y190343D01*
X267556Y190244D01*
X267557Y190224D01*
X267552Y190205D01*
X267560Y190102D01*
X267563Y189998D01*
X267570Y189980D01*
X267571Y189960D01*
X267612Y189865D01*
X267647Y189767D01*
X267660Y189752D01*
X267667Y189733D01*
X267772Y189602D01*
X267883Y189492D01*
X267883Y188722D01*
X267886Y188703D01*
X267884Y188685D01*
X267884Y188684D01*
X267884Y188683D01*
X267906Y188581D01*
X267922Y188479D01*
X267932Y188462D01*
X267936Y188442D01*
X267989Y188353D01*
X268038Y188262D01*
X268052Y188248D01*
X268062Y188231D01*
X268141Y188164D01*
X268216Y188092D01*
X268234Y188084D01*
X268249Y188071D01*
X268345Y188032D01*
X268439Y187989D01*
X268459Y187987D01*
X268477Y187979D01*
X268609Y187965D01*
X268614Y187963D01*
X268617Y187964D01*
X268644Y187961D01*
X268678Y187961D01*
X268768Y187975D01*
X268859Y187983D01*
X268889Y187995D01*
X268921Y188000D01*
X269001Y188043D01*
X269085Y188079D01*
X269117Y188105D01*
X269138Y188116D01*
X269140Y188118D01*
X269161Y188139D01*
X269216Y188184D01*
X281208Y200176D01*
X281261Y200250D01*
X281321Y200319D01*
X281333Y200349D01*
X281352Y200376D01*
X281379Y200463D01*
X281413Y200547D01*
X281417Y200588D01*
X281424Y200611D01*
X281423Y200643D01*
X281431Y200714D01*
X281431Y212591D01*
X315729Y246889D01*
X372310Y246889D01*
X372400Y246903D01*
X372491Y246911D01*
X372521Y246923D01*
X372553Y246928D01*
X372633Y246971D01*
X372717Y247007D01*
X372749Y247033D01*
X372770Y247044D01*
X372792Y247067D01*
X372848Y247112D01*
X378097Y252361D01*
X378109Y252377D01*
X378124Y252389D01*
X378180Y252476D01*
X378241Y252560D01*
X378247Y252580D01*
X378257Y252596D01*
X378283Y252697D01*
X378313Y252796D01*
X378313Y252816D01*
X378317Y252835D01*
X378309Y252938D01*
X378307Y253041D01*
X378300Y253060D01*
X378298Y253080D01*
X378258Y253175D01*
X378222Y253272D01*
X378210Y253288D01*
X378202Y253306D01*
X378097Y253437D01*
X377659Y253875D01*
X375919Y258076D01*
X375919Y262624D01*
X377660Y266825D01*
X380875Y270040D01*
X385076Y271781D01*
X389624Y271781D01*
X393825Y270040D01*
X397040Y266825D01*
X398781Y262624D01*
X398781Y258076D01*
X397040Y253875D01*
X393825Y250660D01*
X389624Y248919D01*
X385076Y248919D01*
X384275Y249251D01*
X384162Y249278D01*
X384048Y249306D01*
X384042Y249306D01*
X384036Y249307D01*
X383919Y249296D01*
X383803Y249287D01*
X383797Y249285D01*
X383791Y249284D01*
X383683Y249236D01*
X383577Y249191D01*
X383571Y249186D01*
X383566Y249184D01*
X383552Y249171D01*
X383446Y249086D01*
X375151Y240791D01*
X318570Y240791D01*
X318480Y240777D01*
X318389Y240769D01*
X318359Y240757D01*
X318327Y240752D01*
X318247Y240709D01*
X318163Y240673D01*
X318131Y240647D01*
X318110Y240636D01*
X318088Y240613D01*
X318032Y240568D01*
X287752Y210288D01*
X287699Y210214D01*
X287639Y210145D01*
X287627Y210115D01*
X287608Y210088D01*
X287581Y210001D01*
X287547Y209917D01*
X287543Y209876D01*
X287536Y209853D01*
X287537Y209821D01*
X287529Y209750D01*
X287529Y197873D01*
X271519Y181863D01*
X268644Y181863D01*
X268624Y181860D01*
X268605Y181862D01*
X268503Y181840D01*
X268401Y181824D01*
X268384Y181814D01*
X268364Y181810D01*
X268275Y181757D01*
X268184Y181708D01*
X268170Y181694D01*
X268153Y181684D01*
X268086Y181605D01*
X268014Y181530D01*
X268006Y181512D01*
X267993Y181497D01*
X267954Y181401D01*
X267911Y181307D01*
X267909Y181287D01*
X267901Y181269D01*
X267883Y181102D01*
X267883Y178808D01*
X267413Y178338D01*
X267401Y178322D01*
X267386Y178310D01*
X267330Y178223D01*
X267269Y178139D01*
X267264Y178120D01*
X267253Y178103D01*
X267228Y178002D01*
X267197Y177903D01*
X267198Y177884D01*
X267193Y177864D01*
X267201Y177761D01*
X267203Y177658D01*
X267210Y177639D01*
X267212Y177619D01*
X267252Y177524D01*
X267288Y177427D01*
X267300Y177411D01*
X267308Y177393D01*
X267413Y177262D01*
X267883Y176792D01*
X267883Y170051D01*
X267894Y169981D01*
X267896Y169909D01*
X267914Y169860D01*
X267922Y169809D01*
X267956Y169745D01*
X267981Y169678D01*
X268013Y169637D01*
X268038Y169591D01*
X268090Y169542D01*
X268134Y169486D01*
X268178Y169458D01*
X268216Y169422D01*
X268281Y169392D01*
X268341Y169353D01*
X268392Y169340D01*
X268439Y169318D01*
X268510Y169310D01*
X268580Y169293D01*
X268632Y169297D01*
X268683Y169291D01*
X268754Y169306D01*
X268825Y169312D01*
X268873Y169332D01*
X268924Y169343D01*
X268985Y169380D01*
X269051Y169408D01*
X269107Y169453D01*
X269135Y169470D01*
X269150Y169487D01*
X269182Y169513D01*
X270291Y170622D01*
X272905Y171705D01*
X275735Y171705D01*
X278349Y170622D01*
X280350Y168621D01*
X280561Y168111D01*
X280623Y168011D01*
X280683Y167911D01*
X280688Y167907D01*
X280691Y167902D01*
X280781Y167827D01*
X280870Y167751D01*
X280876Y167749D01*
X280880Y167745D01*
X280989Y167703D01*
X281098Y167659D01*
X281105Y167658D01*
X281110Y167657D01*
X281128Y167656D01*
X281265Y167641D01*
X290756Y167641D01*
X290776Y167644D01*
X290795Y167642D01*
X290897Y167664D01*
X290999Y167680D01*
X291016Y167690D01*
X291036Y167694D01*
X291125Y167747D01*
X291216Y167796D01*
X291230Y167810D01*
X291247Y167820D01*
X291314Y167899D01*
X291386Y167974D01*
X291394Y167992D01*
X291407Y168007D01*
X291446Y168103D01*
X291489Y168197D01*
X291491Y168217D01*
X291499Y168235D01*
X291517Y168402D01*
X291517Y168910D01*
X291514Y168930D01*
X291516Y168949D01*
X291494Y169051D01*
X291478Y169153D01*
X291468Y169170D01*
X291464Y169190D01*
X291411Y169279D01*
X291362Y169370D01*
X291348Y169384D01*
X291338Y169401D01*
X291259Y169468D01*
X291184Y169540D01*
X291166Y169548D01*
X291151Y169561D01*
X291055Y169600D01*
X290961Y169643D01*
X290941Y169645D01*
X290923Y169653D01*
X290756Y169671D01*
X289313Y169671D01*
X289267Y169718D01*
X289172Y169786D01*
X289078Y169856D01*
X289072Y169858D01*
X289067Y169861D01*
X288955Y169896D01*
X288844Y169932D01*
X288838Y169932D01*
X288832Y169934D01*
X288715Y169931D01*
X288598Y169929D01*
X288591Y169927D01*
X288586Y169927D01*
X288569Y169921D01*
X288437Y169883D01*
X287927Y169671D01*
X285097Y169671D01*
X282483Y170754D01*
X280482Y172755D01*
X279399Y175369D01*
X279399Y178199D01*
X280482Y180813D01*
X282483Y182814D01*
X285097Y183897D01*
X287927Y183897D01*
X290465Y182845D01*
X290509Y182835D01*
X290551Y182816D01*
X290628Y182807D01*
X290704Y182789D01*
X290750Y182794D01*
X290795Y182789D01*
X290872Y182805D01*
X290949Y182812D01*
X290991Y182831D01*
X291036Y182841D01*
X291103Y182881D01*
X291174Y182912D01*
X291208Y182943D01*
X291247Y182967D01*
X291298Y183026D01*
X291355Y183079D01*
X291377Y183119D01*
X291407Y183154D01*
X291436Y183226D01*
X291473Y183294D01*
X291482Y183339D01*
X291499Y183382D01*
X291514Y183518D01*
X291517Y183536D01*
X291516Y183541D01*
X291517Y183549D01*
X291517Y190292D01*
X292708Y191483D01*
X309392Y191483D01*
X310583Y190292D01*
X310583Y186335D01*
X310594Y186265D01*
X310596Y186193D01*
X310614Y186144D01*
X310622Y186093D01*
X310656Y186029D01*
X310681Y185962D01*
X310713Y185921D01*
X310738Y185875D01*
X310790Y185826D01*
X310834Y185770D01*
X310878Y185742D01*
X310916Y185706D01*
X310981Y185676D01*
X311041Y185637D01*
X311092Y185624D01*
X311139Y185602D01*
X311210Y185594D01*
X311280Y185577D01*
X311332Y185581D01*
X311383Y185575D01*
X311454Y185590D01*
X311525Y185596D01*
X311573Y185616D01*
X311624Y185627D01*
X311685Y185664D01*
X311751Y185692D01*
X311807Y185737D01*
X311835Y185754D01*
X311850Y185771D01*
X311882Y185797D01*
X312963Y186878D01*
X315577Y187961D01*
X318407Y187961D01*
X321021Y186878D01*
X323022Y184877D01*
X324105Y182263D01*
X324105Y179433D01*
X323893Y178923D01*
X323867Y178809D01*
X323838Y178696D01*
X323839Y178689D01*
X323837Y178683D01*
X323848Y178567D01*
X323857Y178451D01*
X323860Y178445D01*
X323860Y178438D01*
X323908Y178331D01*
X323954Y178224D01*
X323958Y178218D01*
X323960Y178214D01*
X323973Y178200D01*
X324058Y178093D01*
X372904Y129247D01*
X372957Y129209D01*
X373004Y129163D01*
X373077Y129123D01*
X373104Y129104D01*
X373123Y129098D01*
X373151Y129082D01*
X373781Y128821D01*
X373895Y128795D01*
X374008Y128766D01*
X374015Y128767D01*
X374021Y128765D01*
X374137Y128776D01*
X374253Y128785D01*
X374259Y128788D01*
X374266Y128788D01*
X374373Y128836D01*
X374480Y128882D01*
X374486Y128886D01*
X374490Y128888D01*
X374504Y128901D01*
X374611Y128986D01*
X374657Y129033D01*
X399583Y129033D01*
X399653Y129044D01*
X399725Y129046D01*
X399774Y129064D01*
X399825Y129072D01*
X399889Y129106D01*
X399956Y129131D01*
X399997Y129163D01*
X400043Y129188D01*
X400092Y129240D01*
X400148Y129284D01*
X400176Y129328D01*
X400212Y129366D01*
X400242Y129431D01*
X400281Y129491D01*
X400294Y129542D01*
X400316Y129589D01*
X400324Y129660D01*
X400341Y129730D01*
X400337Y129782D01*
X400343Y129833D01*
X400328Y129904D01*
X400322Y129975D01*
X400302Y130023D01*
X400291Y130074D01*
X400254Y130135D01*
X400226Y130201D01*
X400181Y130257D01*
X400164Y130285D01*
X400147Y130300D01*
X400121Y130332D01*
X398338Y132115D01*
X397255Y134729D01*
X397255Y137559D01*
X397467Y138069D01*
X397493Y138182D01*
X397522Y138296D01*
X397521Y138303D01*
X397523Y138309D01*
X397512Y138425D01*
X397503Y138541D01*
X397500Y138547D01*
X397500Y138553D01*
X397452Y138661D01*
X397406Y138768D01*
X397402Y138774D01*
X397400Y138778D01*
X397387Y138792D01*
X397302Y138899D01*
X333612Y202588D01*
X333596Y202600D01*
X333583Y202616D01*
X333496Y202672D01*
X333412Y202732D01*
X333393Y202738D01*
X333376Y202749D01*
X333276Y202774D01*
X333177Y202804D01*
X333157Y202804D01*
X333138Y202809D01*
X333035Y202801D01*
X332931Y202798D01*
X332912Y202791D01*
X332893Y202790D01*
X332798Y202749D01*
X332700Y202714D01*
X332685Y202701D01*
X332666Y202693D01*
X332535Y202588D01*
X331181Y201234D01*
X328567Y200151D01*
X325737Y200151D01*
X323123Y201234D01*
X321122Y203235D01*
X320039Y205849D01*
X320039Y208679D01*
X321122Y211293D01*
X323123Y213294D01*
X325737Y214377D01*
X328567Y214377D01*
X331181Y213294D01*
X333182Y211293D01*
X333393Y210783D01*
X333455Y210683D01*
X333515Y210583D01*
X333520Y210579D01*
X333523Y210574D01*
X333613Y210499D01*
X333702Y210423D01*
X333708Y210421D01*
X333712Y210417D01*
X333821Y210375D01*
X333930Y210331D01*
X333937Y210330D01*
X333942Y210329D01*
X333960Y210328D01*
X334097Y210313D01*
X334511Y210313D01*
X401613Y143210D01*
X401708Y143143D01*
X401802Y143072D01*
X401808Y143070D01*
X401813Y143067D01*
X401924Y143032D01*
X402036Y142996D01*
X402042Y142996D01*
X402048Y142994D01*
X402165Y142997D01*
X402282Y142999D01*
X402289Y143001D01*
X402294Y143001D01*
X402311Y143007D01*
X402443Y143045D01*
X402953Y143257D01*
X405783Y143257D01*
X408397Y142174D01*
X410398Y140173D01*
X411481Y137559D01*
X411481Y134729D01*
X410398Y132115D01*
X408615Y130332D01*
X408573Y130274D01*
X408524Y130222D01*
X408502Y130175D01*
X408472Y130133D01*
X408451Y130064D01*
X408420Y129999D01*
X408415Y129947D01*
X408399Y129897D01*
X408401Y129826D01*
X408393Y129755D01*
X408404Y129704D01*
X408406Y129652D01*
X408430Y129584D01*
X408445Y129514D01*
X408472Y129469D01*
X408490Y129421D01*
X408535Y129365D01*
X408572Y129303D01*
X408611Y129269D01*
X408644Y129229D01*
X408704Y129190D01*
X408759Y129143D01*
X408807Y129124D01*
X408851Y129096D01*
X408920Y129078D01*
X408987Y129051D01*
X409058Y129043D01*
X409089Y129035D01*
X409113Y129037D01*
X409153Y129033D01*
X452756Y129033D01*
X452776Y129036D01*
X452795Y129034D01*
X452897Y129056D01*
X452999Y129072D01*
X453016Y129082D01*
X453036Y129086D01*
X453125Y129139D01*
X453216Y129188D01*
X453230Y129202D01*
X453247Y129212D01*
X453314Y129291D01*
X453386Y129366D01*
X453394Y129384D01*
X453407Y129399D01*
X453446Y129495D01*
X453489Y129589D01*
X453491Y129609D01*
X453499Y129627D01*
X453517Y129794D01*
X453517Y130292D01*
X454708Y131483D01*
X471392Y131483D01*
X472583Y130292D01*
X472583Y118608D01*
X471392Y117417D01*
X454708Y117417D01*
X453517Y118608D01*
X453517Y122174D01*
X453514Y122194D01*
X453516Y122213D01*
X453494Y122315D01*
X453478Y122417D01*
X453468Y122434D01*
X453464Y122454D01*
X453411Y122543D01*
X453362Y122634D01*
X453348Y122648D01*
X453338Y122665D01*
X453259Y122732D01*
X453184Y122804D01*
X453166Y122812D01*
X453151Y122825D01*
X453055Y122864D01*
X452961Y122907D01*
X452941Y122909D01*
X452923Y122917D01*
X452756Y122935D01*
X379730Y122935D01*
X379710Y122932D01*
X379691Y122934D01*
X379589Y122912D01*
X379487Y122896D01*
X379470Y122886D01*
X379450Y122882D01*
X379361Y122829D01*
X379270Y122780D01*
X379256Y122766D01*
X379239Y122756D01*
X379172Y122677D01*
X379100Y122602D01*
X379092Y122584D01*
X379079Y122569D01*
X379040Y122473D01*
X378997Y122379D01*
X378995Y122359D01*
X378987Y122341D01*
X378969Y122174D01*
X378969Y120505D01*
X377886Y117891D01*
X375885Y115890D01*
X373271Y114807D01*
X370441Y114807D01*
X367827Y115890D01*
X365826Y117891D01*
X364743Y120505D01*
X364743Y123335D01*
X365826Y125949D01*
X366164Y126287D01*
X366176Y126304D01*
X366192Y126316D01*
X366248Y126403D01*
X366308Y126487D01*
X366314Y126506D01*
X366325Y126523D01*
X366350Y126623D01*
X366380Y126722D01*
X366380Y126742D01*
X366385Y126761D01*
X366377Y126864D01*
X366374Y126968D01*
X366367Y126987D01*
X366366Y127007D01*
X366325Y127102D01*
X366290Y127199D01*
X366277Y127215D01*
X366269Y127233D01*
X366164Y127364D01*
X364012Y129516D01*
X363954Y129558D01*
X363902Y129607D01*
X363855Y129629D01*
X363813Y129660D01*
X363744Y129681D01*
X363679Y129711D01*
X363627Y129717D01*
X363577Y129732D01*
X363506Y129730D01*
X363435Y129738D01*
X363384Y129727D01*
X363332Y129726D01*
X363264Y129701D01*
X363194Y129686D01*
X363149Y129659D01*
X363101Y129641D01*
X363045Y129596D01*
X362983Y129560D01*
X362949Y129520D01*
X362909Y129488D01*
X362870Y129427D01*
X362823Y129373D01*
X362804Y129324D01*
X362776Y129281D01*
X362758Y129211D01*
X362731Y129145D01*
X362723Y129073D01*
X362715Y129042D01*
X362717Y129019D01*
X362713Y128978D01*
X362713Y100417D01*
X362716Y100398D01*
X362714Y100380D01*
X362733Y100291D01*
X362749Y100186D01*
X362751Y100180D01*
X362752Y100174D01*
X362763Y100154D01*
X362766Y100140D01*
X362806Y100073D01*
X362807Y100072D01*
X362860Y99966D01*
X362865Y99962D01*
X362868Y99956D01*
X362886Y99939D01*
X362892Y99929D01*
X362940Y99887D01*
X362952Y99877D01*
X363036Y99794D01*
X363042Y99791D01*
X363046Y99787D01*
X363063Y99779D01*
X363074Y99773D01*
X363079Y99769D01*
X363090Y99764D01*
X363183Y99713D01*
X363693Y99502D01*
X365694Y97501D01*
X365905Y96991D01*
X365967Y96891D01*
X366027Y96791D01*
X366032Y96787D01*
X366035Y96782D01*
X366125Y96707D01*
X366214Y96631D01*
X366220Y96629D01*
X366224Y96625D01*
X366333Y96583D01*
X366442Y96539D01*
X366449Y96538D01*
X366454Y96537D01*
X366472Y96536D01*
X366609Y96521D01*
X439366Y96521D01*
X439456Y96535D01*
X439547Y96543D01*
X439577Y96555D01*
X439609Y96560D01*
X439689Y96603D01*
X439773Y96639D01*
X439805Y96665D01*
X439826Y96676D01*
X439848Y96699D01*
X439904Y96744D01*
X449841Y106681D01*
X452756Y106681D01*
X452776Y106684D01*
X452795Y106682D01*
X452897Y106704D01*
X452999Y106720D01*
X453016Y106730D01*
X453036Y106734D01*
X453125Y106787D01*
X453216Y106836D01*
X453230Y106850D01*
X453247Y106860D01*
X453314Y106939D01*
X453386Y107014D01*
X453394Y107032D01*
X453407Y107047D01*
X453446Y107143D01*
X453489Y107237D01*
X453491Y107257D01*
X453499Y107275D01*
X453517Y107442D01*
X453517Y110292D01*
X454708Y111483D01*
X471392Y111483D01*
X472583Y110292D01*
X472583Y102812D01*
X472594Y102741D01*
X472596Y102670D01*
X472614Y102621D01*
X472622Y102569D01*
X472656Y102506D01*
X472681Y102439D01*
X472713Y102398D01*
X472738Y102352D01*
X472789Y102303D01*
X472834Y102247D01*
X472878Y102218D01*
X472916Y102183D01*
X472981Y102152D01*
X473041Y102114D01*
X473092Y102101D01*
X473139Y102079D01*
X473210Y102071D01*
X473280Y102054D01*
X473332Y102058D01*
X473383Y102052D01*
X473454Y102067D01*
X473525Y102073D01*
X473573Y102093D01*
X473624Y102104D01*
X473685Y102141D01*
X473751Y102169D01*
X473807Y102214D01*
X473835Y102230D01*
X473850Y102248D01*
X473882Y102274D01*
X474248Y102640D01*
X474302Y102714D01*
X474361Y102783D01*
X474373Y102813D01*
X474392Y102840D01*
X474419Y102927D01*
X474453Y103011D01*
X474457Y103052D01*
X474464Y103075D01*
X474463Y103107D01*
X474471Y103178D01*
X474471Y138630D01*
X474457Y138720D01*
X474449Y138811D01*
X474437Y138841D01*
X474432Y138873D01*
X474389Y138953D01*
X474353Y139037D01*
X474327Y139069D01*
X474316Y139090D01*
X474293Y139112D01*
X474248Y139168D01*
X473882Y139534D01*
X473824Y139576D01*
X473772Y139625D01*
X473725Y139647D01*
X473683Y139678D01*
X473614Y139699D01*
X473549Y139729D01*
X473497Y139735D01*
X473447Y139750D01*
X473376Y139748D01*
X473305Y139756D01*
X473254Y139745D01*
X473202Y139744D01*
X473134Y139719D01*
X473064Y139704D01*
X473019Y139677D01*
X472971Y139659D01*
X472915Y139614D01*
X472853Y139578D01*
X472819Y139538D01*
X472779Y139506D01*
X472740Y139445D01*
X472693Y139391D01*
X472674Y139342D01*
X472646Y139299D01*
X472628Y139229D01*
X472601Y139163D01*
X472593Y139091D01*
X472585Y139060D01*
X472587Y139037D01*
X472583Y138996D01*
X472583Y138608D01*
X471392Y137417D01*
X454708Y137417D01*
X453517Y138608D01*
X453517Y150292D01*
X454708Y151483D01*
X471392Y151483D01*
X472583Y150292D01*
X472583Y148082D01*
X472586Y148062D01*
X472584Y148043D01*
X472606Y147941D01*
X472622Y147839D01*
X472632Y147822D01*
X472636Y147802D01*
X472689Y147713D01*
X472738Y147622D01*
X472752Y147608D01*
X472762Y147591D01*
X472841Y147524D01*
X472916Y147452D01*
X472934Y147444D01*
X472949Y147431D01*
X473045Y147392D01*
X473139Y147349D01*
X473159Y147347D01*
X473177Y147339D01*
X473344Y147321D01*
X474719Y147321D01*
X480569Y141471D01*
X480569Y100337D01*
X472664Y92432D01*
X472091Y91860D01*
X472080Y91844D01*
X472064Y91831D01*
X472008Y91744D01*
X471948Y91660D01*
X471942Y91641D01*
X471931Y91624D01*
X471906Y91524D01*
X471876Y91425D01*
X471876Y91405D01*
X471871Y91386D01*
X471879Y91283D01*
X471882Y91179D01*
X471889Y91160D01*
X471890Y91141D01*
X471931Y91046D01*
X471966Y90948D01*
X471979Y90933D01*
X471987Y90914D01*
X472091Y90783D01*
X472583Y90292D01*
X472583Y78608D01*
X471392Y77417D01*
X454708Y77417D01*
X453517Y78608D01*
X453517Y79502D01*
X453514Y79522D01*
X453516Y79541D01*
X453494Y79643D01*
X453478Y79745D01*
X453468Y79762D01*
X453464Y79782D01*
X453411Y79871D01*
X453362Y79962D01*
X453348Y79976D01*
X453338Y79993D01*
X453259Y80060D01*
X453184Y80132D01*
X453166Y80140D01*
X453151Y80153D01*
X453055Y80192D01*
X452961Y80235D01*
X452941Y80237D01*
X452923Y80245D01*
X452756Y80263D01*
X438458Y80263D01*
X438368Y80249D01*
X438277Y80241D01*
X438247Y80229D01*
X438215Y80224D01*
X438135Y80181D01*
X438051Y80145D01*
X438019Y80119D01*
X437998Y80108D01*
X437976Y80085D01*
X437920Y80040D01*
X413466Y55587D01*
X413399Y55492D01*
X413328Y55398D01*
X413326Y55392D01*
X413323Y55387D01*
X413288Y55276D01*
X413252Y55164D01*
X413252Y55158D01*
X413250Y55152D01*
X413253Y55035D01*
X413255Y54918D01*
X413257Y54911D01*
X413257Y54906D01*
X413263Y54889D01*
X413301Y54757D01*
X413513Y54247D01*
X413513Y51417D01*
X412430Y48803D01*
X410429Y46802D01*
X407815Y45719D01*
X404985Y45719D01*
X402371Y46802D01*
X400842Y48331D01*
X400826Y48342D01*
X400814Y48358D01*
X400726Y48414D01*
X400643Y48474D01*
X400624Y48480D01*
X400607Y48491D01*
X400506Y48516D01*
X400407Y48547D01*
X400388Y48546D01*
X400368Y48551D01*
X400265Y48543D01*
X400162Y48540D01*
X400143Y48533D01*
X400123Y48532D01*
X400028Y48492D01*
X399931Y48456D01*
X399915Y48443D01*
X399897Y48436D01*
X399766Y48331D01*
X398237Y46802D01*
X395623Y45719D01*
X395278Y45719D01*
X395207Y45708D01*
X395136Y45706D01*
X395087Y45688D01*
X395035Y45680D01*
X394972Y45646D01*
X394905Y45621D01*
X394864Y45589D01*
X394818Y45564D01*
X394769Y45513D01*
X394713Y45468D01*
X394684Y45424D01*
X394649Y45386D01*
X394618Y45321D01*
X394580Y45261D01*
X394567Y45210D01*
X394545Y45163D01*
X394537Y45092D01*
X394520Y45022D01*
X394524Y44970D01*
X394518Y44919D01*
X394533Y44848D01*
X394539Y44777D01*
X394559Y44729D01*
X394570Y44678D01*
X394607Y44617D01*
X394635Y44551D01*
X394680Y44495D01*
X394696Y44467D01*
X394714Y44452D01*
X394740Y44420D01*
X408846Y30314D01*
X408940Y30246D01*
X409034Y30176D01*
X409040Y30174D01*
X409045Y30170D01*
X409157Y30136D01*
X409268Y30100D01*
X409274Y30100D01*
X409280Y30098D01*
X409397Y30101D01*
X409514Y30102D01*
X409521Y30104D01*
X409526Y30104D01*
X409544Y30111D01*
X409675Y30149D01*
X410476Y30481D01*
X415024Y30481D01*
X419225Y28740D01*
X422440Y25525D01*
X424181Y21324D01*
X424181Y16776D01*
X422440Y12575D01*
X420310Y10444D01*
X420268Y10386D01*
X420219Y10334D01*
X420197Y10287D01*
X420166Y10245D01*
X420145Y10176D01*
X420115Y10111D01*
X420109Y10059D01*
X420094Y10009D01*
X420096Y9938D01*
X420088Y9867D01*
X420099Y9816D01*
X420100Y9764D01*
X420125Y9696D01*
X420140Y9626D01*
X420167Y9581D01*
X420185Y9533D01*
X420230Y9477D01*
X420266Y9415D01*
X420306Y9381D01*
X420338Y9341D01*
X420399Y9302D01*
X420453Y9255D01*
X420501Y9236D01*
X420545Y9208D01*
X420615Y9190D01*
X420681Y9163D01*
X420753Y9155D01*
X420784Y9147D01*
X420807Y9149D01*
X420848Y9145D01*
X421078Y9145D01*
X421168Y9159D01*
X421259Y9167D01*
X421289Y9179D01*
X421321Y9184D01*
X421401Y9227D01*
X421485Y9263D01*
X421517Y9289D01*
X421538Y9300D01*
X421560Y9323D01*
X421616Y9368D01*
X460024Y47776D01*
X460077Y47850D01*
X460137Y47919D01*
X460149Y47949D01*
X460168Y47976D01*
X460195Y48063D01*
X460229Y48147D01*
X460233Y48188D01*
X460240Y48211D01*
X460239Y48243D01*
X460247Y48314D01*
X460247Y56656D01*
X460244Y56676D01*
X460246Y56695D01*
X460224Y56797D01*
X460208Y56899D01*
X460198Y56916D01*
X460194Y56936D01*
X460141Y57025D01*
X460092Y57116D01*
X460078Y57130D01*
X460068Y57147D01*
X459989Y57214D01*
X459914Y57286D01*
X459896Y57294D01*
X459881Y57307D01*
X459785Y57346D01*
X459691Y57389D01*
X459671Y57391D01*
X459653Y57399D01*
X459486Y57417D01*
X454708Y57417D01*
X453517Y58608D01*
X453517Y70292D01*
X454708Y71483D01*
X471392Y71483D01*
X472583Y70292D01*
X472583Y58608D01*
X471392Y57417D01*
X467106Y57417D01*
X467086Y57414D01*
X467067Y57416D01*
X466965Y57394D01*
X466863Y57378D01*
X466846Y57368D01*
X466826Y57364D01*
X466737Y57311D01*
X466646Y57262D01*
X466632Y57248D01*
X466615Y57238D01*
X466548Y57159D01*
X466476Y57084D01*
X466468Y57066D01*
X466455Y57051D01*
X466416Y56955D01*
X466373Y56861D01*
X466371Y56841D01*
X466363Y56823D01*
X466345Y56656D01*
X466345Y45473D01*
X425928Y5056D01*
X425912Y5041D01*
X425870Y4982D01*
X425821Y4930D01*
X425799Y4883D01*
X425769Y4841D01*
X425747Y4772D01*
X425717Y4707D01*
X425711Y4656D01*
X425696Y4606D01*
X425698Y4534D01*
X425690Y4463D01*
X425701Y4412D01*
X425702Y4360D01*
X425727Y4293D01*
X425742Y4222D01*
X425769Y4178D01*
X425786Y4129D01*
X425831Y4073D01*
X425868Y4011D01*
X425908Y3977D01*
X425940Y3937D01*
X426000Y3898D01*
X426055Y3851D01*
X426103Y3832D01*
X426147Y3804D01*
X426216Y3786D01*
X426283Y3759D01*
X426354Y3751D01*
X426385Y3744D01*
X426409Y3745D01*
X426450Y3741D01*
X504091Y3741D01*
X504111Y3744D01*
G37*
G36*
X176039Y66051D02*
X176039Y66051D01*
X176142Y66053D01*
X176161Y66060D01*
X176181Y66062D01*
X176276Y66102D01*
X176373Y66138D01*
X176389Y66150D01*
X176407Y66158D01*
X176538Y66263D01*
X177008Y66733D01*
X179070Y66733D01*
X179090Y66736D01*
X179109Y66734D01*
X179211Y66756D01*
X179313Y66772D01*
X179330Y66782D01*
X179350Y66786D01*
X179439Y66839D01*
X179530Y66888D01*
X179544Y66902D01*
X179561Y66912D01*
X179628Y66991D01*
X179700Y67066D01*
X179708Y67084D01*
X179721Y67099D01*
X179760Y67195D01*
X179803Y67289D01*
X179805Y67309D01*
X179813Y67327D01*
X179831Y67494D01*
X179831Y70351D01*
X185681Y76201D01*
X186095Y76201D01*
X186210Y76220D01*
X186326Y76237D01*
X186332Y76239D01*
X186338Y76240D01*
X186440Y76295D01*
X186546Y76348D01*
X186550Y76353D01*
X186556Y76356D01*
X186635Y76440D01*
X186718Y76524D01*
X186721Y76530D01*
X186725Y76534D01*
X186733Y76551D01*
X186799Y76671D01*
X187010Y77181D01*
X189011Y79182D01*
X191625Y80265D01*
X194455Y80265D01*
X197069Y79182D01*
X199070Y77181D01*
X200153Y74567D01*
X200153Y74222D01*
X200164Y74151D01*
X200166Y74080D01*
X200184Y74031D01*
X200192Y73979D01*
X200226Y73916D01*
X200251Y73849D01*
X200283Y73808D01*
X200308Y73762D01*
X200360Y73713D01*
X200404Y73657D01*
X200448Y73628D01*
X200486Y73593D01*
X200551Y73562D01*
X200611Y73524D01*
X200662Y73511D01*
X200709Y73489D01*
X200780Y73481D01*
X200850Y73464D01*
X200902Y73468D01*
X200953Y73462D01*
X201024Y73477D01*
X201095Y73483D01*
X201143Y73503D01*
X201194Y73514D01*
X201255Y73551D01*
X201321Y73579D01*
X201377Y73624D01*
X201405Y73640D01*
X201420Y73658D01*
X201452Y73684D01*
X230678Y102909D01*
X230745Y103003D01*
X230816Y103098D01*
X230818Y103104D01*
X230821Y103109D01*
X230855Y103220D01*
X230892Y103332D01*
X230892Y103338D01*
X230894Y103344D01*
X230891Y103461D01*
X230890Y103484D01*
X230893Y103504D01*
X230890Y103516D01*
X230889Y103578D01*
X230887Y103585D01*
X230887Y103590D01*
X230881Y103607D01*
X230843Y103739D01*
X230631Y104249D01*
X230631Y107079D01*
X231714Y109693D01*
X233715Y111694D01*
X236329Y112777D01*
X239159Y112777D01*
X241773Y111694D01*
X242518Y110949D01*
X242576Y110907D01*
X242628Y110858D01*
X242675Y110836D01*
X242717Y110806D01*
X242786Y110785D01*
X242851Y110754D01*
X242903Y110749D01*
X242953Y110733D01*
X243024Y110735D01*
X243095Y110727D01*
X243146Y110738D01*
X243198Y110740D01*
X243266Y110764D01*
X243336Y110779D01*
X243381Y110806D01*
X243429Y110824D01*
X243485Y110869D01*
X243547Y110906D01*
X243581Y110945D01*
X243621Y110978D01*
X243660Y111038D01*
X243707Y111093D01*
X243726Y111141D01*
X243754Y111185D01*
X243772Y111254D01*
X243799Y111321D01*
X243807Y111392D01*
X243815Y111423D01*
X243813Y111447D01*
X243817Y111487D01*
X243817Y113292D01*
X244287Y113762D01*
X244299Y113778D01*
X244314Y113790D01*
X244370Y113878D01*
X244431Y113961D01*
X244436Y113980D01*
X244447Y113997D01*
X244472Y114098D01*
X244503Y114197D01*
X244502Y114216D01*
X244507Y114236D01*
X244499Y114339D01*
X244497Y114442D01*
X244490Y114461D01*
X244488Y114481D01*
X244448Y114576D01*
X244412Y114673D01*
X244400Y114689D01*
X244392Y114707D01*
X244287Y114838D01*
X243817Y115308D01*
X243817Y125992D01*
X244287Y126462D01*
X244299Y126478D01*
X244314Y126490D01*
X244370Y126578D01*
X244431Y126661D01*
X244436Y126680D01*
X244447Y126697D01*
X244472Y126798D01*
X244503Y126897D01*
X244502Y126916D01*
X244507Y126936D01*
X244499Y127039D01*
X244497Y127142D01*
X244490Y127161D01*
X244488Y127181D01*
X244448Y127276D01*
X244412Y127373D01*
X244400Y127389D01*
X244392Y127407D01*
X244287Y127538D01*
X243817Y128008D01*
X243817Y138692D01*
X244287Y139162D01*
X244299Y139178D01*
X244314Y139190D01*
X244370Y139278D01*
X244431Y139361D01*
X244436Y139380D01*
X244447Y139397D01*
X244472Y139498D01*
X244503Y139597D01*
X244502Y139616D01*
X244507Y139636D01*
X244499Y139739D01*
X244497Y139842D01*
X244490Y139861D01*
X244488Y139881D01*
X244448Y139976D01*
X244412Y140073D01*
X244400Y140089D01*
X244392Y140107D01*
X244287Y140238D01*
X243817Y140708D01*
X243817Y151392D01*
X244287Y151862D01*
X244299Y151878D01*
X244314Y151890D01*
X244370Y151978D01*
X244431Y152061D01*
X244436Y152080D01*
X244447Y152097D01*
X244472Y152198D01*
X244503Y152297D01*
X244502Y152316D01*
X244507Y152336D01*
X244499Y152439D01*
X244497Y152542D01*
X244490Y152561D01*
X244488Y152581D01*
X244448Y152676D01*
X244412Y152773D01*
X244400Y152789D01*
X244392Y152807D01*
X244287Y152938D01*
X243817Y153408D01*
X243817Y164092D01*
X244287Y164562D01*
X244299Y164578D01*
X244314Y164590D01*
X244370Y164678D01*
X244431Y164761D01*
X244436Y164780D01*
X244447Y164797D01*
X244472Y164898D01*
X244503Y164997D01*
X244502Y165016D01*
X244507Y165036D01*
X244499Y165139D01*
X244497Y165242D01*
X244490Y165261D01*
X244488Y165281D01*
X244448Y165376D01*
X244412Y165473D01*
X244400Y165489D01*
X244392Y165507D01*
X244306Y165615D01*
X244305Y165617D01*
X244303Y165618D01*
X244287Y165638D01*
X243817Y166108D01*
X243817Y176792D01*
X244287Y177262D01*
X244299Y177278D01*
X244314Y177290D01*
X244370Y177378D01*
X244431Y177461D01*
X244436Y177480D01*
X244447Y177497D01*
X244472Y177598D01*
X244503Y177697D01*
X244502Y177716D01*
X244507Y177736D01*
X244499Y177839D01*
X244497Y177942D01*
X244490Y177961D01*
X244488Y177981D01*
X244448Y178076D01*
X244412Y178173D01*
X244400Y178189D01*
X244392Y178207D01*
X244287Y178338D01*
X243817Y178808D01*
X243817Y189492D01*
X243928Y189602D01*
X243939Y189619D01*
X243955Y189631D01*
X244011Y189718D01*
X244071Y189802D01*
X244077Y189821D01*
X244088Y189838D01*
X244113Y189938D01*
X244144Y190037D01*
X244143Y190057D01*
X244148Y190077D01*
X244140Y190180D01*
X244137Y190283D01*
X244130Y190302D01*
X244129Y190322D01*
X244088Y190417D01*
X244053Y190514D01*
X244040Y190530D01*
X244033Y190548D01*
X243928Y190679D01*
X243817Y190790D01*
X243482Y191369D01*
X243309Y192016D01*
X243309Y192805D01*
X243298Y192875D01*
X243296Y192947D01*
X243278Y192996D01*
X243270Y193047D01*
X243236Y193111D01*
X243211Y193178D01*
X243179Y193219D01*
X243154Y193265D01*
X243103Y193314D01*
X243058Y193370D01*
X243014Y193398D01*
X242976Y193434D01*
X242911Y193464D01*
X242851Y193503D01*
X242800Y193516D01*
X242753Y193538D01*
X242682Y193546D01*
X242612Y193563D01*
X242560Y193559D01*
X242509Y193565D01*
X242438Y193550D01*
X242367Y193544D01*
X242319Y193524D01*
X242268Y193513D01*
X242207Y193476D01*
X242141Y193448D01*
X242085Y193403D01*
X242057Y193386D01*
X242042Y193369D01*
X242010Y193343D01*
X241773Y193106D01*
X239159Y192023D01*
X236329Y192023D01*
X233717Y193105D01*
X233673Y193116D01*
X233631Y193135D01*
X233554Y193144D01*
X233478Y193161D01*
X233432Y193157D01*
X233387Y193162D01*
X233310Y193146D01*
X233233Y193138D01*
X233191Y193120D01*
X233146Y193110D01*
X233079Y193070D01*
X233008Y193038D01*
X232974Y193007D01*
X232935Y192984D01*
X232884Y192925D01*
X232827Y192872D01*
X232805Y192832D01*
X232775Y192797D01*
X232746Y192725D01*
X232709Y192656D01*
X232700Y192611D01*
X232683Y192569D01*
X232668Y192433D01*
X232665Y192414D01*
X232666Y192409D01*
X232665Y192402D01*
X232665Y189593D01*
X231582Y186979D01*
X229581Y184978D01*
X226967Y183895D01*
X224137Y183895D01*
X221523Y184978D01*
X219522Y186979D01*
X219311Y187489D01*
X219249Y187589D01*
X219189Y187689D01*
X219184Y187693D01*
X219181Y187698D01*
X219091Y187773D01*
X219002Y187849D01*
X218996Y187851D01*
X218992Y187855D01*
X218883Y187897D01*
X218774Y187941D01*
X218767Y187942D01*
X218762Y187943D01*
X218744Y187944D01*
X218607Y187959D01*
X124721Y187959D01*
X104647Y208033D01*
X104647Y211906D01*
X104644Y211926D01*
X104646Y211945D01*
X104624Y212047D01*
X104608Y212149D01*
X104598Y212166D01*
X104594Y212186D01*
X104541Y212275D01*
X104492Y212366D01*
X104478Y212380D01*
X104468Y212397D01*
X104389Y212464D01*
X104314Y212536D01*
X104296Y212544D01*
X104281Y212557D01*
X104185Y212596D01*
X104091Y212639D01*
X104071Y212641D01*
X104053Y212649D01*
X103886Y212667D01*
X100808Y212667D01*
X100338Y213137D01*
X100322Y213149D01*
X100310Y213164D01*
X100222Y213220D01*
X100139Y213281D01*
X100120Y213286D01*
X100103Y213297D01*
X100002Y213322D01*
X99903Y213353D01*
X99884Y213352D01*
X99864Y213357D01*
X99761Y213349D01*
X99658Y213347D01*
X99639Y213340D01*
X99619Y213338D01*
X99524Y213298D01*
X99427Y213262D01*
X99411Y213250D01*
X99393Y213242D01*
X99262Y213137D01*
X98792Y212667D01*
X91837Y212667D01*
X91767Y212656D01*
X91695Y212654D01*
X91646Y212636D01*
X91595Y212628D01*
X91531Y212594D01*
X91464Y212569D01*
X91423Y212537D01*
X91377Y212512D01*
X91328Y212460D01*
X91272Y212416D01*
X91244Y212372D01*
X91208Y212334D01*
X91178Y212269D01*
X91139Y212209D01*
X91126Y212158D01*
X91104Y212111D01*
X91096Y212040D01*
X91079Y211970D01*
X91083Y211918D01*
X91077Y211867D01*
X91092Y211796D01*
X91098Y211725D01*
X91118Y211677D01*
X91129Y211626D01*
X91166Y211565D01*
X91194Y211499D01*
X91239Y211443D01*
X91256Y211415D01*
X91273Y211400D01*
X91299Y211368D01*
X91374Y211293D01*
X92457Y208679D01*
X92457Y205849D01*
X91374Y203235D01*
X89373Y201234D01*
X88863Y201023D01*
X88763Y200961D01*
X88663Y200901D01*
X88659Y200896D01*
X88654Y200893D01*
X88579Y200803D01*
X88503Y200714D01*
X88501Y200708D01*
X88497Y200704D01*
X88455Y200595D01*
X88411Y200486D01*
X88410Y200479D01*
X88409Y200474D01*
X88408Y200456D01*
X88393Y200319D01*
X88393Y160074D01*
X88407Y159984D01*
X88415Y159893D01*
X88427Y159863D01*
X88432Y159831D01*
X88475Y159751D01*
X88511Y159667D01*
X88537Y159635D01*
X88548Y159614D01*
X88571Y159592D01*
X88616Y159536D01*
X135129Y113023D01*
X135129Y67494D01*
X135132Y67474D01*
X135130Y67455D01*
X135152Y67353D01*
X135168Y67251D01*
X135178Y67234D01*
X135182Y67214D01*
X135235Y67125D01*
X135284Y67034D01*
X135298Y67020D01*
X135308Y67003D01*
X135387Y66936D01*
X135462Y66864D01*
X135480Y66856D01*
X135495Y66843D01*
X135591Y66804D01*
X135685Y66761D01*
X135705Y66759D01*
X135723Y66751D01*
X135890Y66733D01*
X136892Y66733D01*
X137362Y66263D01*
X137378Y66251D01*
X137390Y66236D01*
X137478Y66180D01*
X137561Y66119D01*
X137580Y66114D01*
X137597Y66103D01*
X137698Y66078D01*
X137797Y66047D01*
X137816Y66048D01*
X137836Y66043D01*
X137939Y66051D01*
X138042Y66053D01*
X138061Y66060D01*
X138081Y66062D01*
X138176Y66102D01*
X138273Y66138D01*
X138289Y66150D01*
X138307Y66158D01*
X138438Y66263D01*
X138908Y66733D01*
X149592Y66733D01*
X150062Y66263D01*
X150078Y66251D01*
X150090Y66236D01*
X150178Y66180D01*
X150261Y66119D01*
X150280Y66114D01*
X150297Y66103D01*
X150398Y66078D01*
X150497Y66047D01*
X150516Y66048D01*
X150536Y66043D01*
X150639Y66051D01*
X150742Y66053D01*
X150761Y66060D01*
X150781Y66062D01*
X150876Y66102D01*
X150973Y66138D01*
X150989Y66150D01*
X151007Y66158D01*
X151138Y66263D01*
X151608Y66733D01*
X162292Y66733D01*
X162762Y66263D01*
X162778Y66251D01*
X162790Y66236D01*
X162878Y66180D01*
X162961Y66119D01*
X162980Y66114D01*
X162997Y66103D01*
X163098Y66078D01*
X163197Y66047D01*
X163216Y66048D01*
X163236Y66043D01*
X163339Y66051D01*
X163442Y66053D01*
X163461Y66060D01*
X163481Y66062D01*
X163576Y66102D01*
X163673Y66138D01*
X163689Y66150D01*
X163707Y66158D01*
X163838Y66263D01*
X164308Y66733D01*
X174992Y66733D01*
X175462Y66263D01*
X175478Y66251D01*
X175490Y66236D01*
X175578Y66180D01*
X175661Y66119D01*
X175680Y66114D01*
X175697Y66103D01*
X175798Y66078D01*
X175897Y66047D01*
X175916Y66048D01*
X175936Y66043D01*
X176039Y66051D01*
G37*
G36*
X398613Y3752D02*
X398613Y3752D01*
X398684Y3754D01*
X398733Y3772D01*
X398785Y3780D01*
X398848Y3814D01*
X398915Y3839D01*
X398956Y3871D01*
X399002Y3896D01*
X399051Y3947D01*
X399107Y3992D01*
X399136Y4036D01*
X399171Y4074D01*
X399202Y4139D01*
X399240Y4199D01*
X399253Y4250D01*
X399275Y4297D01*
X399283Y4368D01*
X399300Y4438D01*
X399296Y4490D01*
X399302Y4541D01*
X399287Y4612D01*
X399281Y4683D01*
X399261Y4731D01*
X399250Y4782D01*
X399213Y4843D01*
X399185Y4909D01*
X399140Y4965D01*
X399124Y4993D01*
X399106Y5008D01*
X399080Y5040D01*
X394831Y9289D01*
X394815Y9301D01*
X394802Y9317D01*
X394715Y9373D01*
X394631Y9433D01*
X394612Y9439D01*
X394595Y9450D01*
X394495Y9475D01*
X394396Y9505D01*
X394376Y9505D01*
X394357Y9509D01*
X394254Y9501D01*
X394151Y9499D01*
X394132Y9492D01*
X394112Y9490D01*
X394017Y9450D01*
X393920Y9414D01*
X393904Y9402D01*
X393885Y9394D01*
X393861Y9375D01*
X389624Y7619D01*
X385076Y7619D01*
X380875Y9360D01*
X377660Y12575D01*
X375919Y16776D01*
X375919Y21324D01*
X377660Y25525D01*
X380875Y28740D01*
X385076Y30481D01*
X389624Y30481D01*
X393825Y28740D01*
X397040Y25525D01*
X398781Y21324D01*
X398781Y16776D01*
X398151Y15257D01*
X398125Y15143D01*
X398096Y15030D01*
X398097Y15023D01*
X398095Y15017D01*
X398106Y14901D01*
X398115Y14784D01*
X398118Y14779D01*
X398118Y14772D01*
X398166Y14665D01*
X398212Y14558D01*
X398216Y14552D01*
X398218Y14548D01*
X398231Y14534D01*
X398316Y14427D01*
X403376Y9368D01*
X403450Y9315D01*
X403519Y9255D01*
X403549Y9243D01*
X403576Y9224D01*
X403663Y9197D01*
X403747Y9163D01*
X403788Y9159D01*
X403811Y9152D01*
X403843Y9153D01*
X403914Y9145D01*
X404652Y9145D01*
X404723Y9156D01*
X404794Y9158D01*
X404843Y9176D01*
X404895Y9184D01*
X404958Y9218D01*
X405025Y9243D01*
X405066Y9275D01*
X405112Y9300D01*
X405161Y9352D01*
X405217Y9396D01*
X405246Y9440D01*
X405281Y9478D01*
X405312Y9543D01*
X405350Y9603D01*
X405363Y9654D01*
X405385Y9701D01*
X405393Y9772D01*
X405411Y9842D01*
X405406Y9894D01*
X405412Y9945D01*
X405397Y10016D01*
X405391Y10087D01*
X405371Y10135D01*
X405360Y10186D01*
X405323Y10247D01*
X405295Y10313D01*
X405250Y10369D01*
X405234Y10397D01*
X405216Y10412D01*
X405190Y10444D01*
X403060Y12575D01*
X401319Y16776D01*
X401319Y21324D01*
X403059Y25525D01*
X403497Y25963D01*
X403509Y25979D01*
X403524Y25991D01*
X403580Y26078D01*
X403641Y26162D01*
X403647Y26181D01*
X403657Y26198D01*
X403683Y26298D01*
X403713Y26397D01*
X403713Y26417D01*
X403717Y26437D01*
X403709Y26540D01*
X403707Y26643D01*
X403700Y26662D01*
X403698Y26682D01*
X403658Y26777D01*
X403622Y26874D01*
X403610Y26890D01*
X403602Y26908D01*
X403497Y27039D01*
X346163Y84374D01*
X346069Y84441D01*
X345974Y84512D01*
X345968Y84514D01*
X345963Y84517D01*
X345852Y84551D01*
X345740Y84588D01*
X345734Y84588D01*
X345728Y84590D01*
X345611Y84587D01*
X345494Y84585D01*
X345487Y84583D01*
X345482Y84583D01*
X345465Y84577D01*
X345333Y84539D01*
X344823Y84327D01*
X341993Y84327D01*
X341413Y84567D01*
X341369Y84578D01*
X341327Y84597D01*
X341250Y84606D01*
X341174Y84624D01*
X341128Y84619D01*
X341083Y84624D01*
X341006Y84608D01*
X340929Y84601D01*
X340887Y84582D01*
X340842Y84572D01*
X340775Y84532D01*
X340704Y84501D01*
X340670Y84469D01*
X340631Y84446D01*
X340580Y84387D01*
X340523Y84334D01*
X340501Y84294D01*
X340471Y84259D01*
X340442Y84187D01*
X340405Y84119D01*
X340396Y84073D01*
X340379Y84031D01*
X340364Y83895D01*
X340361Y83877D01*
X340362Y83872D01*
X340361Y83864D01*
X340361Y76033D01*
X340362Y76024D01*
X340362Y76020D01*
X340366Y76001D01*
X340380Y75918D01*
X340397Y75802D01*
X340399Y75796D01*
X340400Y75790D01*
X340455Y75688D01*
X340508Y75582D01*
X340513Y75578D01*
X340516Y75572D01*
X340600Y75493D01*
X340684Y75410D01*
X340690Y75407D01*
X340694Y75403D01*
X340711Y75395D01*
X340831Y75329D01*
X341341Y75118D01*
X343342Y73117D01*
X344425Y70503D01*
X344425Y67673D01*
X343342Y65059D01*
X341341Y63058D01*
X338727Y61975D01*
X335897Y61975D01*
X333283Y63058D01*
X331282Y65059D01*
X330199Y67673D01*
X330199Y70503D01*
X331282Y73117D01*
X333283Y75118D01*
X333793Y75329D01*
X333893Y75391D01*
X333993Y75451D01*
X333997Y75456D01*
X334002Y75459D01*
X334077Y75549D01*
X334153Y75638D01*
X334155Y75644D01*
X334159Y75648D01*
X334201Y75757D01*
X334245Y75866D01*
X334246Y75873D01*
X334247Y75878D01*
X334248Y75896D01*
X334263Y76033D01*
X334263Y83766D01*
X334249Y83856D01*
X334241Y83947D01*
X334229Y83977D01*
X334224Y84009D01*
X334181Y84089D01*
X334145Y84173D01*
X334119Y84205D01*
X334108Y84226D01*
X334085Y84248D01*
X334040Y84304D01*
X321340Y97004D01*
X321282Y97046D01*
X321230Y97095D01*
X321183Y97117D01*
X321141Y97148D01*
X321072Y97169D01*
X321007Y97199D01*
X320955Y97205D01*
X320905Y97220D01*
X320834Y97218D01*
X320763Y97226D01*
X320712Y97215D01*
X320660Y97214D01*
X320592Y97189D01*
X320522Y97174D01*
X320477Y97147D01*
X320429Y97129D01*
X320373Y97084D01*
X320311Y97048D01*
X320277Y97008D01*
X320237Y96976D01*
X320198Y96915D01*
X320151Y96861D01*
X320132Y96812D01*
X320104Y96769D01*
X320086Y96699D01*
X320059Y96633D01*
X320051Y96561D01*
X320043Y96530D01*
X320045Y96507D01*
X320041Y96466D01*
X320041Y55633D01*
X297935Y33527D01*
X271105Y33527D01*
X270990Y33508D01*
X270874Y33491D01*
X270868Y33489D01*
X270862Y33488D01*
X270760Y33433D01*
X270654Y33380D01*
X270650Y33375D01*
X270644Y33372D01*
X270565Y33288D01*
X270482Y33204D01*
X270479Y33198D01*
X270475Y33194D01*
X270467Y33177D01*
X270401Y33057D01*
X270190Y32547D01*
X268189Y30546D01*
X267000Y30054D01*
X266961Y30030D01*
X266918Y30014D01*
X266857Y29965D01*
X266791Y29924D01*
X266762Y29889D01*
X266726Y29860D01*
X266684Y29795D01*
X266634Y29735D01*
X266618Y29692D01*
X266593Y29653D01*
X266574Y29578D01*
X266546Y29505D01*
X266544Y29459D01*
X266533Y29415D01*
X266539Y29337D01*
X266536Y29259D01*
X266549Y29215D01*
X266552Y29169D01*
X266583Y29098D01*
X266604Y29023D01*
X266631Y28985D01*
X266649Y28943D01*
X266734Y28836D01*
X266745Y28821D01*
X266749Y28818D01*
X266753Y28812D01*
X270040Y25525D01*
X271781Y21324D01*
X271781Y16776D01*
X270040Y12575D01*
X266825Y9360D01*
X262624Y7619D01*
X258076Y7619D01*
X253875Y9360D01*
X250660Y12575D01*
X248919Y16776D01*
X248919Y21324D01*
X250660Y25525D01*
X251266Y26132D01*
X251308Y26190D01*
X251357Y26242D01*
X251379Y26289D01*
X251410Y26331D01*
X251431Y26400D01*
X251461Y26465D01*
X251467Y26517D01*
X251482Y26567D01*
X251480Y26638D01*
X251488Y26709D01*
X251477Y26760D01*
X251476Y26812D01*
X251451Y26880D01*
X251436Y26950D01*
X251409Y26995D01*
X251391Y27043D01*
X251346Y27099D01*
X251310Y27161D01*
X251270Y27195D01*
X251238Y27235D01*
X251177Y27274D01*
X251123Y27321D01*
X251075Y27340D01*
X251031Y27368D01*
X250961Y27386D01*
X250895Y27413D01*
X250823Y27421D01*
X250792Y27429D01*
X250769Y27427D01*
X250728Y27431D01*
X250705Y27431D01*
X248896Y29240D01*
X248822Y29293D01*
X248753Y29353D01*
X248723Y29365D01*
X248696Y29384D01*
X248609Y29411D01*
X248525Y29445D01*
X248484Y29449D01*
X248461Y29456D01*
X248429Y29455D01*
X248358Y29463D01*
X247450Y29463D01*
X247360Y29449D01*
X247269Y29441D01*
X247239Y29429D01*
X247207Y29424D01*
X247127Y29381D01*
X247043Y29345D01*
X247011Y29319D01*
X246990Y29308D01*
X246968Y29285D01*
X246912Y29240D01*
X244457Y26785D01*
X244445Y26769D01*
X244430Y26757D01*
X244374Y26669D01*
X244313Y26586D01*
X244307Y26566D01*
X244297Y26550D01*
X244271Y26449D01*
X244241Y26350D01*
X244241Y26330D01*
X244237Y26311D01*
X244245Y26208D01*
X244247Y26105D01*
X244254Y26086D01*
X244256Y26066D01*
X244296Y25971D01*
X244332Y25874D01*
X244344Y25858D01*
X244352Y25840D01*
X244457Y25709D01*
X244640Y25525D01*
X246381Y21324D01*
X246381Y16776D01*
X244640Y12575D01*
X241425Y9360D01*
X237224Y7619D01*
X232676Y7619D01*
X228475Y9360D01*
X225260Y12575D01*
X223519Y16776D01*
X223519Y21324D01*
X225260Y25525D01*
X228475Y28740D01*
X232676Y30481D01*
X237224Y30481D01*
X238384Y30000D01*
X238498Y29973D01*
X238611Y29945D01*
X238617Y29945D01*
X238623Y29944D01*
X238740Y29955D01*
X238856Y29964D01*
X238862Y29966D01*
X238868Y29967D01*
X238976Y30015D01*
X239083Y30060D01*
X239088Y30065D01*
X239093Y30067D01*
X239107Y30080D01*
X239214Y30165D01*
X241276Y32228D01*
X241318Y32286D01*
X241367Y32338D01*
X241389Y32385D01*
X241420Y32427D01*
X241441Y32496D01*
X241471Y32561D01*
X241477Y32613D01*
X241492Y32663D01*
X241490Y32734D01*
X241498Y32805D01*
X241487Y32856D01*
X241486Y32908D01*
X241461Y32976D01*
X241446Y33046D01*
X241419Y33090D01*
X241401Y33139D01*
X241356Y33195D01*
X241320Y33257D01*
X241280Y33291D01*
X241248Y33331D01*
X241187Y33370D01*
X241133Y33417D01*
X241084Y33436D01*
X241041Y33464D01*
X240971Y33482D01*
X240905Y33509D01*
X240833Y33517D01*
X240802Y33525D01*
X240779Y33523D01*
X240738Y33527D01*
X225098Y33527D01*
X225008Y33513D01*
X224917Y33505D01*
X224887Y33493D01*
X224855Y33488D01*
X224775Y33445D01*
X224691Y33409D01*
X224659Y33383D01*
X224638Y33372D01*
X224616Y33349D01*
X224560Y33304D01*
X218549Y27293D01*
X218537Y27277D01*
X218522Y27265D01*
X218466Y27178D01*
X218405Y27094D01*
X218399Y27074D01*
X218389Y27058D01*
X218363Y26957D01*
X218333Y26858D01*
X218333Y26838D01*
X218329Y26819D01*
X218337Y26716D01*
X218339Y26613D01*
X218346Y26594D01*
X218348Y26574D01*
X218388Y26479D01*
X218424Y26382D01*
X218436Y26366D01*
X218444Y26348D01*
X218549Y26217D01*
X219240Y25525D01*
X220981Y21324D01*
X220981Y16776D01*
X219240Y12575D01*
X216025Y9360D01*
X211824Y7619D01*
X207276Y7619D01*
X203075Y9360D01*
X199860Y12575D01*
X198119Y16776D01*
X198119Y21324D01*
X199859Y25525D01*
X200297Y25963D01*
X200309Y25979D01*
X200324Y25991D01*
X200380Y26078D01*
X200441Y26162D01*
X200447Y26181D01*
X200457Y26198D01*
X200483Y26298D01*
X200513Y26397D01*
X200513Y26417D01*
X200517Y26437D01*
X200509Y26540D01*
X200507Y26643D01*
X200500Y26662D01*
X200498Y26682D01*
X200458Y26777D01*
X200422Y26874D01*
X200410Y26890D01*
X200402Y26908D01*
X200297Y27039D01*
X194032Y33304D01*
X193958Y33357D01*
X193889Y33417D01*
X193859Y33429D01*
X193832Y33448D01*
X193745Y33475D01*
X193661Y33509D01*
X193620Y33513D01*
X193597Y33520D01*
X193565Y33519D01*
X193494Y33527D01*
X173489Y33527D01*
X167639Y39377D01*
X167639Y41906D01*
X167636Y41926D01*
X167638Y41945D01*
X167616Y42047D01*
X167600Y42149D01*
X167590Y42166D01*
X167586Y42186D01*
X167533Y42275D01*
X167484Y42366D01*
X167470Y42380D01*
X167460Y42397D01*
X167381Y42464D01*
X167306Y42536D01*
X167288Y42544D01*
X167273Y42557D01*
X167177Y42596D01*
X167083Y42639D01*
X167063Y42641D01*
X167045Y42649D01*
X166878Y42667D01*
X164308Y42667D01*
X163838Y43137D01*
X163822Y43149D01*
X163810Y43164D01*
X163723Y43220D01*
X163639Y43281D01*
X163620Y43286D01*
X163603Y43297D01*
X163502Y43322D01*
X163403Y43353D01*
X163384Y43352D01*
X163364Y43357D01*
X163261Y43349D01*
X163158Y43347D01*
X163139Y43340D01*
X163119Y43338D01*
X163024Y43298D01*
X162927Y43262D01*
X162911Y43250D01*
X162893Y43242D01*
X162762Y43137D01*
X162292Y42667D01*
X151608Y42667D01*
X151138Y43137D01*
X151122Y43149D01*
X151110Y43164D01*
X151023Y43220D01*
X150939Y43281D01*
X150920Y43286D01*
X150903Y43297D01*
X150802Y43322D01*
X150703Y43353D01*
X150684Y43352D01*
X150664Y43357D01*
X150561Y43349D01*
X150458Y43347D01*
X150439Y43340D01*
X150419Y43338D01*
X150324Y43298D01*
X150227Y43262D01*
X150211Y43250D01*
X150193Y43242D01*
X150062Y43137D01*
X149592Y42667D01*
X148082Y42667D01*
X148062Y42664D01*
X148043Y42666D01*
X147941Y42644D01*
X147839Y42628D01*
X147822Y42618D01*
X147802Y42614D01*
X147713Y42561D01*
X147622Y42512D01*
X147608Y42498D01*
X147591Y42488D01*
X147524Y42409D01*
X147452Y42334D01*
X147444Y42316D01*
X147431Y42301D01*
X147392Y42205D01*
X147349Y42111D01*
X147347Y42091D01*
X147339Y42073D01*
X147321Y41906D01*
X147321Y27994D01*
X147335Y27904D01*
X147343Y27813D01*
X147355Y27783D01*
X147360Y27751D01*
X147403Y27671D01*
X147439Y27587D01*
X147465Y27555D01*
X147476Y27534D01*
X147499Y27512D01*
X147544Y27456D01*
X148394Y26605D01*
X148459Y26559D01*
X148517Y26505D01*
X148558Y26488D01*
X148594Y26462D01*
X148670Y26439D01*
X148743Y26407D01*
X148787Y26403D01*
X148829Y26390D01*
X148908Y26392D01*
X148988Y26384D01*
X149031Y26395D01*
X149075Y26396D01*
X149150Y26423D01*
X149227Y26442D01*
X149264Y26465D01*
X149306Y26480D01*
X149368Y26530D01*
X149435Y26572D01*
X149475Y26616D01*
X149498Y26634D01*
X149513Y26657D01*
X149548Y26696D01*
X149644Y26828D01*
X150972Y28156D01*
X152493Y29261D01*
X154167Y30114D01*
X155954Y30695D01*
X157227Y30896D01*
X157227Y19812D01*
X157230Y19792D01*
X157228Y19773D01*
X157250Y19671D01*
X157267Y19569D01*
X157276Y19552D01*
X157280Y19532D01*
X157333Y19443D01*
X157382Y19352D01*
X157396Y19338D01*
X157406Y19321D01*
X157485Y19254D01*
X157560Y19183D01*
X157578Y19174D01*
X157593Y19161D01*
X157689Y19123D01*
X157783Y19079D01*
X157803Y19077D01*
X157821Y19069D01*
X157988Y19051D01*
X158751Y19051D01*
X158751Y19049D01*
X157988Y19049D01*
X157968Y19046D01*
X157949Y19048D01*
X157847Y19026D01*
X157745Y19009D01*
X157728Y19000D01*
X157708Y18996D01*
X157619Y18943D01*
X157528Y18894D01*
X157514Y18880D01*
X157497Y18870D01*
X157430Y18791D01*
X157359Y18716D01*
X157350Y18698D01*
X157337Y18683D01*
X157298Y18587D01*
X157255Y18493D01*
X157253Y18473D01*
X157245Y18455D01*
X157227Y18288D01*
X157227Y7204D01*
X155954Y7405D01*
X154167Y7986D01*
X152493Y8839D01*
X150972Y9944D01*
X149644Y11272D01*
X149335Y11698D01*
X149278Y11754D01*
X149228Y11816D01*
X149191Y11840D01*
X149160Y11871D01*
X149088Y11906D01*
X149021Y11949D01*
X148979Y11960D01*
X148939Y11979D01*
X148860Y11990D01*
X148783Y12009D01*
X148739Y12006D01*
X148695Y12011D01*
X148617Y11996D01*
X148538Y11990D01*
X148497Y11973D01*
X148454Y11964D01*
X148384Y11925D01*
X148311Y11894D01*
X148266Y11857D01*
X148240Y11842D01*
X148221Y11822D01*
X148180Y11789D01*
X141448Y5056D01*
X141432Y5041D01*
X141390Y4982D01*
X141341Y4930D01*
X141319Y4883D01*
X141289Y4841D01*
X141267Y4772D01*
X141237Y4707D01*
X141231Y4656D01*
X141216Y4606D01*
X141218Y4534D01*
X141210Y4463D01*
X141221Y4412D01*
X141222Y4360D01*
X141247Y4293D01*
X141262Y4222D01*
X141289Y4178D01*
X141306Y4129D01*
X141351Y4073D01*
X141388Y4011D01*
X141428Y3977D01*
X141460Y3937D01*
X141520Y3898D01*
X141575Y3851D01*
X141623Y3832D01*
X141667Y3804D01*
X141736Y3786D01*
X141803Y3759D01*
X141874Y3751D01*
X141905Y3744D01*
X141929Y3745D01*
X141970Y3741D01*
X398542Y3741D01*
X398613Y3752D01*
G37*
G36*
X93813Y3752D02*
X93813Y3752D01*
X93885Y3754D01*
X93934Y3772D01*
X93985Y3780D01*
X94048Y3814D01*
X94116Y3839D01*
X94156Y3871D01*
X94202Y3896D01*
X94252Y3948D01*
X94308Y3993D01*
X94336Y4036D01*
X94371Y4074D01*
X94402Y4139D01*
X94441Y4200D01*
X94453Y4250D01*
X94475Y4297D01*
X94483Y4369D01*
X94500Y4439D01*
X94496Y4490D01*
X94502Y4541D01*
X94487Y4612D01*
X94481Y4684D01*
X94461Y4731D01*
X94450Y4782D01*
X94413Y4844D01*
X94385Y4910D01*
X94340Y4965D01*
X94324Y4993D01*
X94306Y5008D01*
X94280Y5041D01*
X94264Y5056D01*
X90031Y9289D01*
X90015Y9301D01*
X90002Y9317D01*
X89915Y9373D01*
X89831Y9433D01*
X89812Y9439D01*
X89795Y9450D01*
X89695Y9475D01*
X89596Y9505D01*
X89576Y9505D01*
X89557Y9509D01*
X89454Y9501D01*
X89351Y9499D01*
X89332Y9492D01*
X89312Y9490D01*
X89217Y9450D01*
X89120Y9414D01*
X89104Y9402D01*
X89085Y9394D01*
X89061Y9375D01*
X84824Y7619D01*
X80276Y7619D01*
X76075Y9360D01*
X72860Y12575D01*
X71119Y16776D01*
X71119Y21324D01*
X72860Y25525D01*
X76075Y28740D01*
X80276Y30481D01*
X84824Y30481D01*
X89025Y28740D01*
X92240Y25525D01*
X93981Y21324D01*
X93981Y16776D01*
X93351Y15257D01*
X93325Y15143D01*
X93296Y15030D01*
X93297Y15023D01*
X93295Y15017D01*
X93306Y14901D01*
X93315Y14784D01*
X93318Y14779D01*
X93318Y14772D01*
X93366Y14665D01*
X93412Y14558D01*
X93416Y14552D01*
X93418Y14548D01*
X93431Y14534D01*
X93516Y14427D01*
X98576Y9368D01*
X98650Y9315D01*
X98719Y9255D01*
X98749Y9243D01*
X98776Y9224D01*
X98863Y9197D01*
X98947Y9163D01*
X98988Y9159D01*
X99011Y9152D01*
X99043Y9153D01*
X99114Y9145D01*
X99852Y9145D01*
X99923Y9156D01*
X99994Y9158D01*
X100043Y9176D01*
X100095Y9184D01*
X100158Y9218D01*
X100225Y9243D01*
X100266Y9275D01*
X100312Y9300D01*
X100361Y9352D01*
X100417Y9396D01*
X100446Y9440D01*
X100481Y9478D01*
X100512Y9543D01*
X100550Y9603D01*
X100563Y9654D01*
X100585Y9701D01*
X100593Y9772D01*
X100611Y9842D01*
X100606Y9894D01*
X100612Y9945D01*
X100597Y10016D01*
X100591Y10087D01*
X100571Y10135D01*
X100560Y10186D01*
X100523Y10247D01*
X100495Y10313D01*
X100450Y10369D01*
X100434Y10397D01*
X100416Y10412D01*
X100390Y10444D01*
X98260Y12575D01*
X96519Y16776D01*
X96519Y21324D01*
X98260Y25525D01*
X101475Y28740D01*
X102145Y29018D01*
X102245Y29080D01*
X102345Y29140D01*
X102349Y29144D01*
X102354Y29148D01*
X102429Y29238D01*
X102505Y29327D01*
X102507Y29332D01*
X102511Y29337D01*
X102553Y29446D01*
X102597Y29555D01*
X102598Y29562D01*
X102599Y29567D01*
X102600Y29585D01*
X102615Y29721D01*
X102615Y33775D01*
X104424Y35584D01*
X104477Y35658D01*
X104537Y35727D01*
X104549Y35757D01*
X104568Y35784D01*
X104595Y35871D01*
X104629Y35955D01*
X104633Y35996D01*
X104640Y36019D01*
X104639Y36051D01*
X104647Y36122D01*
X104647Y41906D01*
X104644Y41926D01*
X104646Y41945D01*
X104624Y42047D01*
X104608Y42149D01*
X104598Y42166D01*
X104594Y42186D01*
X104541Y42275D01*
X104492Y42366D01*
X104478Y42380D01*
X104468Y42397D01*
X104389Y42464D01*
X104314Y42536D01*
X104296Y42544D01*
X104281Y42557D01*
X104185Y42596D01*
X104091Y42639D01*
X104071Y42641D01*
X104053Y42649D01*
X103886Y42667D01*
X100808Y42667D01*
X100338Y43137D01*
X100322Y43149D01*
X100310Y43164D01*
X100223Y43220D01*
X100139Y43281D01*
X100120Y43286D01*
X100103Y43297D01*
X100002Y43322D01*
X99903Y43353D01*
X99884Y43352D01*
X99864Y43357D01*
X99761Y43349D01*
X99658Y43347D01*
X99639Y43340D01*
X99619Y43338D01*
X99524Y43298D01*
X99427Y43262D01*
X99411Y43250D01*
X99393Y43242D01*
X99262Y43137D01*
X98792Y42667D01*
X88108Y42667D01*
X87998Y42778D01*
X87981Y42789D01*
X87969Y42805D01*
X87882Y42861D01*
X87798Y42921D01*
X87779Y42927D01*
X87762Y42938D01*
X87662Y42963D01*
X87563Y42994D01*
X87543Y42993D01*
X87523Y42998D01*
X87420Y42990D01*
X87317Y42987D01*
X87298Y42980D01*
X87278Y42979D01*
X87183Y42938D01*
X87086Y42903D01*
X87070Y42890D01*
X87052Y42883D01*
X86921Y42778D01*
X86810Y42667D01*
X86231Y42332D01*
X85584Y42159D01*
X82273Y42159D01*
X82273Y53938D01*
X82270Y53958D01*
X82272Y53977D01*
X82250Y54079D01*
X82233Y54181D01*
X82224Y54198D01*
X82220Y54218D01*
X82167Y54307D01*
X82118Y54398D01*
X82104Y54412D01*
X82094Y54429D01*
X82015Y54496D01*
X81940Y54567D01*
X81922Y54576D01*
X81907Y54589D01*
X81811Y54628D01*
X81717Y54671D01*
X81697Y54673D01*
X81679Y54681D01*
X81512Y54699D01*
X80749Y54699D01*
X80749Y54701D01*
X81512Y54701D01*
X81532Y54704D01*
X81551Y54702D01*
X81653Y54724D01*
X81755Y54741D01*
X81772Y54750D01*
X81792Y54754D01*
X81881Y54807D01*
X81972Y54856D01*
X81986Y54870D01*
X82003Y54880D01*
X82070Y54959D01*
X82141Y55034D01*
X82150Y55052D01*
X82163Y55067D01*
X82202Y55163D01*
X82245Y55257D01*
X82247Y55277D01*
X82255Y55295D01*
X82273Y55462D01*
X82273Y67241D01*
X85584Y67241D01*
X86231Y67068D01*
X86810Y66733D01*
X86921Y66622D01*
X86937Y66611D01*
X86950Y66595D01*
X87036Y66539D01*
X87121Y66479D01*
X87140Y66473D01*
X87156Y66462D01*
X87257Y66437D01*
X87356Y66406D01*
X87376Y66407D01*
X87395Y66402D01*
X87498Y66410D01*
X87602Y66413D01*
X87620Y66420D01*
X87640Y66421D01*
X87735Y66462D01*
X87833Y66497D01*
X87848Y66510D01*
X87867Y66517D01*
X87998Y66622D01*
X88108Y66733D01*
X89662Y66733D01*
X89682Y66736D01*
X89701Y66734D01*
X89803Y66756D01*
X89905Y66772D01*
X89922Y66782D01*
X89942Y66786D01*
X90031Y66839D01*
X90122Y66888D01*
X90136Y66902D01*
X90153Y66912D01*
X90220Y66991D01*
X90292Y67066D01*
X90300Y67084D01*
X90313Y67099D01*
X90352Y67195D01*
X90395Y67289D01*
X90397Y67309D01*
X90405Y67327D01*
X90423Y67494D01*
X90423Y70351D01*
X96273Y76201D01*
X104815Y76201D01*
X104930Y76220D01*
X105046Y76237D01*
X105052Y76239D01*
X105058Y76240D01*
X105160Y76295D01*
X105266Y76348D01*
X105270Y76353D01*
X105276Y76356D01*
X105355Y76440D01*
X105438Y76524D01*
X105441Y76530D01*
X105445Y76534D01*
X105453Y76551D01*
X105519Y76671D01*
X105730Y77181D01*
X107731Y79182D01*
X110345Y80265D01*
X113175Y80265D01*
X115787Y79183D01*
X115831Y79172D01*
X115873Y79153D01*
X115950Y79144D01*
X116026Y79127D01*
X116072Y79131D01*
X116117Y79126D01*
X116194Y79142D01*
X116271Y79150D01*
X116313Y79168D01*
X116358Y79178D01*
X116425Y79218D01*
X116496Y79250D01*
X116530Y79281D01*
X116569Y79304D01*
X116620Y79363D01*
X116677Y79416D01*
X116699Y79456D01*
X116729Y79491D01*
X116758Y79563D01*
X116795Y79632D01*
X116804Y79677D01*
X116821Y79719D01*
X116836Y79855D01*
X116839Y79874D01*
X116838Y79879D01*
X116839Y79886D01*
X116839Y116278D01*
X116825Y116368D01*
X116817Y116459D01*
X116805Y116489D01*
X116800Y116521D01*
X116757Y116601D01*
X116721Y116685D01*
X116695Y116717D01*
X116684Y116738D01*
X116661Y116760D01*
X116616Y116816D01*
X74167Y159265D01*
X74167Y207718D01*
X74153Y207808D01*
X74145Y207899D01*
X74133Y207929D01*
X74128Y207961D01*
X74085Y208041D01*
X74049Y208125D01*
X74023Y208157D01*
X74012Y208178D01*
X73989Y208200D01*
X73944Y208256D01*
X72112Y210088D01*
X71912Y210288D01*
X71854Y210330D01*
X71802Y210379D01*
X71755Y210401D01*
X71713Y210432D01*
X71644Y210453D01*
X71579Y210483D01*
X71527Y210489D01*
X71478Y210504D01*
X71406Y210502D01*
X71335Y210510D01*
X71284Y210499D01*
X71232Y210498D01*
X71164Y210473D01*
X71094Y210458D01*
X71049Y210431D01*
X71001Y210413D01*
X70945Y210369D01*
X70883Y210332D01*
X70849Y210292D01*
X70809Y210260D01*
X70770Y210199D01*
X70723Y210145D01*
X70704Y210096D01*
X70676Y210053D01*
X70658Y209983D01*
X70631Y209917D01*
X70623Y209845D01*
X70615Y209814D01*
X70617Y209791D01*
X70613Y209750D01*
X70613Y44134D01*
X70166Y43687D01*
X2611Y43687D01*
X2590Y43684D01*
X2570Y43686D01*
X2470Y43664D01*
X2368Y43648D01*
X2350Y43638D01*
X2330Y43633D01*
X2241Y43580D01*
X2151Y43532D01*
X2137Y43517D01*
X2119Y43507D01*
X2052Y43428D01*
X1981Y43354D01*
X1973Y43335D01*
X1959Y43319D01*
X1921Y43224D01*
X1878Y43131D01*
X1876Y43110D01*
X1868Y43091D01*
X1850Y42924D01*
X1934Y4500D01*
X1937Y4481D01*
X1935Y4463D01*
X1957Y4360D01*
X1974Y4258D01*
X1983Y4241D01*
X1987Y4222D01*
X2040Y4132D01*
X2089Y4041D01*
X2103Y4027D01*
X2113Y4011D01*
X2193Y3943D01*
X2268Y3872D01*
X2285Y3864D01*
X2300Y3851D01*
X2397Y3812D01*
X2491Y3768D01*
X2510Y3766D01*
X2528Y3759D01*
X2695Y3741D01*
X93742Y3741D01*
X93813Y3752D01*
G37*
G36*
X386424Y53153D02*
X386424Y53153D01*
X386476Y53154D01*
X386544Y53179D01*
X386614Y53194D01*
X386659Y53221D01*
X386707Y53239D01*
X386763Y53284D01*
X386825Y53320D01*
X386859Y53360D01*
X386899Y53392D01*
X386938Y53453D01*
X386985Y53507D01*
X387004Y53556D01*
X387032Y53599D01*
X387050Y53669D01*
X387077Y53735D01*
X387085Y53807D01*
X387093Y53838D01*
X387091Y53861D01*
X387095Y53902D01*
X387095Y54247D01*
X388178Y56861D01*
X390179Y58862D01*
X392793Y59945D01*
X395623Y59945D01*
X396133Y59733D01*
X396246Y59707D01*
X396360Y59678D01*
X396367Y59679D01*
X396373Y59677D01*
X396489Y59688D01*
X396605Y59697D01*
X396611Y59700D01*
X396617Y59700D01*
X396725Y59748D01*
X396832Y59794D01*
X396838Y59798D01*
X396842Y59800D01*
X396856Y59813D01*
X396963Y59898D01*
X426188Y89124D01*
X426230Y89182D01*
X426279Y89234D01*
X426301Y89281D01*
X426332Y89323D01*
X426353Y89392D01*
X426383Y89457D01*
X426389Y89509D01*
X426404Y89559D01*
X426402Y89630D01*
X426410Y89701D01*
X426399Y89752D01*
X426398Y89804D01*
X426373Y89872D01*
X426358Y89942D01*
X426331Y89986D01*
X426313Y90035D01*
X426268Y90091D01*
X426232Y90153D01*
X426192Y90187D01*
X426160Y90227D01*
X426099Y90266D01*
X426045Y90313D01*
X425996Y90332D01*
X425953Y90360D01*
X425883Y90378D01*
X425817Y90405D01*
X425745Y90413D01*
X425714Y90421D01*
X425691Y90419D01*
X425650Y90423D01*
X366609Y90423D01*
X366494Y90404D01*
X366378Y90387D01*
X366372Y90385D01*
X366366Y90384D01*
X366264Y90329D01*
X366158Y90276D01*
X366154Y90271D01*
X366148Y90268D01*
X366069Y90184D01*
X365986Y90100D01*
X365983Y90094D01*
X365979Y90090D01*
X365971Y90073D01*
X365905Y89953D01*
X365694Y89443D01*
X363693Y87442D01*
X361079Y86359D01*
X358249Y86359D01*
X355635Y87442D01*
X353634Y89443D01*
X352551Y92057D01*
X352551Y94887D01*
X353634Y97501D01*
X355635Y99502D01*
X356145Y99713D01*
X356245Y99775D01*
X356265Y99787D01*
X356314Y99813D01*
X356322Y99821D01*
X356345Y99835D01*
X356349Y99840D01*
X356354Y99843D01*
X356429Y99933D01*
X356437Y99943D01*
X356484Y99991D01*
X356489Y100003D01*
X356505Y100022D01*
X356507Y100028D01*
X356511Y100032D01*
X356552Y100140D01*
X356587Y100214D01*
X356589Y100230D01*
X356597Y100250D01*
X356598Y100257D01*
X356599Y100262D01*
X356600Y100280D01*
X356615Y100417D01*
X356615Y126438D01*
X356601Y126528D01*
X356593Y126619D01*
X356581Y126649D01*
X356576Y126681D01*
X356533Y126761D01*
X356497Y126845D01*
X356471Y126877D01*
X356460Y126898D01*
X356437Y126920D01*
X356392Y126976D01*
X313920Y169448D01*
X313846Y169501D01*
X313777Y169561D01*
X313747Y169573D01*
X313720Y169592D01*
X313633Y169619D01*
X313549Y169653D01*
X313508Y169657D01*
X313485Y169664D01*
X313453Y169663D01*
X313382Y169671D01*
X311344Y169671D01*
X311324Y169668D01*
X311305Y169670D01*
X311203Y169648D01*
X311101Y169632D01*
X311084Y169622D01*
X311064Y169618D01*
X310975Y169565D01*
X310884Y169516D01*
X310870Y169502D01*
X310853Y169492D01*
X310786Y169413D01*
X310714Y169338D01*
X310706Y169320D01*
X310693Y169305D01*
X310654Y169209D01*
X310611Y169115D01*
X310609Y169095D01*
X310601Y169077D01*
X310583Y168910D01*
X310583Y158608D01*
X309392Y157417D01*
X292708Y157417D01*
X291517Y158608D01*
X291517Y160782D01*
X291514Y160802D01*
X291516Y160821D01*
X291494Y160923D01*
X291478Y161025D01*
X291468Y161042D01*
X291464Y161062D01*
X291411Y161151D01*
X291362Y161242D01*
X291348Y161256D01*
X291338Y161273D01*
X291259Y161340D01*
X291184Y161412D01*
X291166Y161420D01*
X291151Y161433D01*
X291055Y161472D01*
X290961Y161515D01*
X290941Y161517D01*
X290923Y161525D01*
X290756Y161543D01*
X281265Y161543D01*
X281150Y161524D01*
X281034Y161507D01*
X281028Y161505D01*
X281022Y161504D01*
X280920Y161449D01*
X280814Y161396D01*
X280810Y161391D01*
X280804Y161388D01*
X280725Y161304D01*
X280642Y161220D01*
X280639Y161214D01*
X280635Y161210D01*
X280627Y161193D01*
X280561Y161073D01*
X280350Y160563D01*
X278349Y158562D01*
X275735Y157479D01*
X272905Y157479D01*
X270291Y158562D01*
X269182Y159671D01*
X269124Y159713D01*
X269072Y159762D01*
X269025Y159784D01*
X268983Y159814D01*
X268914Y159835D01*
X268849Y159866D01*
X268797Y159871D01*
X268747Y159887D01*
X268676Y159885D01*
X268605Y159893D01*
X268554Y159882D01*
X268502Y159880D01*
X268434Y159856D01*
X268364Y159841D01*
X268319Y159814D01*
X268271Y159796D01*
X268215Y159751D01*
X268153Y159714D01*
X268119Y159675D01*
X268079Y159642D01*
X268040Y159582D01*
X267993Y159527D01*
X267974Y159479D01*
X267946Y159435D01*
X267928Y159366D01*
X267901Y159299D01*
X267893Y159228D01*
X267885Y159197D01*
X267887Y159173D01*
X267883Y159133D01*
X267883Y153408D01*
X267413Y152938D01*
X267401Y152922D01*
X267386Y152910D01*
X267330Y152823D01*
X267269Y152739D01*
X267264Y152720D01*
X267253Y152703D01*
X267228Y152602D01*
X267197Y152503D01*
X267198Y152484D01*
X267193Y152464D01*
X267201Y152361D01*
X267203Y152258D01*
X267210Y152239D01*
X267212Y152219D01*
X267252Y152124D01*
X267288Y152027D01*
X267300Y152011D01*
X267308Y151993D01*
X267413Y151862D01*
X267883Y151392D01*
X267883Y140708D01*
X267413Y140238D01*
X267401Y140222D01*
X267386Y140210D01*
X267330Y140123D01*
X267269Y140039D01*
X267264Y140020D01*
X267253Y140003D01*
X267228Y139902D01*
X267197Y139803D01*
X267198Y139784D01*
X267193Y139764D01*
X267201Y139661D01*
X267203Y139558D01*
X267210Y139539D01*
X267212Y139519D01*
X267252Y139424D01*
X267288Y139327D01*
X267300Y139311D01*
X267308Y139293D01*
X267413Y139162D01*
X267883Y138692D01*
X267883Y133475D01*
X267894Y133405D01*
X267896Y133333D01*
X267914Y133284D01*
X267922Y133233D01*
X267956Y133169D01*
X267981Y133102D01*
X268013Y133061D01*
X268038Y133015D01*
X268090Y132966D01*
X268134Y132910D01*
X268178Y132882D01*
X268216Y132846D01*
X268281Y132816D01*
X268341Y132777D01*
X268392Y132764D01*
X268439Y132742D01*
X268510Y132734D01*
X268580Y132717D01*
X268632Y132721D01*
X268683Y132715D01*
X268754Y132730D01*
X268825Y132736D01*
X268873Y132756D01*
X268924Y132767D01*
X268985Y132804D01*
X269051Y132832D01*
X269107Y132877D01*
X269135Y132894D01*
X269150Y132911D01*
X269182Y132937D01*
X270291Y134046D01*
X272905Y135129D01*
X275735Y135129D01*
X278349Y134046D01*
X280350Y132045D01*
X280446Y131814D01*
X280470Y131775D01*
X280486Y131732D01*
X280534Y131671D01*
X280575Y131605D01*
X280611Y131576D01*
X280639Y131540D01*
X280705Y131497D01*
X280765Y131448D01*
X280807Y131432D01*
X280846Y131407D01*
X280922Y131388D01*
X280994Y131360D01*
X281040Y131358D01*
X281085Y131347D01*
X281162Y131353D01*
X281240Y131349D01*
X281284Y131362D01*
X281330Y131366D01*
X281401Y131396D01*
X281476Y131418D01*
X281514Y131444D01*
X281556Y131462D01*
X281663Y131548D01*
X281678Y131558D01*
X281681Y131562D01*
X281687Y131567D01*
X289313Y139193D01*
X290756Y139193D01*
X290776Y139196D01*
X290795Y139194D01*
X290897Y139216D01*
X290999Y139232D01*
X291016Y139242D01*
X291036Y139246D01*
X291125Y139299D01*
X291216Y139348D01*
X291230Y139362D01*
X291247Y139372D01*
X291314Y139451D01*
X291386Y139526D01*
X291394Y139544D01*
X291407Y139559D01*
X291446Y139655D01*
X291489Y139749D01*
X291491Y139769D01*
X291499Y139787D01*
X291517Y139954D01*
X291517Y142494D01*
X291514Y142514D01*
X291516Y142533D01*
X291494Y142635D01*
X291478Y142737D01*
X291468Y142754D01*
X291464Y142774D01*
X291411Y142863D01*
X291362Y142954D01*
X291348Y142968D01*
X291338Y142985D01*
X291259Y143052D01*
X291184Y143124D01*
X291166Y143132D01*
X291151Y143145D01*
X291055Y143184D01*
X290961Y143227D01*
X290941Y143229D01*
X290923Y143237D01*
X290756Y143255D01*
X285329Y143255D01*
X285214Y143236D01*
X285098Y143219D01*
X285092Y143217D01*
X285086Y143216D01*
X284984Y143161D01*
X284878Y143108D01*
X284874Y143103D01*
X284868Y143100D01*
X284789Y143016D01*
X284706Y142932D01*
X284703Y142926D01*
X284699Y142922D01*
X284691Y142905D01*
X284625Y142785D01*
X284414Y142275D01*
X282413Y140274D01*
X279799Y139191D01*
X276969Y139191D01*
X274355Y140274D01*
X272354Y142275D01*
X271271Y144889D01*
X271271Y147719D01*
X272354Y150333D01*
X274355Y152334D01*
X276969Y153417D01*
X279799Y153417D01*
X282413Y152334D01*
X284414Y150333D01*
X284625Y149823D01*
X284687Y149723D01*
X284747Y149623D01*
X284752Y149619D01*
X284755Y149614D01*
X284845Y149539D01*
X284934Y149463D01*
X284940Y149461D01*
X284944Y149457D01*
X285053Y149415D01*
X285162Y149371D01*
X285169Y149370D01*
X285174Y149369D01*
X285192Y149368D01*
X285329Y149353D01*
X290756Y149353D01*
X290776Y149356D01*
X290795Y149354D01*
X290897Y149376D01*
X290999Y149392D01*
X291016Y149402D01*
X291036Y149406D01*
X291125Y149459D01*
X291216Y149508D01*
X291230Y149522D01*
X291247Y149532D01*
X291314Y149611D01*
X291386Y149686D01*
X291394Y149704D01*
X291407Y149719D01*
X291446Y149815D01*
X291489Y149909D01*
X291491Y149929D01*
X291499Y149947D01*
X291517Y150114D01*
X291517Y150292D01*
X292708Y151483D01*
X309246Y151483D01*
X309361Y151502D01*
X309477Y151519D01*
X309483Y151521D01*
X309489Y151522D01*
X309592Y151577D01*
X309697Y151630D01*
X309701Y151635D01*
X309706Y151638D01*
X309786Y151722D01*
X309869Y151806D01*
X309872Y151812D01*
X309876Y151816D01*
X309884Y151833D01*
X309950Y151953D01*
X310962Y154397D01*
X312963Y156398D01*
X315577Y157481D01*
X318407Y157481D01*
X321021Y156398D01*
X323022Y154397D01*
X324105Y151783D01*
X324105Y148953D01*
X323022Y146339D01*
X321021Y144338D01*
X318407Y143255D01*
X315577Y143255D01*
X315067Y143467D01*
X314953Y143493D01*
X314840Y143522D01*
X314833Y143521D01*
X314827Y143523D01*
X314711Y143512D01*
X314594Y143503D01*
X314589Y143500D01*
X314583Y143500D01*
X314476Y143452D01*
X314368Y143406D01*
X314362Y143402D01*
X314358Y143400D01*
X314344Y143387D01*
X314237Y143302D01*
X314191Y143255D01*
X311344Y143255D01*
X311324Y143252D01*
X311305Y143254D01*
X311203Y143232D01*
X311101Y143216D01*
X311084Y143206D01*
X311064Y143202D01*
X310975Y143149D01*
X310884Y143100D01*
X310870Y143086D01*
X310853Y143076D01*
X310786Y142997D01*
X310714Y142922D01*
X310706Y142904D01*
X310693Y142889D01*
X310654Y142793D01*
X310611Y142699D01*
X310609Y142679D01*
X310601Y142661D01*
X310583Y142494D01*
X310583Y138608D01*
X310169Y138195D01*
X310158Y138179D01*
X310142Y138166D01*
X310086Y138079D01*
X310026Y137995D01*
X310020Y137976D01*
X310009Y137959D01*
X309984Y137859D01*
X309954Y137760D01*
X309954Y137740D01*
X309949Y137721D01*
X309957Y137618D01*
X309960Y137514D01*
X309967Y137495D01*
X309968Y137475D01*
X310009Y137380D01*
X310044Y137283D01*
X310057Y137267D01*
X310065Y137249D01*
X310169Y137118D01*
X324105Y123183D01*
X324105Y103178D01*
X324119Y103088D01*
X324127Y102997D01*
X324139Y102967D01*
X324144Y102935D01*
X324187Y102855D01*
X324223Y102771D01*
X324249Y102739D01*
X324260Y102718D01*
X324283Y102696D01*
X324328Y102640D01*
X334996Y91972D01*
X335054Y91930D01*
X335106Y91881D01*
X335153Y91859D01*
X335195Y91828D01*
X335264Y91807D01*
X335329Y91777D01*
X335381Y91771D01*
X335431Y91756D01*
X335502Y91758D01*
X335573Y91750D01*
X335624Y91761D01*
X335676Y91762D01*
X335744Y91787D01*
X335814Y91802D01*
X335859Y91829D01*
X335907Y91847D01*
X335963Y91892D01*
X336025Y91928D01*
X336059Y91968D01*
X336099Y92000D01*
X336138Y92061D01*
X336185Y92115D01*
X336204Y92164D01*
X336232Y92207D01*
X336250Y92277D01*
X336277Y92343D01*
X336285Y92415D01*
X336293Y92446D01*
X336291Y92469D01*
X336295Y92510D01*
X336295Y92855D01*
X337378Y95469D01*
X339379Y97470D01*
X341993Y98553D01*
X344823Y98553D01*
X347437Y97470D01*
X349438Y95469D01*
X350521Y92855D01*
X350521Y90025D01*
X350309Y89515D01*
X350283Y89401D01*
X350254Y89288D01*
X350255Y89281D01*
X350253Y89275D01*
X350264Y89159D01*
X350273Y89043D01*
X350276Y89037D01*
X350276Y89030D01*
X350324Y88923D01*
X350370Y88816D01*
X350374Y88810D01*
X350376Y88806D01*
X350389Y88792D01*
X350474Y88685D01*
X385796Y53364D01*
X385854Y53322D01*
X385906Y53273D01*
X385953Y53251D01*
X385995Y53220D01*
X386064Y53199D01*
X386129Y53169D01*
X386181Y53163D01*
X386231Y53148D01*
X386302Y53150D01*
X386373Y53142D01*
X386424Y53153D01*
G37*
G36*
X295184Y39639D02*
X295184Y39639D01*
X295275Y39647D01*
X295305Y39659D01*
X295337Y39664D01*
X295417Y39707D01*
X295501Y39743D01*
X295533Y39769D01*
X295554Y39780D01*
X295576Y39803D01*
X295632Y39848D01*
X313720Y57936D01*
X313773Y58010D01*
X313833Y58079D01*
X313845Y58109D01*
X313864Y58136D01*
X313891Y58223D01*
X313925Y58307D01*
X313929Y58348D01*
X313936Y58371D01*
X313935Y58403D01*
X313943Y58474D01*
X313943Y118310D01*
X313929Y118400D01*
X313921Y118491D01*
X313909Y118521D01*
X313904Y118553D01*
X313861Y118633D01*
X313825Y118717D01*
X313799Y118749D01*
X313788Y118770D01*
X313765Y118792D01*
X313720Y118848D01*
X311888Y120680D01*
X311814Y120733D01*
X311794Y120751D01*
X311772Y120772D01*
X311767Y120774D01*
X311745Y120793D01*
X311715Y120805D01*
X311688Y120824D01*
X311603Y120850D01*
X311549Y120875D01*
X311537Y120876D01*
X311517Y120885D01*
X311476Y120889D01*
X311453Y120896D01*
X311421Y120895D01*
X311350Y120903D01*
X311344Y120903D01*
X311324Y120900D01*
X311305Y120902D01*
X311253Y120891D01*
X311207Y120890D01*
X311163Y120874D01*
X311101Y120864D01*
X311084Y120854D01*
X311064Y120850D01*
X311010Y120818D01*
X310976Y120805D01*
X310947Y120782D01*
X310884Y120748D01*
X310870Y120734D01*
X310853Y120724D01*
X310807Y120669D01*
X310784Y120652D01*
X310768Y120627D01*
X310714Y120570D01*
X310706Y120552D01*
X310693Y120537D01*
X310664Y120464D01*
X310651Y120445D01*
X310646Y120422D01*
X310611Y120347D01*
X310609Y120327D01*
X310601Y120309D01*
X310583Y120142D01*
X310583Y118608D01*
X309392Y117417D01*
X292708Y117417D01*
X291517Y118608D01*
X291517Y130292D01*
X292708Y131483D01*
X305344Y131483D01*
X305415Y131494D01*
X305486Y131496D01*
X305535Y131514D01*
X305587Y131522D01*
X305650Y131556D01*
X305717Y131581D01*
X305758Y131613D01*
X305804Y131638D01*
X305853Y131690D01*
X305909Y131734D01*
X305938Y131778D01*
X305973Y131816D01*
X306004Y131881D01*
X306042Y131941D01*
X306055Y131992D01*
X306077Y132039D01*
X306085Y132110D01*
X306102Y132180D01*
X306098Y132232D01*
X306104Y132283D01*
X306089Y132354D01*
X306083Y132425D01*
X306063Y132473D01*
X306052Y132524D01*
X306015Y132585D01*
X305987Y132651D01*
X305942Y132707D01*
X305926Y132735D01*
X305908Y132750D01*
X305882Y132782D01*
X305792Y132872D01*
X305718Y132926D01*
X305649Y132985D01*
X305619Y132997D01*
X305592Y133016D01*
X305505Y133043D01*
X305421Y133077D01*
X305380Y133081D01*
X305357Y133088D01*
X305325Y133087D01*
X305254Y133095D01*
X292154Y133095D01*
X292064Y133081D01*
X291973Y133073D01*
X291943Y133061D01*
X291911Y133056D01*
X291831Y133013D01*
X291747Y132977D01*
X291715Y132951D01*
X291694Y132940D01*
X291672Y132917D01*
X291616Y132872D01*
X283711Y124967D01*
X281265Y124967D01*
X281150Y124948D01*
X281034Y124931D01*
X281028Y124929D01*
X281022Y124928D01*
X280920Y124873D01*
X280814Y124820D01*
X280810Y124815D01*
X280804Y124812D01*
X280725Y124728D01*
X280642Y124644D01*
X280639Y124638D01*
X280635Y124634D01*
X280627Y124617D01*
X280561Y124497D01*
X280350Y123987D01*
X278349Y121986D01*
X277434Y121607D01*
X277373Y121570D01*
X277308Y121540D01*
X277270Y121505D01*
X277225Y121478D01*
X277180Y121423D01*
X277127Y121374D01*
X277102Y121328D01*
X277069Y121288D01*
X277043Y121221D01*
X277008Y121158D01*
X276999Y121107D01*
X276980Y121059D01*
X276977Y120987D01*
X276965Y120916D01*
X276972Y120865D01*
X276970Y120813D01*
X276990Y120744D01*
X277000Y120673D01*
X277024Y120627D01*
X277039Y120577D01*
X277079Y120518D01*
X277112Y120454D01*
X277149Y120417D01*
X277179Y120375D01*
X277236Y120332D01*
X277288Y120282D01*
X277350Y120247D01*
X277376Y120228D01*
X277398Y120221D01*
X277434Y120201D01*
X278349Y119822D01*
X280350Y117821D01*
X281433Y115207D01*
X281433Y112377D01*
X281221Y111867D01*
X281195Y111753D01*
X281166Y111640D01*
X281167Y111633D01*
X281165Y111627D01*
X281176Y111511D01*
X281185Y111395D01*
X281188Y111389D01*
X281188Y111382D01*
X281236Y111275D01*
X281282Y111168D01*
X281286Y111162D01*
X281288Y111158D01*
X281301Y111144D01*
X281386Y111037D01*
X283488Y108936D01*
X283562Y108883D01*
X283631Y108823D01*
X283661Y108811D01*
X283688Y108792D01*
X283775Y108765D01*
X283859Y108731D01*
X283900Y108727D01*
X283923Y108720D01*
X283955Y108721D01*
X284026Y108713D01*
X290756Y108713D01*
X290776Y108716D01*
X290795Y108714D01*
X290897Y108736D01*
X290999Y108752D01*
X291016Y108762D01*
X291036Y108766D01*
X291125Y108819D01*
X291216Y108868D01*
X291230Y108882D01*
X291247Y108892D01*
X291314Y108971D01*
X291386Y109046D01*
X291394Y109064D01*
X291407Y109079D01*
X291446Y109175D01*
X291489Y109269D01*
X291491Y109289D01*
X291499Y109307D01*
X291517Y109474D01*
X291517Y110292D01*
X292708Y111483D01*
X309392Y111483D01*
X310583Y110292D01*
X310583Y98608D01*
X309392Y97417D01*
X292431Y97417D01*
X292361Y97406D01*
X292289Y97404D01*
X292240Y97386D01*
X292189Y97378D01*
X292125Y97344D01*
X292058Y97319D01*
X292017Y97287D01*
X291971Y97262D01*
X291922Y97210D01*
X291866Y97166D01*
X291838Y97122D01*
X291802Y97084D01*
X291772Y97019D01*
X291733Y96959D01*
X291720Y96908D01*
X291698Y96861D01*
X291690Y96790D01*
X291673Y96720D01*
X291677Y96668D01*
X291671Y96617D01*
X291686Y96546D01*
X291692Y96475D01*
X291712Y96427D01*
X291723Y96376D01*
X291760Y96315D01*
X291788Y96249D01*
X291833Y96193D01*
X291850Y96165D01*
X291867Y96150D01*
X291893Y96118D01*
X292542Y95469D01*
X293625Y92855D01*
X293625Y92244D01*
X293628Y92224D01*
X293626Y92205D01*
X293648Y92103D01*
X293664Y92001D01*
X293674Y91984D01*
X293678Y91964D01*
X293731Y91875D01*
X293780Y91784D01*
X293794Y91770D01*
X293804Y91753D01*
X293883Y91686D01*
X293958Y91614D01*
X293976Y91606D01*
X293991Y91593D01*
X294087Y91554D01*
X294181Y91511D01*
X294201Y91509D01*
X294219Y91501D01*
X294386Y91483D01*
X309392Y91483D01*
X310583Y90292D01*
X310583Y78608D01*
X309392Y77417D01*
X292708Y77417D01*
X291517Y78608D01*
X291517Y79502D01*
X291514Y79522D01*
X291516Y79541D01*
X291494Y79643D01*
X291478Y79745D01*
X291468Y79762D01*
X291464Y79782D01*
X291411Y79871D01*
X291362Y79962D01*
X291348Y79976D01*
X291338Y79993D01*
X291259Y80060D01*
X291184Y80132D01*
X291166Y80140D01*
X291151Y80153D01*
X291055Y80192D01*
X290961Y80235D01*
X290941Y80237D01*
X290923Y80245D01*
X290756Y80263D01*
X290122Y80263D01*
X290032Y80249D01*
X289941Y80241D01*
X289911Y80229D01*
X289879Y80224D01*
X289799Y80181D01*
X289715Y80145D01*
X289683Y80119D01*
X289662Y80108D01*
X289640Y80085D01*
X289584Y80040D01*
X261336Y51792D01*
X261283Y51718D01*
X261223Y51649D01*
X261211Y51619D01*
X261192Y51592D01*
X261165Y51505D01*
X261131Y51421D01*
X261127Y51380D01*
X261120Y51357D01*
X261121Y51325D01*
X261113Y51254D01*
X261113Y44152D01*
X261120Y44107D01*
X261118Y44061D01*
X261140Y43986D01*
X261152Y43909D01*
X261174Y43869D01*
X261187Y43824D01*
X261231Y43760D01*
X261268Y43692D01*
X261301Y43660D01*
X261327Y43622D01*
X261389Y43576D01*
X261446Y43522D01*
X261488Y43503D01*
X261524Y43476D01*
X261598Y43452D01*
X261669Y43419D01*
X261715Y43414D01*
X261758Y43399D01*
X261836Y43400D01*
X261913Y43392D01*
X261958Y43401D01*
X262004Y43402D01*
X262136Y43440D01*
X262154Y43444D01*
X262158Y43446D01*
X262165Y43449D01*
X262745Y43689D01*
X265575Y43689D01*
X268189Y42606D01*
X270190Y40605D01*
X270401Y40095D01*
X270463Y39995D01*
X270523Y39895D01*
X270528Y39891D01*
X270531Y39886D01*
X270621Y39811D01*
X270710Y39735D01*
X270716Y39733D01*
X270720Y39729D01*
X270829Y39687D01*
X270938Y39643D01*
X270945Y39642D01*
X270950Y39641D01*
X270968Y39640D01*
X271105Y39625D01*
X295094Y39625D01*
X295184Y39639D01*
G37*
%LPC*%
G36*
X454708Y157417D02*
X454708Y157417D01*
X453517Y158608D01*
X453517Y160782D01*
X453514Y160802D01*
X453516Y160821D01*
X453494Y160923D01*
X453478Y161025D01*
X453468Y161042D01*
X453464Y161062D01*
X453411Y161151D01*
X453362Y161242D01*
X453348Y161256D01*
X453338Y161273D01*
X453259Y161340D01*
X453184Y161412D01*
X453166Y161420D01*
X453151Y161433D01*
X453055Y161472D01*
X452961Y161515D01*
X452941Y161517D01*
X452923Y161525D01*
X452756Y161543D01*
X451873Y161543D01*
X413488Y199928D01*
X411479Y201937D01*
X411479Y248158D01*
X411476Y248178D01*
X411478Y248197D01*
X411456Y248299D01*
X411440Y248401D01*
X411430Y248418D01*
X411426Y248438D01*
X411373Y248527D01*
X411324Y248618D01*
X411310Y248632D01*
X411300Y248649D01*
X411221Y248716D01*
X411146Y248788D01*
X411128Y248796D01*
X411113Y248809D01*
X411017Y248848D01*
X410923Y248891D01*
X410903Y248893D01*
X410885Y248901D01*
X410718Y248919D01*
X410476Y248919D01*
X406275Y250660D01*
X403060Y253875D01*
X401319Y258076D01*
X401319Y262624D01*
X403060Y266825D01*
X406275Y270040D01*
X410476Y271781D01*
X415024Y271781D01*
X419225Y270040D01*
X422440Y266825D01*
X424181Y262624D01*
X424181Y258076D01*
X422440Y253875D01*
X419225Y250660D01*
X418047Y250171D01*
X417947Y250110D01*
X417847Y250050D01*
X417843Y250045D01*
X417838Y250042D01*
X417763Y249951D01*
X417687Y249863D01*
X417685Y249857D01*
X417681Y249852D01*
X417639Y249744D01*
X417595Y249635D01*
X417594Y249627D01*
X417593Y249623D01*
X417592Y249604D01*
X417577Y249468D01*
X417577Y204778D01*
X417591Y204688D01*
X417599Y204597D01*
X417611Y204567D01*
X417616Y204535D01*
X417659Y204455D01*
X417695Y204371D01*
X417721Y204339D01*
X417732Y204318D01*
X417755Y204296D01*
X417800Y204240D01*
X452218Y169822D01*
X452276Y169780D01*
X452328Y169731D01*
X452375Y169709D01*
X452417Y169678D01*
X452486Y169657D01*
X452551Y169627D01*
X452603Y169621D01*
X452653Y169606D01*
X452724Y169608D01*
X452795Y169600D01*
X452846Y169611D01*
X452898Y169612D01*
X452966Y169637D01*
X453036Y169652D01*
X453080Y169679D01*
X453129Y169697D01*
X453185Y169742D01*
X453247Y169778D01*
X453281Y169818D01*
X453321Y169850D01*
X453360Y169911D01*
X453407Y169965D01*
X453426Y170014D01*
X453454Y170057D01*
X453472Y170127D01*
X453499Y170193D01*
X453507Y170265D01*
X453512Y170287D01*
X454708Y171483D01*
X471392Y171483D01*
X472583Y170292D01*
X472583Y158608D01*
X471392Y157417D01*
X454708Y157417D01*
G37*
%LPD*%
%LPC*%
G36*
X454708Y197417D02*
X454708Y197417D01*
X453517Y198608D01*
X453517Y210292D01*
X454708Y211483D01*
X459486Y211483D01*
X459506Y211486D01*
X459525Y211484D01*
X459627Y211506D01*
X459729Y211522D01*
X459746Y211532D01*
X459766Y211536D01*
X459855Y211589D01*
X459946Y211638D01*
X459960Y211652D01*
X459977Y211662D01*
X460044Y211741D01*
X460116Y211816D01*
X460124Y211834D01*
X460137Y211849D01*
X460176Y211945D01*
X460219Y212039D01*
X460221Y212059D01*
X460229Y212077D01*
X460247Y212244D01*
X460247Y217878D01*
X460233Y217968D01*
X460225Y218059D01*
X460213Y218089D01*
X460208Y218121D01*
X460165Y218201D01*
X460129Y218285D01*
X460103Y218317D01*
X460092Y218338D01*
X460069Y218360D01*
X460024Y218416D01*
X443991Y234449D01*
X443991Y235458D01*
X443988Y235478D01*
X443990Y235497D01*
X443968Y235599D01*
X443952Y235701D01*
X443942Y235718D01*
X443938Y235738D01*
X443885Y235827D01*
X443836Y235918D01*
X443822Y235932D01*
X443812Y235949D01*
X443733Y236016D01*
X443658Y236088D01*
X443640Y236096D01*
X443625Y236109D01*
X443529Y236148D01*
X443435Y236191D01*
X443415Y236193D01*
X443397Y236201D01*
X443230Y236219D01*
X442226Y236219D01*
X438025Y237960D01*
X434810Y241175D01*
X433069Y245376D01*
X433069Y249924D01*
X434810Y254125D01*
X438025Y257340D01*
X442226Y259081D01*
X446774Y259081D01*
X450975Y257340D01*
X454190Y254125D01*
X455931Y249924D01*
X455931Y245376D01*
X454190Y241175D01*
X450975Y237960D01*
X450705Y237848D01*
X450666Y237823D01*
X450622Y237808D01*
X450562Y237759D01*
X450496Y237718D01*
X450466Y237682D01*
X450430Y237654D01*
X450388Y237588D01*
X450339Y237528D01*
X450322Y237486D01*
X450297Y237447D01*
X450278Y237371D01*
X450251Y237299D01*
X450249Y237253D01*
X450237Y237208D01*
X450243Y237131D01*
X450240Y237053D01*
X450253Y237009D01*
X450257Y236963D01*
X450287Y236892D01*
X450309Y236817D01*
X450335Y236779D01*
X450353Y236737D01*
X450438Y236630D01*
X450449Y236615D01*
X450453Y236612D01*
X450458Y236606D01*
X466345Y220719D01*
X466345Y212244D01*
X466348Y212224D01*
X466346Y212205D01*
X466368Y212103D01*
X466384Y212001D01*
X466394Y211984D01*
X466398Y211964D01*
X466451Y211875D01*
X466500Y211784D01*
X466514Y211770D01*
X466524Y211753D01*
X466603Y211686D01*
X466678Y211614D01*
X466696Y211606D01*
X466711Y211593D01*
X466807Y211554D01*
X466901Y211511D01*
X466921Y211509D01*
X466939Y211501D01*
X467106Y211483D01*
X471392Y211483D01*
X472583Y210292D01*
X472583Y198608D01*
X471392Y197417D01*
X454708Y197417D01*
G37*
%LPD*%
G36*
X218722Y194076D02*
X218722Y194076D01*
X218838Y194093D01*
X218844Y194095D01*
X218850Y194096D01*
X218953Y194151D01*
X219058Y194204D01*
X219062Y194209D01*
X219068Y194212D01*
X219147Y194296D01*
X219230Y194380D01*
X219233Y194386D01*
X219237Y194390D01*
X219245Y194407D01*
X219311Y194527D01*
X219521Y195035D01*
X219532Y195079D01*
X219551Y195121D01*
X219560Y195198D01*
X219577Y195274D01*
X219573Y195320D01*
X219578Y195365D01*
X219562Y195442D01*
X219554Y195519D01*
X219536Y195561D01*
X219526Y195606D01*
X219486Y195673D01*
X219454Y195744D01*
X219423Y195778D01*
X219400Y195817D01*
X219341Y195868D01*
X219288Y195925D01*
X219248Y195947D01*
X219213Y195977D01*
X219141Y196006D01*
X219072Y196043D01*
X219027Y196052D01*
X218985Y196069D01*
X218849Y196084D01*
X218830Y196087D01*
X218825Y196086D01*
X218818Y196087D01*
X179585Y196087D01*
X167639Y208033D01*
X167639Y211906D01*
X167636Y211926D01*
X167638Y211945D01*
X167616Y212047D01*
X167600Y212149D01*
X167590Y212166D01*
X167586Y212186D01*
X167533Y212275D01*
X167484Y212366D01*
X167470Y212380D01*
X167460Y212397D01*
X167381Y212464D01*
X167306Y212536D01*
X167288Y212544D01*
X167273Y212557D01*
X167177Y212596D01*
X167083Y212639D01*
X167063Y212641D01*
X167045Y212649D01*
X166878Y212667D01*
X164989Y212667D01*
X164919Y212656D01*
X164847Y212654D01*
X164798Y212636D01*
X164747Y212628D01*
X164683Y212594D01*
X164616Y212569D01*
X164575Y212537D01*
X164529Y212512D01*
X164480Y212460D01*
X164424Y212416D01*
X164396Y212372D01*
X164360Y212334D01*
X164330Y212269D01*
X164291Y212209D01*
X164278Y212158D01*
X164256Y212111D01*
X164248Y212040D01*
X164231Y211970D01*
X164235Y211918D01*
X164229Y211867D01*
X164244Y211796D01*
X164250Y211725D01*
X164270Y211677D01*
X164281Y211626D01*
X164318Y211565D01*
X164346Y211499D01*
X164391Y211443D01*
X164408Y211415D01*
X164425Y211400D01*
X164451Y211368D01*
X164526Y211293D01*
X165609Y208679D01*
X165609Y205849D01*
X164526Y203235D01*
X162525Y201234D01*
X159911Y200151D01*
X157081Y200151D01*
X154467Y201234D01*
X152466Y203235D01*
X151965Y204445D01*
X151903Y204545D01*
X151843Y204645D01*
X151838Y204649D01*
X151835Y204654D01*
X151746Y204729D01*
X151656Y204805D01*
X151650Y204807D01*
X151646Y204811D01*
X151538Y204853D01*
X151428Y204897D01*
X151421Y204898D01*
X151416Y204899D01*
X151398Y204900D01*
X151261Y204915D01*
X119957Y204915D01*
X116839Y208033D01*
X116839Y211906D01*
X116836Y211926D01*
X116838Y211945D01*
X116816Y212047D01*
X116800Y212149D01*
X116790Y212166D01*
X116786Y212186D01*
X116733Y212275D01*
X116684Y212366D01*
X116670Y212380D01*
X116660Y212397D01*
X116581Y212464D01*
X116506Y212536D01*
X116488Y212544D01*
X116473Y212557D01*
X116377Y212596D01*
X116283Y212639D01*
X116263Y212641D01*
X116245Y212649D01*
X116078Y212667D01*
X113508Y212667D01*
X113038Y213137D01*
X113022Y213149D01*
X113010Y213164D01*
X112922Y213220D01*
X112839Y213281D01*
X112820Y213286D01*
X112803Y213297D01*
X112702Y213322D01*
X112603Y213353D01*
X112584Y213352D01*
X112564Y213357D01*
X112461Y213349D01*
X112358Y213347D01*
X112339Y213340D01*
X112319Y213338D01*
X112224Y213298D01*
X112127Y213262D01*
X112111Y213250D01*
X112093Y213242D01*
X111962Y213137D01*
X111489Y212665D01*
X111486Y212664D01*
X111467Y212666D01*
X111365Y212644D01*
X111263Y212628D01*
X111246Y212618D01*
X111226Y212614D01*
X111137Y212561D01*
X111046Y212512D01*
X111032Y212498D01*
X111015Y212488D01*
X110948Y212409D01*
X110876Y212334D01*
X110868Y212316D01*
X110855Y212301D01*
X110816Y212205D01*
X110773Y212111D01*
X110771Y212091D01*
X110763Y212073D01*
X110745Y211906D01*
X110745Y210874D01*
X110759Y210784D01*
X110767Y210693D01*
X110779Y210663D01*
X110784Y210631D01*
X110827Y210551D01*
X110863Y210467D01*
X110889Y210435D01*
X110900Y210414D01*
X110923Y210392D01*
X110968Y210336D01*
X127024Y194280D01*
X127098Y194227D01*
X127167Y194167D01*
X127197Y194155D01*
X127224Y194136D01*
X127311Y194109D01*
X127395Y194075D01*
X127436Y194071D01*
X127459Y194064D01*
X127491Y194065D01*
X127562Y194057D01*
X218607Y194057D01*
X218722Y194076D01*
G37*
%LPC*%
G36*
X157273Y151223D02*
X157273Y151223D01*
X157273Y177241D01*
X181084Y177241D01*
X181731Y177068D01*
X182310Y176733D01*
X182783Y176260D01*
X183118Y175681D01*
X183291Y175034D01*
X183291Y151223D01*
X157273Y151223D01*
G37*
%LPD*%
%LPC*%
G36*
X128209Y151223D02*
X128209Y151223D01*
X128209Y175034D01*
X128382Y175681D01*
X128717Y176260D01*
X129190Y176733D01*
X129769Y177068D01*
X130416Y177241D01*
X154227Y177241D01*
X154227Y151223D01*
X128209Y151223D01*
G37*
%LPD*%
%LPC*%
G36*
X157273Y122159D02*
X157273Y122159D01*
X157273Y148177D01*
X183291Y148177D01*
X183291Y124366D01*
X183118Y123719D01*
X182783Y123140D01*
X182310Y122667D01*
X181731Y122332D01*
X181084Y122159D01*
X157273Y122159D01*
G37*
%LPD*%
%LPC*%
G36*
X130416Y122159D02*
X130416Y122159D01*
X129769Y122332D01*
X129190Y122667D01*
X128717Y123140D01*
X128382Y123719D01*
X128209Y124366D01*
X128209Y148177D01*
X154227Y148177D01*
X154227Y122159D01*
X130416Y122159D01*
G37*
%LPD*%
%LPC*%
G36*
X105676Y248919D02*
X105676Y248919D01*
X101475Y250660D01*
X98260Y253875D01*
X96519Y258076D01*
X96519Y262624D01*
X98260Y266825D01*
X101475Y270040D01*
X105676Y271781D01*
X110224Y271781D01*
X114425Y270040D01*
X117640Y266825D01*
X119381Y262624D01*
X119381Y258076D01*
X117640Y253875D01*
X114425Y250660D01*
X110224Y248919D01*
X105676Y248919D01*
G37*
%LPD*%
%LPC*%
G36*
X334276Y248919D02*
X334276Y248919D01*
X330075Y250660D01*
X326860Y253875D01*
X325119Y258076D01*
X325119Y262624D01*
X326860Y266825D01*
X330075Y270040D01*
X334276Y271781D01*
X338824Y271781D01*
X343025Y270040D01*
X346240Y266825D01*
X347981Y262624D01*
X347981Y258076D01*
X346240Y253875D01*
X343025Y250660D01*
X338824Y248919D01*
X334276Y248919D01*
G37*
%LPD*%
%LPC*%
G36*
X308876Y7619D02*
X308876Y7619D01*
X304675Y9360D01*
X301460Y12575D01*
X299719Y16776D01*
X299719Y21324D01*
X301460Y25525D01*
X304675Y28740D01*
X308876Y30481D01*
X313424Y30481D01*
X317625Y28740D01*
X320840Y25525D01*
X322581Y21324D01*
X322581Y16776D01*
X320840Y12575D01*
X317625Y9360D01*
X313424Y7619D01*
X308876Y7619D01*
G37*
%LPD*%
%LPC*%
G36*
X334276Y7619D02*
X334276Y7619D01*
X330075Y9360D01*
X326860Y12575D01*
X325119Y16776D01*
X325119Y21324D01*
X326860Y25525D01*
X330075Y28740D01*
X334276Y30481D01*
X338824Y30481D01*
X343025Y28740D01*
X346240Y25525D01*
X347981Y21324D01*
X347981Y16776D01*
X346240Y12575D01*
X343025Y9360D01*
X338824Y7619D01*
X334276Y7619D01*
G37*
%LPD*%
%LPC*%
G36*
X359676Y248919D02*
X359676Y248919D01*
X355475Y250660D01*
X352260Y253875D01*
X350519Y258076D01*
X350519Y262624D01*
X352260Y266825D01*
X355475Y270040D01*
X359676Y271781D01*
X364224Y271781D01*
X368425Y270040D01*
X371640Y266825D01*
X373381Y262624D01*
X373381Y258076D01*
X371640Y253875D01*
X368425Y250660D01*
X364224Y248919D01*
X359676Y248919D01*
G37*
%LPD*%
%LPC*%
G36*
X283476Y7619D02*
X283476Y7619D01*
X279275Y9360D01*
X276060Y12575D01*
X274319Y16776D01*
X274319Y21324D01*
X276060Y25525D01*
X279275Y28740D01*
X283476Y30481D01*
X288024Y30481D01*
X292225Y28740D01*
X295440Y25525D01*
X297181Y21324D01*
X297181Y16776D01*
X295440Y12575D01*
X292225Y9360D01*
X288024Y7619D01*
X283476Y7619D01*
G37*
%LPD*%
%LPC*%
G36*
X181876Y7619D02*
X181876Y7619D01*
X177675Y9360D01*
X174460Y12575D01*
X172719Y16776D01*
X172719Y21324D01*
X174460Y25525D01*
X177675Y28740D01*
X181876Y30481D01*
X186424Y30481D01*
X190625Y28740D01*
X193840Y25525D01*
X195581Y21324D01*
X195581Y16776D01*
X193840Y12575D01*
X190625Y9360D01*
X186424Y7619D01*
X181876Y7619D01*
G37*
%LPD*%
%LPC*%
G36*
X359676Y7619D02*
X359676Y7619D01*
X355475Y9360D01*
X352260Y12575D01*
X350519Y16776D01*
X350519Y21324D01*
X352260Y25525D01*
X355475Y28740D01*
X359676Y30481D01*
X364224Y30481D01*
X368425Y28740D01*
X371640Y25525D01*
X373381Y21324D01*
X373381Y16776D01*
X371640Y12575D01*
X368425Y9360D01*
X364224Y7619D01*
X359676Y7619D01*
G37*
%LPD*%
%LPC*%
G36*
X480823Y27459D02*
X480823Y27459D01*
X478603Y28379D01*
X476904Y30078D01*
X475984Y32298D01*
X475984Y34702D01*
X476904Y36922D01*
X478603Y38621D01*
X480823Y39541D01*
X483227Y39541D01*
X485447Y38621D01*
X487146Y36922D01*
X488066Y34702D01*
X488066Y32298D01*
X487146Y30078D01*
X485447Y28379D01*
X483227Y27459D01*
X480823Y27459D01*
G37*
%LPD*%
%LPC*%
G36*
X480823Y185009D02*
X480823Y185009D01*
X478603Y185929D01*
X476904Y187628D01*
X475984Y189848D01*
X475984Y192252D01*
X476904Y194472D01*
X478603Y196171D01*
X480823Y197091D01*
X483227Y197091D01*
X485447Y196171D01*
X487146Y194472D01*
X488066Y192252D01*
X488066Y189848D01*
X487146Y187628D01*
X485447Y185929D01*
X483227Y185009D01*
X480823Y185009D01*
G37*
%LPD*%
%LPC*%
G36*
X185673Y261873D02*
X185673Y261873D01*
X185673Y272196D01*
X186946Y271995D01*
X188733Y271414D01*
X190407Y270561D01*
X191928Y269456D01*
X193256Y268128D01*
X194361Y266607D01*
X195214Y264933D01*
X195795Y263146D01*
X195996Y261873D01*
X185673Y261873D01*
G37*
%LPD*%
%LPC*%
G36*
X160273Y20573D02*
X160273Y20573D01*
X160273Y30896D01*
X161546Y30695D01*
X163333Y30114D01*
X165007Y29261D01*
X166528Y28156D01*
X167856Y26828D01*
X168961Y25307D01*
X169814Y23633D01*
X170395Y21846D01*
X170596Y20573D01*
X160273Y20573D01*
G37*
%LPD*%
%LPC*%
G36*
X172304Y261873D02*
X172304Y261873D01*
X172505Y263146D01*
X173086Y264933D01*
X173939Y266607D01*
X175044Y268128D01*
X176372Y269456D01*
X177893Y270561D01*
X179567Y271414D01*
X181354Y271995D01*
X182627Y272196D01*
X182627Y261873D01*
X172304Y261873D01*
G37*
%LPD*%
%LPC*%
G36*
X185673Y258827D02*
X185673Y258827D01*
X195996Y258827D01*
X195795Y257554D01*
X195214Y255767D01*
X194361Y254093D01*
X193256Y252572D01*
X191928Y251244D01*
X190407Y250139D01*
X188733Y249286D01*
X186946Y248705D01*
X185673Y248504D01*
X185673Y258827D01*
G37*
%LPD*%
%LPC*%
G36*
X160273Y17527D02*
X160273Y17527D01*
X170596Y17527D01*
X170395Y16254D01*
X169814Y14467D01*
X168961Y12793D01*
X167856Y11272D01*
X166528Y9944D01*
X165007Y8839D01*
X163333Y7986D01*
X161546Y7405D01*
X160273Y7204D01*
X160273Y17527D01*
G37*
%LPD*%
%LPC*%
G36*
X181354Y248705D02*
X181354Y248705D01*
X179567Y249286D01*
X177893Y250139D01*
X176372Y251244D01*
X175044Y252572D01*
X173939Y254093D01*
X173086Y255767D01*
X172505Y257554D01*
X172304Y258827D01*
X182627Y258827D01*
X182627Y248504D01*
X181354Y248705D01*
G37*
%LPD*%
%LPC*%
G36*
X257373Y198373D02*
X257373Y198373D01*
X257373Y203891D01*
X266184Y203891D01*
X266831Y203718D01*
X267410Y203383D01*
X267883Y202910D01*
X268218Y202331D01*
X268391Y201684D01*
X268391Y198373D01*
X257373Y198373D01*
G37*
%LPD*%
%LPC*%
G36*
X73709Y56223D02*
X73709Y56223D01*
X73709Y65034D01*
X73882Y65681D01*
X74217Y66260D01*
X74690Y66733D01*
X75269Y67068D01*
X75916Y67241D01*
X79227Y67241D01*
X79227Y56223D01*
X73709Y56223D01*
G37*
%LPD*%
%LPC*%
G36*
X75916Y42159D02*
X75916Y42159D01*
X75269Y42332D01*
X74690Y42667D01*
X74217Y43140D01*
X73882Y43719D01*
X73709Y44366D01*
X73709Y53177D01*
X79227Y53177D01*
X79227Y42159D01*
X75916Y42159D01*
G37*
%LPD*%
%LPC*%
G36*
X302573Y65973D02*
X302573Y65973D01*
X302573Y71991D01*
X308884Y71991D01*
X309531Y71818D01*
X310110Y71483D01*
X310583Y71010D01*
X310918Y70431D01*
X311091Y69784D01*
X311091Y65973D01*
X302573Y65973D01*
G37*
%LPD*%
%LPC*%
G36*
X302573Y205973D02*
X302573Y205973D01*
X302573Y211991D01*
X308884Y211991D01*
X309531Y211818D01*
X310110Y211483D01*
X310583Y211010D01*
X310918Y210431D01*
X311091Y209784D01*
X311091Y205973D01*
X302573Y205973D01*
G37*
%LPD*%
%LPC*%
G36*
X464573Y185973D02*
X464573Y185973D01*
X464573Y191991D01*
X470884Y191991D01*
X471531Y191818D01*
X472110Y191483D01*
X472583Y191010D01*
X472918Y190431D01*
X473091Y189784D01*
X473091Y185973D01*
X464573Y185973D01*
G37*
%LPD*%
%LPC*%
G36*
X453009Y185973D02*
X453009Y185973D01*
X453009Y189784D01*
X453182Y190431D01*
X453517Y191010D01*
X453990Y191483D01*
X454569Y191818D01*
X455216Y191991D01*
X461527Y191991D01*
X461527Y185973D01*
X453009Y185973D01*
G37*
%LPD*%
%LPC*%
G36*
X291009Y65973D02*
X291009Y65973D01*
X291009Y69784D01*
X291182Y70431D01*
X291517Y71010D01*
X291990Y71483D01*
X292569Y71818D01*
X293216Y71991D01*
X299527Y71991D01*
X299527Y65973D01*
X291009Y65973D01*
G37*
%LPD*%
%LPC*%
G36*
X291009Y205973D02*
X291009Y205973D01*
X291009Y209784D01*
X291182Y210431D01*
X291517Y211010D01*
X291990Y211483D01*
X292569Y211818D01*
X293216Y211991D01*
X299527Y211991D01*
X299527Y205973D01*
X291009Y205973D01*
G37*
%LPD*%
%LPC*%
G36*
X302573Y196909D02*
X302573Y196909D01*
X302573Y202927D01*
X311091Y202927D01*
X311091Y199115D01*
X310918Y198469D01*
X310583Y197890D01*
X310110Y197417D01*
X309531Y197082D01*
X308884Y196909D01*
X302573Y196909D01*
G37*
%LPD*%
%LPC*%
G36*
X302573Y56909D02*
X302573Y56909D01*
X302573Y62927D01*
X311091Y62927D01*
X311091Y59115D01*
X310918Y58469D01*
X310583Y57890D01*
X310110Y57417D01*
X309531Y57082D01*
X308884Y56909D01*
X302573Y56909D01*
G37*
%LPD*%
%LPC*%
G36*
X464573Y176909D02*
X464573Y176909D01*
X464573Y182927D01*
X473091Y182927D01*
X473091Y179115D01*
X472918Y178469D01*
X472583Y177890D01*
X472110Y177417D01*
X471531Y177082D01*
X470884Y176909D01*
X464573Y176909D01*
G37*
%LPD*%
%LPC*%
G36*
X293216Y196909D02*
X293216Y196909D01*
X292569Y197082D01*
X291990Y197417D01*
X291517Y197890D01*
X291182Y198469D01*
X291009Y199116D01*
X291009Y202927D01*
X299527Y202927D01*
X299527Y196909D01*
X293216Y196909D01*
G37*
%LPD*%
%LPC*%
G36*
X293216Y56909D02*
X293216Y56909D01*
X292569Y57082D01*
X291990Y57417D01*
X291517Y57890D01*
X291182Y58469D01*
X291009Y59116D01*
X291009Y62927D01*
X299527Y62927D01*
X299527Y56909D01*
X293216Y56909D01*
G37*
%LPD*%
%LPC*%
G36*
X455216Y176909D02*
X455216Y176909D01*
X454569Y177082D01*
X453990Y177417D01*
X453517Y177890D01*
X453182Y178469D01*
X453009Y179116D01*
X453009Y182927D01*
X461527Y182927D01*
X461527Y176909D01*
X455216Y176909D01*
G37*
%LPD*%
%LPC*%
G36*
X184149Y260349D02*
X184149Y260349D01*
X184149Y260351D01*
X184151Y260351D01*
X184151Y260349D01*
X184149Y260349D01*
G37*
%LPD*%
%LPC*%
G36*
X155749Y149699D02*
X155749Y149699D01*
X155749Y149701D01*
X155751Y149701D01*
X155751Y149699D01*
X155749Y149699D01*
G37*
%LPD*%
%LPC*%
G36*
X301049Y204449D02*
X301049Y204449D01*
X301049Y204451D01*
X301051Y204451D01*
X301051Y204449D01*
X301049Y204449D01*
G37*
%LPD*%
%LPC*%
G36*
X301049Y64449D02*
X301049Y64449D01*
X301049Y64451D01*
X301051Y64451D01*
X301051Y64449D01*
X301049Y64449D01*
G37*
%LPD*%
%LPC*%
G36*
X463049Y184449D02*
X463049Y184449D01*
X463049Y184451D01*
X463051Y184451D01*
X463051Y184449D01*
X463049Y184449D01*
G37*
%LPD*%
D10*
X80750Y224700D03*
X93450Y224700D03*
X106150Y224700D03*
X118850Y224700D03*
X131550Y224700D03*
X144250Y224700D03*
X156950Y224700D03*
X169650Y224700D03*
X182350Y224700D03*
X195050Y224700D03*
X207750Y224700D03*
X220450Y224700D03*
X233150Y224700D03*
X245850Y224700D03*
D11*
X255850Y196850D03*
X255850Y184150D03*
X255850Y171450D03*
X255850Y158750D03*
X255850Y146050D03*
X255850Y133350D03*
X255850Y120650D03*
X255850Y107950D03*
X255850Y95250D03*
X255850Y82550D03*
D10*
X245850Y54700D03*
X233150Y54700D03*
X220450Y54700D03*
X207750Y54700D03*
X195050Y54700D03*
X182350Y54700D03*
X169650Y54700D03*
X156950Y54700D03*
X144250Y54700D03*
X131550Y54700D03*
X118850Y54700D03*
X106150Y54700D03*
X93450Y54700D03*
X80750Y54700D03*
D12*
X155750Y149700D03*
D13*
X463050Y204450D03*
X463050Y184450D03*
X463050Y164450D03*
X463050Y144450D03*
X463050Y124450D03*
X463050Y104450D03*
X463050Y84450D03*
X463050Y64450D03*
X301050Y64450D03*
X301050Y84450D03*
X301050Y104450D03*
X301050Y124450D03*
X301050Y144450D03*
X301050Y164450D03*
X301050Y184450D03*
X301050Y204450D03*
D14*
X412750Y19050D03*
X387350Y19050D03*
X361950Y19050D03*
X336550Y19050D03*
X311150Y19050D03*
X285750Y19050D03*
X260350Y19050D03*
X234950Y19050D03*
X209550Y19050D03*
X184150Y19050D03*
X158750Y19050D03*
X133350Y19050D03*
X107950Y19050D03*
X82550Y19050D03*
X412750Y260350D03*
X387350Y260350D03*
X361950Y260350D03*
X336550Y260350D03*
X311150Y260350D03*
X285750Y260350D03*
X260350Y260350D03*
X234950Y260350D03*
X209550Y260350D03*
X184150Y260350D03*
X158750Y260350D03*
X133350Y260350D03*
X107950Y260350D03*
X82550Y260350D03*
X444500Y247650D03*
D15*
X165100Y95250D03*
X12700Y254000D03*
X50800Y254000D03*
X79900Y132600D03*
X79900Y88000D03*
X50800Y25400D03*
X12700Y25400D03*
X457200Y19050D03*
X429500Y232800D03*
X457800Y263700D03*
X329700Y131000D03*
X282500Y61900D03*
X386400Y106600D03*
X326700Y192300D03*
X236100Y181500D03*
X202500Y173400D03*
X130100Y199300D03*
X400050Y171450D03*
D16*
X375920Y125984D02*
X461264Y125984D01*
X375920Y125984D02*
X373888Y123952D01*
X461264Y125984D02*
X463050Y124450D01*
X93472Y225552D02*
X93472Y237744D01*
X99568Y243840D01*
X119888Y243840D01*
X132080Y256032D01*
X132080Y260096D01*
X93472Y225552D02*
X93450Y224700D01*
X132080Y260096D02*
X133350Y260350D01*
X316992Y180848D02*
X373888Y123952D01*
X371856Y121920D01*
D15*
X371856Y121920D03*
X316992Y180848D03*
D16*
X132080Y111760D02*
X132080Y54864D01*
X132080Y111760D02*
X85344Y158496D01*
X85344Y207264D01*
X132080Y54864D02*
X131550Y54700D01*
D15*
X85344Y207264D03*
D16*
X119888Y117856D02*
X119888Y54864D01*
X119888Y117856D02*
X77216Y160528D01*
X77216Y209296D01*
X73152Y213360D01*
X73152Y235712D01*
X69088Y239776D01*
X69088Y249936D01*
X81280Y262128D01*
X118850Y54700D02*
X119888Y54864D01*
X82550Y260350D02*
X81280Y262128D01*
X312928Y146304D02*
X316992Y150368D01*
X312928Y146304D02*
X302768Y146304D01*
X301050Y144450D01*
X195072Y62992D02*
X195072Y54864D01*
X195072Y62992D02*
X237744Y105664D01*
X278384Y146304D02*
X300736Y146304D01*
X195072Y54864D02*
X195050Y54700D01*
X301050Y144450D02*
X300736Y146304D01*
D15*
X316992Y150368D03*
X237744Y105664D03*
X278384Y146304D03*
D16*
X302768Y123952D02*
X312928Y123952D01*
X316992Y119888D01*
X316992Y56896D01*
X296672Y36576D01*
X264160Y36576D02*
X258064Y36576D01*
X264160Y36576D02*
X296672Y36576D01*
X258064Y36576D02*
X251968Y30480D01*
X249936Y32512D01*
X245872Y32512D01*
X233680Y20320D01*
X301050Y124450D02*
X302768Y123952D01*
X233680Y20320D02*
X234950Y19050D01*
X182880Y54864D02*
X182880Y69088D01*
X186944Y73152D01*
X193040Y73152D01*
X182880Y54864D02*
X182350Y54700D01*
D15*
X193040Y73152D03*
X264160Y36576D03*
D16*
X288544Y83312D02*
X300736Y83312D01*
X288544Y83312D02*
X258064Y52832D01*
X258064Y42672D01*
X251968Y36576D01*
X223520Y36576D01*
X211328Y24384D01*
X211328Y20320D01*
X300736Y83312D02*
X301050Y84450D01*
X170688Y52832D02*
X170688Y40640D01*
X174752Y36576D01*
X195072Y36576D01*
X211328Y20320D01*
X170688Y52832D02*
X169650Y54700D01*
X209550Y19050D02*
X211328Y20320D01*
X282448Y105664D02*
X300736Y105664D01*
X282448Y105664D02*
X274320Y113792D01*
X300736Y105664D02*
X301050Y104450D01*
X93472Y69088D02*
X93472Y54864D01*
X93472Y69088D02*
X97536Y73152D01*
X111760Y73152D01*
X93472Y54864D02*
X93450Y54700D01*
D15*
X274320Y113792D03*
X111760Y73152D03*
D16*
X274320Y164592D02*
X300736Y164592D01*
X197104Y207264D02*
X197104Y209296D01*
X195072Y211328D01*
X195072Y223520D01*
X300736Y164592D02*
X301050Y164450D01*
X195072Y223520D02*
X195050Y224700D01*
D15*
X274320Y164592D03*
X197104Y207264D03*
D16*
X359664Y93472D02*
X440944Y93472D01*
X451104Y103632D01*
X461264Y103632D01*
X463050Y104450D01*
X170688Y209296D02*
X170688Y223520D01*
X170688Y209296D02*
X180848Y199136D01*
X237744Y199136D01*
X286512Y176784D02*
X290576Y172720D01*
X314960Y172720D01*
X359664Y128016D01*
X359664Y93472D01*
X170688Y223520D02*
X169650Y224700D01*
D15*
X359664Y93472D03*
X237744Y199136D03*
X286512Y176784D03*
D16*
X463296Y205232D02*
X463296Y219456D01*
X447040Y235712D01*
X447040Y243840D01*
X445008Y245872D01*
X463296Y205232D02*
X463050Y204450D01*
X445008Y245872D02*
X444500Y247650D01*
X233680Y69088D02*
X233680Y54864D01*
X233680Y69088D02*
X237744Y73152D01*
X233680Y54864D02*
X233150Y54700D01*
D15*
X237744Y73152D03*
D16*
X119888Y209296D02*
X119888Y223520D01*
X119888Y209296D02*
X121220Y207964D01*
X157796Y207964D02*
X158496Y207264D01*
X157796Y207964D02*
X121220Y207964D01*
X119888Y223520D02*
X118850Y224700D01*
D15*
X158496Y207264D03*
D16*
X107696Y225552D02*
X107696Y233680D01*
X113792Y239776D01*
X121920Y239776D01*
X125984Y243840D01*
X140208Y243840D01*
X158496Y262128D01*
X107696Y225552D02*
X106150Y224700D01*
X158750Y260350D02*
X158496Y262128D01*
X107696Y223520D02*
X107696Y209296D01*
X125984Y191008D01*
X225552Y191008D01*
X327152Y207264D02*
X333248Y207264D01*
X404368Y136144D01*
X107696Y223520D02*
X106150Y224700D01*
D15*
X225552Y191008D03*
X327152Y207264D03*
X404368Y136144D03*
D16*
X266192Y225552D02*
X245872Y225552D01*
X245850Y224700D01*
D15*
X266192Y225552D03*
D16*
X274320Y95504D02*
X256032Y95504D01*
X255850Y95250D01*
D15*
X274320Y95504D03*
D16*
X209296Y69088D02*
X209296Y54864D01*
X209296Y69088D02*
X213360Y73152D01*
X225552Y73152D01*
X209296Y54864D02*
X207750Y54700D01*
D15*
X225552Y73152D03*
D16*
X219456Y52832D02*
X219456Y40640D01*
X215392Y36576D01*
X211328Y36576D01*
X219456Y52832D02*
X220450Y54700D01*
D15*
X211328Y36576D03*
D16*
X144272Y26416D02*
X144272Y52832D01*
X144272Y26416D02*
X146304Y24384D01*
X146304Y14224D01*
X138176Y6096D01*
X97536Y6096D01*
X83312Y20320D01*
X144272Y52832D02*
X144250Y54700D01*
X83312Y20320D02*
X82550Y19050D01*
X107696Y34544D02*
X107696Y52832D01*
X107696Y34544D02*
X105664Y32512D01*
X105664Y22352D01*
X107696Y20320D01*
X107696Y52832D02*
X106150Y54700D01*
X107696Y20320D02*
X107950Y19050D01*
X209296Y225552D02*
X209296Y239776D01*
X213360Y243840D01*
X272288Y243840D01*
X284480Y256032D01*
X284480Y260096D01*
X209296Y225552D02*
X207750Y224700D01*
X284480Y260096D02*
X285750Y260350D01*
X221488Y223520D02*
X221488Y209296D01*
X223520Y207264D01*
X241808Y207264D01*
X243840Y209296D01*
X262128Y209296D01*
X312928Y260096D01*
X221488Y223520D02*
X220450Y224700D01*
X311150Y260350D02*
X312928Y260096D01*
X182880Y239776D02*
X182880Y225552D01*
X182880Y239776D02*
X186944Y243840D01*
X207264Y243840D01*
X211328Y247904D01*
X245872Y247904D01*
X260096Y262128D01*
X182880Y225552D02*
X182350Y224700D01*
X260350Y260350D02*
X260096Y262128D01*
X132080Y231648D02*
X132080Y225552D01*
X132080Y231648D02*
X140208Y239776D01*
X142240Y239776D01*
X144272Y241808D01*
X150368Y241808D01*
X132080Y225552D02*
X131550Y224700D01*
D15*
X150368Y241808D03*
D16*
X233680Y231648D02*
X233680Y225552D01*
X233680Y231648D02*
X241808Y239776D01*
X280416Y239776D01*
X233680Y225552D02*
X233150Y224700D01*
D15*
X280416Y239776D03*
D16*
X254000Y54864D02*
X245872Y54864D01*
X254000Y54864D02*
X286512Y87376D01*
X286512Y91440D01*
X245872Y54864D02*
X245850Y54700D01*
D15*
X286512Y91440D03*
D16*
X337312Y85344D02*
X337312Y69088D01*
X337312Y85344D02*
X321056Y101600D01*
X321056Y121920D01*
X306832Y136144D01*
X290576Y136144D01*
X282448Y128016D01*
X274320Y128016D01*
X237744Y91440D02*
X237744Y87376D01*
X241808Y83312D01*
X254000Y83312D01*
X255850Y82550D01*
D15*
X337312Y69088D03*
X274320Y128016D03*
X237744Y91440D03*
D16*
X256032Y184912D02*
X270256Y184912D01*
X284480Y199136D01*
X284480Y211328D01*
X316992Y243840D01*
X373888Y243840D01*
X386080Y256032D01*
X386080Y260096D01*
X256032Y184912D02*
X255850Y184150D01*
X386080Y260096D02*
X387350Y260350D01*
X453136Y164592D02*
X461264Y164592D01*
X453136Y164592D02*
X414528Y203200D01*
X414528Y249936D01*
X412496Y251968D01*
X412496Y260096D01*
X461264Y164592D02*
X463050Y164450D01*
X412496Y260096D02*
X412750Y260350D01*
X463296Y144272D02*
X473456Y144272D01*
X477520Y140208D01*
X477520Y101600D01*
X469392Y93472D01*
X455168Y93472D01*
X449072Y87376D01*
X428752Y87376D01*
X394208Y52832D01*
X463050Y144450D02*
X463296Y144272D01*
D15*
X394208Y52832D03*
D16*
X436880Y83312D02*
X461264Y83312D01*
X436880Y83312D02*
X406400Y52832D01*
X461264Y83312D02*
X463050Y84450D01*
D15*
X406400Y52832D03*
D16*
X463296Y46736D02*
X463296Y62992D01*
X463296Y46736D02*
X422656Y6096D01*
X402336Y6096D01*
X388112Y20320D01*
X463296Y62992D02*
X463050Y64450D01*
X388112Y20320D02*
X387350Y19050D01*
X414528Y20320D02*
X343408Y91440D01*
X412750Y19050D02*
X414528Y20320D01*
D15*
X343408Y91440D03*
M02*
