G04 EAGLE Gerber RS-274X export*
G75*
%MOMM*%
%FSLAX34Y34*%
%LPD*%
%INSilkscreen Bottom*%
%IPPOS*%
%AMOC8*
5,1,8,0,0,1.08239X$1,22.5*%
G01*
%ADD10C,0.200000*%
%ADD11C,0.127000*%
%ADD12C,0.076200*%
%ADD13C,0.609600*%
%ADD14C,0.152400*%


D10*
X79850Y239700D02*
X79852Y239763D01*
X79858Y239825D01*
X79868Y239887D01*
X79881Y239949D01*
X79899Y240009D01*
X79920Y240068D01*
X79945Y240126D01*
X79974Y240182D01*
X80006Y240236D01*
X80041Y240288D01*
X80079Y240337D01*
X80121Y240385D01*
X80165Y240429D01*
X80213Y240471D01*
X80262Y240509D01*
X80314Y240544D01*
X80368Y240576D01*
X80424Y240605D01*
X80482Y240630D01*
X80541Y240651D01*
X80601Y240669D01*
X80663Y240682D01*
X80725Y240692D01*
X80787Y240698D01*
X80850Y240700D01*
X80913Y240698D01*
X80975Y240692D01*
X81037Y240682D01*
X81099Y240669D01*
X81159Y240651D01*
X81218Y240630D01*
X81276Y240605D01*
X81332Y240576D01*
X81386Y240544D01*
X81438Y240509D01*
X81487Y240471D01*
X81535Y240429D01*
X81579Y240385D01*
X81621Y240337D01*
X81659Y240288D01*
X81694Y240236D01*
X81726Y240182D01*
X81755Y240126D01*
X81780Y240068D01*
X81801Y240009D01*
X81819Y239949D01*
X81832Y239887D01*
X81842Y239825D01*
X81848Y239763D01*
X81850Y239700D01*
X81848Y239637D01*
X81842Y239575D01*
X81832Y239513D01*
X81819Y239451D01*
X81801Y239391D01*
X81780Y239332D01*
X81755Y239274D01*
X81726Y239218D01*
X81694Y239164D01*
X81659Y239112D01*
X81621Y239063D01*
X81579Y239015D01*
X81535Y238971D01*
X81487Y238929D01*
X81438Y238891D01*
X81386Y238856D01*
X81332Y238824D01*
X81276Y238795D01*
X81218Y238770D01*
X81159Y238749D01*
X81099Y238731D01*
X81037Y238718D01*
X80975Y238708D01*
X80913Y238702D01*
X80850Y238700D01*
X80787Y238702D01*
X80725Y238708D01*
X80663Y238718D01*
X80601Y238731D01*
X80541Y238749D01*
X80482Y238770D01*
X80424Y238795D01*
X80368Y238824D01*
X80314Y238856D01*
X80262Y238891D01*
X80213Y238929D01*
X80165Y238971D01*
X80121Y239015D01*
X80079Y239063D01*
X80041Y239112D01*
X80006Y239164D01*
X79974Y239218D01*
X79945Y239274D01*
X79920Y239332D01*
X79899Y239391D01*
X79881Y239451D01*
X79868Y239513D01*
X79858Y239575D01*
X79852Y239637D01*
X79850Y239700D01*
D11*
X254350Y229700D02*
X260850Y229700D01*
X260850Y205200D01*
X260850Y74200D02*
X260850Y49700D01*
X254350Y49700D01*
X70850Y229700D02*
X5850Y229700D01*
X5850Y49700D01*
X70850Y49700D01*
D12*
X193689Y144178D02*
X199009Y144178D01*
X193689Y144178D02*
X193600Y144180D01*
X193511Y144186D01*
X193422Y144196D01*
X193334Y144209D01*
X193246Y144226D01*
X193159Y144248D01*
X193074Y144273D01*
X192989Y144301D01*
X192906Y144334D01*
X192824Y144370D01*
X192744Y144409D01*
X192666Y144452D01*
X192590Y144498D01*
X192515Y144548D01*
X192443Y144601D01*
X192374Y144657D01*
X192307Y144716D01*
X192242Y144777D01*
X192181Y144842D01*
X192122Y144909D01*
X192066Y144978D01*
X192013Y145050D01*
X191963Y145125D01*
X191917Y145201D01*
X191874Y145279D01*
X191835Y145359D01*
X191799Y145441D01*
X191766Y145524D01*
X191738Y145609D01*
X191713Y145694D01*
X191691Y145781D01*
X191674Y145869D01*
X191661Y145957D01*
X191651Y146046D01*
X191645Y146135D01*
X191643Y146224D01*
X191645Y146313D01*
X191651Y146402D01*
X191661Y146491D01*
X191674Y146579D01*
X191691Y146667D01*
X191713Y146754D01*
X191738Y146839D01*
X191766Y146924D01*
X191799Y147007D01*
X191835Y147089D01*
X191874Y147169D01*
X191917Y147247D01*
X191963Y147323D01*
X192013Y147398D01*
X192066Y147470D01*
X192122Y147539D01*
X192181Y147606D01*
X192242Y147671D01*
X192307Y147732D01*
X192374Y147791D01*
X192443Y147847D01*
X192515Y147900D01*
X192590Y147950D01*
X192666Y147996D01*
X192744Y148039D01*
X192824Y148078D01*
X192906Y148114D01*
X192989Y148147D01*
X193074Y148175D01*
X193159Y148200D01*
X193246Y148222D01*
X193334Y148239D01*
X193422Y148252D01*
X193511Y148262D01*
X193600Y148268D01*
X193689Y148270D01*
X199009Y148270D01*
X191643Y151737D02*
X191643Y153783D01*
X191645Y153872D01*
X191651Y153961D01*
X191661Y154050D01*
X191674Y154138D01*
X191691Y154226D01*
X191713Y154313D01*
X191738Y154398D01*
X191766Y154483D01*
X191799Y154566D01*
X191835Y154648D01*
X191874Y154728D01*
X191917Y154806D01*
X191963Y154882D01*
X192013Y154957D01*
X192066Y155029D01*
X192122Y155098D01*
X192181Y155165D01*
X192242Y155230D01*
X192307Y155291D01*
X192374Y155350D01*
X192443Y155406D01*
X192515Y155459D01*
X192590Y155509D01*
X192666Y155555D01*
X192744Y155598D01*
X192824Y155637D01*
X192906Y155673D01*
X192989Y155706D01*
X193074Y155734D01*
X193159Y155759D01*
X193246Y155781D01*
X193334Y155798D01*
X193422Y155811D01*
X193511Y155821D01*
X193600Y155827D01*
X193689Y155829D01*
X193778Y155827D01*
X193867Y155821D01*
X193956Y155811D01*
X194044Y155798D01*
X194132Y155781D01*
X194219Y155759D01*
X194304Y155734D01*
X194389Y155706D01*
X194472Y155673D01*
X194554Y155637D01*
X194634Y155598D01*
X194712Y155555D01*
X194788Y155509D01*
X194863Y155459D01*
X194935Y155406D01*
X195004Y155350D01*
X195071Y155291D01*
X195136Y155230D01*
X195197Y155165D01*
X195256Y155098D01*
X195312Y155029D01*
X195365Y154957D01*
X195415Y154882D01*
X195461Y154806D01*
X195504Y154728D01*
X195543Y154648D01*
X195579Y154566D01*
X195612Y154483D01*
X195640Y154398D01*
X195665Y154313D01*
X195687Y154226D01*
X195704Y154138D01*
X195717Y154050D01*
X195727Y153961D01*
X195733Y153872D01*
X195735Y153783D01*
X199009Y154192D02*
X199009Y151737D01*
X199009Y154192D02*
X199007Y154271D01*
X199001Y154350D01*
X198992Y154429D01*
X198979Y154507D01*
X198961Y154584D01*
X198941Y154660D01*
X198916Y154735D01*
X198888Y154809D01*
X198857Y154882D01*
X198821Y154953D01*
X198783Y155022D01*
X198741Y155089D01*
X198696Y155154D01*
X198648Y155217D01*
X198597Y155278D01*
X198543Y155335D01*
X198487Y155391D01*
X198428Y155443D01*
X198366Y155493D01*
X198302Y155539D01*
X198236Y155583D01*
X198168Y155623D01*
X198098Y155659D01*
X198026Y155693D01*
X197952Y155723D01*
X197878Y155749D01*
X197802Y155772D01*
X197725Y155790D01*
X197648Y155806D01*
X197569Y155817D01*
X197491Y155825D01*
X197412Y155829D01*
X197332Y155829D01*
X197253Y155825D01*
X197175Y155817D01*
X197096Y155806D01*
X197019Y155790D01*
X196942Y155772D01*
X196866Y155749D01*
X196792Y155723D01*
X196718Y155693D01*
X196646Y155659D01*
X196576Y155623D01*
X196508Y155583D01*
X196442Y155539D01*
X196378Y155493D01*
X196316Y155443D01*
X196257Y155391D01*
X196201Y155335D01*
X196147Y155278D01*
X196096Y155217D01*
X196048Y155154D01*
X196003Y155089D01*
X195961Y155022D01*
X195923Y154953D01*
X195887Y154882D01*
X195856Y154809D01*
X195828Y154735D01*
X195803Y154660D01*
X195783Y154584D01*
X195765Y154507D01*
X195752Y154429D01*
X195743Y154350D01*
X195737Y154271D01*
X195735Y154192D01*
X195735Y152555D01*
D11*
X301050Y57450D02*
X301050Y53450D01*
X463050Y53450D01*
X463050Y57450D01*
X301050Y211450D02*
X301050Y215450D01*
X463050Y215450D01*
X463050Y211450D01*
D13*
X480050Y204450D02*
X480052Y204559D01*
X480058Y204668D01*
X480068Y204776D01*
X480082Y204884D01*
X480099Y204992D01*
X480121Y205099D01*
X480146Y205205D01*
X480176Y205309D01*
X480209Y205413D01*
X480246Y205516D01*
X480286Y205617D01*
X480330Y205716D01*
X480378Y205814D01*
X480430Y205911D01*
X480484Y206005D01*
X480542Y206097D01*
X480604Y206187D01*
X480669Y206274D01*
X480736Y206360D01*
X480807Y206443D01*
X480881Y206523D01*
X480958Y206600D01*
X481037Y206675D01*
X481119Y206746D01*
X481204Y206815D01*
X481291Y206880D01*
X481380Y206943D01*
X481472Y207001D01*
X481566Y207057D01*
X481661Y207109D01*
X481759Y207158D01*
X481858Y207203D01*
X481959Y207245D01*
X482061Y207282D01*
X482164Y207316D01*
X482269Y207347D01*
X482375Y207373D01*
X482481Y207396D01*
X482589Y207414D01*
X482697Y207429D01*
X482805Y207440D01*
X482914Y207447D01*
X483023Y207450D01*
X483132Y207449D01*
X483241Y207444D01*
X483349Y207435D01*
X483457Y207422D01*
X483565Y207405D01*
X483672Y207385D01*
X483778Y207360D01*
X483883Y207332D01*
X483987Y207300D01*
X484090Y207264D01*
X484192Y207224D01*
X484292Y207181D01*
X484390Y207134D01*
X484487Y207084D01*
X484581Y207030D01*
X484674Y206972D01*
X484765Y206912D01*
X484853Y206848D01*
X484939Y206781D01*
X485022Y206711D01*
X485103Y206638D01*
X485181Y206562D01*
X485256Y206483D01*
X485329Y206401D01*
X485398Y206317D01*
X485464Y206231D01*
X485527Y206142D01*
X485587Y206051D01*
X485644Y205958D01*
X485697Y205863D01*
X485746Y205766D01*
X485792Y205667D01*
X485834Y205567D01*
X485873Y205465D01*
X485908Y205361D01*
X485939Y205257D01*
X485967Y205152D01*
X485990Y205045D01*
X486010Y204938D01*
X486026Y204830D01*
X486038Y204722D01*
X486046Y204613D01*
X486050Y204504D01*
X486050Y204396D01*
X486046Y204287D01*
X486038Y204178D01*
X486026Y204070D01*
X486010Y203962D01*
X485990Y203855D01*
X485967Y203748D01*
X485939Y203643D01*
X485908Y203539D01*
X485873Y203435D01*
X485834Y203333D01*
X485792Y203233D01*
X485746Y203134D01*
X485697Y203037D01*
X485644Y202942D01*
X485587Y202849D01*
X485527Y202758D01*
X485464Y202669D01*
X485398Y202583D01*
X485329Y202499D01*
X485256Y202417D01*
X485181Y202338D01*
X485103Y202262D01*
X485022Y202189D01*
X484939Y202119D01*
X484853Y202052D01*
X484765Y201988D01*
X484674Y201928D01*
X484581Y201870D01*
X484487Y201816D01*
X484390Y201766D01*
X484292Y201719D01*
X484192Y201676D01*
X484090Y201636D01*
X483987Y201600D01*
X483883Y201568D01*
X483778Y201540D01*
X483672Y201515D01*
X483565Y201495D01*
X483457Y201478D01*
X483349Y201465D01*
X483241Y201456D01*
X483132Y201451D01*
X483023Y201450D01*
X482914Y201453D01*
X482805Y201460D01*
X482697Y201471D01*
X482589Y201486D01*
X482481Y201504D01*
X482375Y201527D01*
X482269Y201553D01*
X482164Y201584D01*
X482061Y201618D01*
X481959Y201655D01*
X481858Y201697D01*
X481759Y201742D01*
X481661Y201791D01*
X481566Y201843D01*
X481472Y201899D01*
X481380Y201957D01*
X481291Y202020D01*
X481204Y202085D01*
X481119Y202154D01*
X481037Y202225D01*
X480958Y202300D01*
X480881Y202377D01*
X480807Y202457D01*
X480736Y202540D01*
X480669Y202626D01*
X480604Y202713D01*
X480542Y202803D01*
X480484Y202895D01*
X480430Y202989D01*
X480378Y203086D01*
X480330Y203184D01*
X480286Y203283D01*
X480246Y203384D01*
X480209Y203487D01*
X480176Y203591D01*
X480146Y203695D01*
X480121Y203801D01*
X480099Y203908D01*
X480082Y204016D01*
X480068Y204124D01*
X480058Y204232D01*
X480052Y204341D01*
X480050Y204450D01*
D14*
X388960Y110828D02*
X388960Y106058D01*
X388959Y106058D02*
X388957Y105973D01*
X388951Y105889D01*
X388941Y105805D01*
X388928Y105721D01*
X388910Y105638D01*
X388889Y105556D01*
X388864Y105475D01*
X388835Y105395D01*
X388803Y105317D01*
X388767Y105241D01*
X388727Y105166D01*
X388684Y105093D01*
X388638Y105022D01*
X388589Y104953D01*
X388536Y104886D01*
X388480Y104822D01*
X388422Y104761D01*
X388361Y104703D01*
X388297Y104647D01*
X388230Y104594D01*
X388161Y104545D01*
X388090Y104499D01*
X388017Y104456D01*
X387942Y104416D01*
X387866Y104380D01*
X387788Y104348D01*
X387708Y104319D01*
X387627Y104294D01*
X387545Y104273D01*
X387462Y104255D01*
X387378Y104242D01*
X387294Y104232D01*
X387210Y104226D01*
X387125Y104224D01*
X387040Y104226D01*
X386956Y104232D01*
X386872Y104242D01*
X386788Y104255D01*
X386705Y104273D01*
X386623Y104294D01*
X386542Y104319D01*
X386462Y104348D01*
X386384Y104380D01*
X386308Y104416D01*
X386233Y104456D01*
X386160Y104499D01*
X386089Y104545D01*
X386020Y104594D01*
X385953Y104647D01*
X385889Y104703D01*
X385828Y104761D01*
X385770Y104822D01*
X385714Y104886D01*
X385661Y104953D01*
X385612Y105022D01*
X385566Y105093D01*
X385523Y105166D01*
X385483Y105241D01*
X385447Y105317D01*
X385415Y105395D01*
X385386Y105475D01*
X385361Y105556D01*
X385340Y105638D01*
X385322Y105721D01*
X385309Y105805D01*
X385299Y105889D01*
X385293Y105973D01*
X385291Y106058D01*
X385291Y110828D01*
X381401Y109360D02*
X379566Y110828D01*
X379566Y104224D01*
X377732Y104224D02*
X381401Y104224D01*
M02*
