G04 EAGLE Gerber RS-274X export*
G75*
%MOMM*%
%FSLAX34Y34*%
%LPD*%
%INSoldermask Top*%
%IPPOS*%
%AMOC8*
5,1,8,0,0,1.08239X$1,22.5*%
G01*
%ADD10R,1.803200X1.003200*%
%ADD11R,1.003200X1.403200*%
%ADD12R,1.403200X1.003200*%
%ADD13R,2.403200X1.253200*%
%ADD14R,1.003200X1.203200*%
%ADD15R,1.203200X1.854200*%
%ADD16C,0.903200*%
%ADD17R,2.203200X1.303200*%
%ADD18C,2.082800*%


D10*
X271925Y79375D03*
X305925Y79375D03*
D11*
X110600Y158750D03*
X92600Y158750D03*
X110600Y190500D03*
X92600Y190500D03*
D12*
X381000Y78850D03*
X381000Y60850D03*
X349250Y60850D03*
X349250Y78850D03*
X381000Y194200D03*
X381000Y212200D03*
D11*
X364600Y136525D03*
X346600Y136525D03*
X346600Y165100D03*
X364600Y165100D03*
D13*
X482600Y233900D03*
X482600Y261400D03*
D14*
X467350Y247650D03*
D11*
X289450Y136525D03*
X307450Y136525D03*
X307450Y107950D03*
X289450Y107950D03*
X364600Y107950D03*
X346600Y107950D03*
D12*
X349250Y194200D03*
X349250Y212200D03*
D15*
X450725Y91705D03*
X450725Y143245D03*
X482725Y143245D03*
X482725Y91705D03*
D16*
X482025Y33500D03*
X500025Y33500D03*
D17*
X491025Y14000D03*
X491025Y53000D03*
D16*
X482025Y191050D03*
X500025Y191050D03*
D17*
X491025Y171550D03*
X491025Y210550D03*
D12*
X406400Y123300D03*
X406400Y105300D03*
D18*
X412750Y19050D03*
X387350Y19050D03*
X361950Y19050D03*
X336550Y19050D03*
X311150Y19050D03*
X285750Y19050D03*
X260350Y19050D03*
X234950Y19050D03*
X209550Y19050D03*
X184150Y19050D03*
X158750Y19050D03*
X133350Y19050D03*
X107950Y19050D03*
X82550Y19050D03*
X412750Y260350D03*
X387350Y260350D03*
X361950Y260350D03*
X336550Y260350D03*
X311150Y260350D03*
X285750Y260350D03*
X260350Y260350D03*
X234950Y260350D03*
X209550Y260350D03*
X184150Y260350D03*
X158750Y260350D03*
X133350Y260350D03*
X107950Y260350D03*
X82550Y260350D03*
X444500Y247650D03*
M02*
